ISO-10303-21;
HEADER;
FILE_DESCRIPTION(('KiCad electronic assembly'),'2;1');
FILE_NAME('left_base.step','2026-08-02T20:16:11',('Pcbnew'),('Kicad'),
  'Open CASCADE STEP processor 7.9','KiCad to STEP converter','Unknown'
  );
FILE_SCHEMA(('AUTOMOTIVE_DESIGN { 1 0 10303 214 1 1 1 1 }'));
ENDSEC;
DATA;
#1 = APPLICATION_PROTOCOL_DEFINITION('international standard',
  'automotive_design',2000,#2);
#2 = APPLICATION_CONTEXT(
  'core data for automotive mechanical design processes');
#3 = SHAPE_DEFINITION_REPRESENTATION(#4,#10);
#4 = PRODUCT_DEFINITION_SHAPE('','',#5);
#5 = PRODUCT_DEFINITION('design','',#6,#9);
#6 = PRODUCT_DEFINITION_FORMATION('','',#7);
#7 = PRODUCT('left_base 1','left_base 1','',(#8));
#8 = PRODUCT_CONTEXT('',#2,'mechanical');
#9 = PRODUCT_DEFINITION_CONTEXT('part definition',#2,'design');
#10 = SHAPE_REPRESENTATION('',(#11,#15),#19);
#11 = AXIS2_PLACEMENT_3D('',#12,#13,#14);
#12 = CARTESIAN_POINT('',(0.,0.,0.));
#13 = DIRECTION('',(0.,0.,1.));
#14 = DIRECTION('',(1.,0.,-0.));
#15 = AXIS2_PLACEMENT_3D('',#16,#17,#18);
#16 = CARTESIAN_POINT('',(0.,0.,0.));
#17 = DIRECTION('',(0.,0.,1.));
#18 = DIRECTION('',(1.,0.,-0.));
#19 = ( GEOMETRIC_REPRESENTATION_CONTEXT(3) 
GLOBAL_UNCERTAINTY_ASSIGNED_CONTEXT((#23)) GLOBAL_UNIT_ASSIGNED_CONTEXT(
(#20,#21,#22)) REPRESENTATION_CONTEXT('Context #1',
  '3D Context with UNIT and UNCERTAINTY') );
#20 = ( LENGTH_UNIT() NAMED_UNIT(*) SI_UNIT(.MILLI.,.METRE.) );
#21 = ( NAMED_UNIT(*) PLANE_ANGLE_UNIT() SI_UNIT($,.RADIAN.) );
#22 = ( NAMED_UNIT(*) SI_UNIT($,.STERADIAN.) SOLID_ANGLE_UNIT() );
#23 = UNCERTAINTY_MEASURE_WITH_UNIT(LENGTH_MEASURE(1.E-07),#20,
  'distance_accuracy_value','confusion accuracy');
#24 = PRODUCT_RELATED_PRODUCT_CATEGORY('part',$,(#7));
#25 = SHAPE_DEFINITION_REPRESENTATION(#26,#32);
#26 = PRODUCT_DEFINITION_SHAPE('','',#27);
#27 = PRODUCT_DEFINITION('design','',#28,#31);
#28 = PRODUCT_DEFINITION_FORMATION('','',#29);
#29 = PRODUCT('left_base_PCB','left_base_PCB','',(#30));
#30 = PRODUCT_CONTEXT('',#2,'mechanical');
#31 = PRODUCT_DEFINITION_CONTEXT('part definition',#2,'design');
#32 = ADVANCED_BREP_SHAPE_REPRESENTATION('',(#11,#33),#1310);
#33 = MANIFOLD_SOLID_BREP('',#34);
#34 = CLOSED_SHELL('',(#35,#77,#108,#141,#172,#205,#236,#269,#300,#333,
    #364,#397,#428,#461,#492,#525,#556,#589,#620,#653,#684,#717,#748,
    #781,#812,#845,#878,#909,#942,#973,#1006,#1037,#1070,#1101,#1134,
    #1165,#1198,#1220,#1265));
#35 = ADVANCED_FACE('',(#36),#72,.T.);
#36 = FACE_BOUND('',#37,.T.);
#37 = EDGE_LOOP('',(#38,#48,#57,#65));
#38 = ORIENTED_EDGE('',*,*,#39,.T.);
#39 = EDGE_CURVE('',#40,#42,#44,.T.);
#40 = VERTEX_POINT('',#41);
#41 = CARTESIAN_POINT('',(139.41533,-49.654666,0.));
#42 = VERTEX_POINT('',#43);
#43 = CARTESIAN_POINT('',(139.41533,-49.654666,1.51));
#44 = LINE('',#45,#46);
#45 = CARTESIAN_POINT('',(139.41533,-49.654666,0.));
#46 = VECTOR('',#47,1.);
#47 = DIRECTION('',(0.,0.,1.));
#48 = ORIENTED_EDGE('',*,*,#49,.T.);
#49 = EDGE_CURVE('',#42,#50,#52,.T.);
#50 = VERTEX_POINT('',#51);
#51 = CARTESIAN_POINT('',(140.41533,-50.654666,1.51));
#52 = CIRCLE('',#53,0.999999252925);
#53 = AXIS2_PLACEMENT_3D('',#54,#55,#56);
#54 = CARTESIAN_POINT('',(139.41533074707,-50.65466525292,1.51));
#55 = DIRECTION('',(0.,0.,-1.));
#56 = DIRECTION('',(-7.470757349539E-07,1.,0.));
#57 = ORIENTED_EDGE('',*,*,#58,.F.);
#58 = EDGE_CURVE('',#59,#50,#61,.T.);
#59 = VERTEX_POINT('',#60);
#60 = CARTESIAN_POINT('',(140.41533,-50.654666,0.));
#61 = LINE('',#62,#63);
#62 = CARTESIAN_POINT('',(140.41533,-50.654666,0.));
#63 = VECTOR('',#64,1.);
#64 = DIRECTION('',(0.,0.,1.));
#65 = ORIENTED_EDGE('',*,*,#66,.F.);
#66 = EDGE_CURVE('',#40,#59,#67,.T.);
#67 = CIRCLE('',#68,0.999999252925);
#68 = AXIS2_PLACEMENT_3D('',#69,#70,#71);
#69 = CARTESIAN_POINT('',(139.41533074707,-50.65466525292,0.));
#70 = DIRECTION('',(0.,0.,-1.));
#71 = DIRECTION('',(-7.470757349539E-07,1.,0.));
#72 = CYLINDRICAL_SURFACE('',#73,0.999999252925);
#73 = AXIS2_PLACEMENT_3D('',#74,#75,#76);
#74 = CARTESIAN_POINT('',(139.41533074707,-50.65466525292,0.));
#75 = DIRECTION('',(0.,0.,-1.));
#76 = DIRECTION('',(-7.470757349539E-07,1.,0.));
#77 = ADVANCED_FACE('',(#78),#103,.T.);
#78 = FACE_BOUND('',#79,.T.);
#79 = EDGE_LOOP('',(#80,#81,#89,#97));
#80 = ORIENTED_EDGE('',*,*,#58,.T.);
#81 = ORIENTED_EDGE('',*,*,#82,.T.);
#82 = EDGE_CURVE('',#50,#83,#85,.T.);
#83 = VERTEX_POINT('',#84);
#84 = CARTESIAN_POINT('',(140.41533,-53.454666,1.51));
#85 = LINE('',#86,#87);
#86 = CARTESIAN_POINT('',(140.41533,-50.654666,1.51));
#87 = VECTOR('',#88,1.);
#88 = DIRECTION('',(0.,-1.,0.));
#89 = ORIENTED_EDGE('',*,*,#90,.F.);
#90 = EDGE_CURVE('',#91,#83,#93,.T.);
#91 = VERTEX_POINT('',#92);
#92 = CARTESIAN_POINT('',(140.41533,-53.454666,0.));
#93 = LINE('',#94,#95);
#94 = CARTESIAN_POINT('',(140.41533,-53.454666,0.));
#95 = VECTOR('',#96,1.);
#96 = DIRECTION('',(0.,0.,1.));
#97 = ORIENTED_EDGE('',*,*,#98,.F.);
#98 = EDGE_CURVE('',#59,#91,#99,.T.);
#99 = LINE('',#100,#101);
#100 = CARTESIAN_POINT('',(140.41533,-50.654666,0.));
#101 = VECTOR('',#102,1.);
#102 = DIRECTION('',(0.,-1.,0.));
#103 = PLANE('',#104);
#104 = AXIS2_PLACEMENT_3D('',#105,#106,#107);
#105 = CARTESIAN_POINT('',(140.41533,-50.654666,0.));
#106 = DIRECTION('',(1.,0.,-0.));
#107 = DIRECTION('',(0.,-1.,0.));
#108 = ADVANCED_FACE('',(#109),#136,.F.);
#109 = FACE_BOUND('',#110,.T.);
#110 = EDGE_LOOP('',(#111,#112,#121,#129));
#111 = ORIENTED_EDGE('',*,*,#90,.T.);
#112 = ORIENTED_EDGE('',*,*,#113,.T.);
#113 = EDGE_CURVE('',#83,#114,#116,.T.);
#114 = VERTEX_POINT('',#115);
#115 = CARTESIAN_POINT('',(141.41533,-54.454666,1.51));
#116 = CIRCLE('',#117,0.999999252925);
#117 = AXIS2_PLACEMENT_3D('',#118,#119,#120);
#118 = CARTESIAN_POINT('',(141.41532925292,-53.45466674707,1.51));
#119 = DIRECTION('',(0.,0.,1.));
#120 = DIRECTION('',(-1.,7.470757420593E-07,0.));
#121 = ORIENTED_EDGE('',*,*,#122,.F.);
#122 = EDGE_CURVE('',#123,#114,#125,.T.);
#123 = VERTEX_POINT('',#124);
#124 = CARTESIAN_POINT('',(141.41533,-54.454666,0.));
#125 = LINE('',#126,#127);
#126 = CARTESIAN_POINT('',(141.41533,-54.454666,0.));
#127 = VECTOR('',#128,1.);
#128 = DIRECTION('',(0.,0.,1.));
#129 = ORIENTED_EDGE('',*,*,#130,.F.);
#130 = EDGE_CURVE('',#91,#123,#131,.T.);
#131 = CIRCLE('',#132,0.999999252925);
#132 = AXIS2_PLACEMENT_3D('',#133,#134,#135);
#133 = CARTESIAN_POINT('',(141.41532925292,-53.45466674707,0.));
#134 = DIRECTION('',(0.,0.,1.));
#135 = DIRECTION('',(-1.,7.470757420593E-07,0.));
#136 = CYLINDRICAL_SURFACE('',#137,0.999999252925);
#137 = AXIS2_PLACEMENT_3D('',#138,#139,#140);
#138 = CARTESIAN_POINT('',(141.41532925292,-53.45466674707,0.));
#139 = DIRECTION('',(-0.,-0.,-1.));
#140 = DIRECTION('',(-1.,7.470757420593E-07,0.));
#141 = ADVANCED_FACE('',(#142),#167,.T.);
#142 = FACE_BOUND('',#143,.T.);
#143 = EDGE_LOOP('',(#144,#145,#153,#161));
#144 = ORIENTED_EDGE('',*,*,#122,.T.);
#145 = ORIENTED_EDGE('',*,*,#146,.T.);
#146 = EDGE_CURVE('',#114,#147,#149,.T.);
#147 = VERTEX_POINT('',#148);
#148 = CARTESIAN_POINT('',(158.51533,-54.454666,1.51));
#149 = LINE('',#150,#151);
#150 = CARTESIAN_POINT('',(141.41533,-54.454666,1.51));
#151 = VECTOR('',#152,1.);
#152 = DIRECTION('',(1.,0.,0.));
#153 = ORIENTED_EDGE('',*,*,#154,.F.);
#154 = EDGE_CURVE('',#155,#147,#157,.T.);
#155 = VERTEX_POINT('',#156);
#156 = CARTESIAN_POINT('',(158.51533,-54.454666,0.));
#157 = LINE('',#158,#159);
#158 = CARTESIAN_POINT('',(158.51533,-54.454666,0.));
#159 = VECTOR('',#160,1.);
#160 = DIRECTION('',(0.,0.,1.));
#161 = ORIENTED_EDGE('',*,*,#162,.F.);
#162 = EDGE_CURVE('',#123,#155,#163,.T.);
#163 = LINE('',#164,#165);
#164 = CARTESIAN_POINT('',(141.41533,-54.454666,0.));
#165 = VECTOR('',#166,1.);
#166 = DIRECTION('',(1.,0.,0.));
#167 = PLANE('',#168);
#168 = AXIS2_PLACEMENT_3D('',#169,#170,#171);
#169 = CARTESIAN_POINT('',(141.41533,-54.454666,0.));
#170 = DIRECTION('',(0.,1.,0.));
#171 = DIRECTION('',(1.,0.,0.));
#172 = ADVANCED_FACE('',(#173),#200,.T.);
#173 = FACE_BOUND('',#174,.T.);
#174 = EDGE_LOOP('',(#175,#176,#185,#193));
#175 = ORIENTED_EDGE('',*,*,#154,.T.);
#176 = ORIENTED_EDGE('',*,*,#177,.T.);
#177 = EDGE_CURVE('',#147,#178,#180,.T.);
#178 = VERTEX_POINT('',#179);
#179 = CARTESIAN_POINT('',(159.51533,-55.454666,1.51));
#180 = CIRCLE('',#181,0.999999252925);
#181 = AXIS2_PLACEMENT_3D('',#182,#183,#184);
#182 = CARTESIAN_POINT('',(158.51533074707,-55.45466525292,1.51));
#183 = DIRECTION('',(0.,0.,-1.));
#184 = DIRECTION('',(-7.470757633756E-07,1.,0.));
#185 = ORIENTED_EDGE('',*,*,#186,.F.);
#186 = EDGE_CURVE('',#187,#178,#189,.T.);
#187 = VERTEX_POINT('',#188);
#188 = CARTESIAN_POINT('',(159.51533,-55.454666,0.));
#189 = LINE('',#190,#191);
#190 = CARTESIAN_POINT('',(159.51533,-55.454666,0.));
#191 = VECTOR('',#192,1.);
#192 = DIRECTION('',(0.,0.,1.));
#193 = ORIENTED_EDGE('',*,*,#194,.F.);
#194 = EDGE_CURVE('',#155,#187,#195,.T.);
#195 = CIRCLE('',#196,0.999999252925);
#196 = AXIS2_PLACEMENT_3D('',#197,#198,#199);
#197 = CARTESIAN_POINT('',(158.51533074707,-55.45466525292,0.));
#198 = DIRECTION('',(0.,0.,-1.));
#199 = DIRECTION('',(-7.470757633756E-07,1.,0.));
#200 = CYLINDRICAL_SURFACE('',#201,0.999999252925);
#201 = AXIS2_PLACEMENT_3D('',#202,#203,#204);
#202 = CARTESIAN_POINT('',(158.51533074707,-55.45466525292,0.));
#203 = DIRECTION('',(0.,0.,-1.));
#204 = DIRECTION('',(-7.470757633756E-07,1.,0.));
#205 = ADVANCED_FACE('',(#206),#231,.T.);
#206 = FACE_BOUND('',#207,.T.);
#207 = EDGE_LOOP('',(#208,#209,#217,#225));
#208 = ORIENTED_EDGE('',*,*,#186,.T.);
#209 = ORIENTED_EDGE('',*,*,#210,.T.);
#210 = EDGE_CURVE('',#178,#211,#213,.T.);
#211 = VERTEX_POINT('',#212);
#212 = CARTESIAN_POINT('',(159.51533,-56.254666,1.51));
#213 = LINE('',#214,#215);
#214 = CARTESIAN_POINT('',(159.51533,-55.454666,1.51));
#215 = VECTOR('',#216,1.);
#216 = DIRECTION('',(0.,-1.,0.));
#217 = ORIENTED_EDGE('',*,*,#218,.F.);
#218 = EDGE_CURVE('',#219,#211,#221,.T.);
#219 = VERTEX_POINT('',#220);
#220 = CARTESIAN_POINT('',(159.51533,-56.254666,0.));
#221 = LINE('',#222,#223);
#222 = CARTESIAN_POINT('',(159.51533,-56.254666,0.));
#223 = VECTOR('',#224,1.);
#224 = DIRECTION('',(0.,0.,1.));
#225 = ORIENTED_EDGE('',*,*,#226,.F.);
#226 = EDGE_CURVE('',#187,#219,#227,.T.);
#227 = LINE('',#228,#229);
#228 = CARTESIAN_POINT('',(159.51533,-55.454666,0.));
#229 = VECTOR('',#230,1.);
#230 = DIRECTION('',(0.,-1.,0.));
#231 = PLANE('',#232);
#232 = AXIS2_PLACEMENT_3D('',#233,#234,#235);
#233 = CARTESIAN_POINT('',(159.51533,-55.454666,0.));
#234 = DIRECTION('',(1.,0.,-0.));
#235 = DIRECTION('',(0.,-1.,0.));
#236 = ADVANCED_FACE('',(#237),#264,.F.);
#237 = FACE_BOUND('',#238,.T.);
#238 = EDGE_LOOP('',(#239,#240,#249,#257));
#239 = ORIENTED_EDGE('',*,*,#218,.T.);
#240 = ORIENTED_EDGE('',*,*,#241,.T.);
#241 = EDGE_CURVE('',#211,#242,#244,.T.);
#242 = VERTEX_POINT('',#243);
#243 = CARTESIAN_POINT('',(160.51533,-57.254666,1.51));
#244 = CIRCLE('',#245,0.999999252925);
#245 = AXIS2_PLACEMENT_3D('',#246,#247,#248);
#246 = CARTESIAN_POINT('',(160.51532925292,-56.25466674707,1.51));
#247 = DIRECTION('',(0.,0.,1.));
#248 = DIRECTION('',(-1.,7.470757562702E-07,0.));
#249 = ORIENTED_EDGE('',*,*,#250,.F.);
#250 = EDGE_CURVE('',#251,#242,#253,.T.);
#251 = VERTEX_POINT('',#252);
#252 = CARTESIAN_POINT('',(160.51533,-57.254666,0.));
#253 = LINE('',#254,#255);
#254 = CARTESIAN_POINT('',(160.51533,-57.254666,0.));
#255 = VECTOR('',#256,1.);
#256 = DIRECTION('',(0.,0.,1.));
#257 = ORIENTED_EDGE('',*,*,#258,.F.);
#258 = EDGE_CURVE('',#219,#251,#259,.T.);
#259 = CIRCLE('',#260,0.999999252925);
#260 = AXIS2_PLACEMENT_3D('',#261,#262,#263);
#261 = CARTESIAN_POINT('',(160.51532925292,-56.25466674707,0.));
#262 = DIRECTION('',(0.,0.,1.));
#263 = DIRECTION('',(-1.,7.470757562702E-07,0.));
#264 = CYLINDRICAL_SURFACE('',#265,0.999999252925);
#265 = AXIS2_PLACEMENT_3D('',#266,#267,#268);
#266 = CARTESIAN_POINT('',(160.51532925292,-56.25466674707,0.));
#267 = DIRECTION('',(-0.,-0.,-1.));
#268 = DIRECTION('',(-1.,7.470757562702E-07,0.));
#269 = ADVANCED_FACE('',(#270),#295,.T.);
#270 = FACE_BOUND('',#271,.T.);
#271 = EDGE_LOOP('',(#272,#273,#281,#289));
#272 = ORIENTED_EDGE('',*,*,#250,.T.);
#273 = ORIENTED_EDGE('',*,*,#274,.T.);
#274 = EDGE_CURVE('',#242,#275,#277,.T.);
#275 = VERTEX_POINT('',#276);
#276 = CARTESIAN_POINT('',(178.755635,-57.254666,1.51));
#277 = LINE('',#278,#279);
#278 = CARTESIAN_POINT('',(160.51533,-57.254666,1.51));
#279 = VECTOR('',#280,1.);
#280 = DIRECTION('',(1.,0.,0.));
#281 = ORIENTED_EDGE('',*,*,#282,.F.);
#282 = EDGE_CURVE('',#283,#275,#285,.T.);
#283 = VERTEX_POINT('',#284);
#284 = CARTESIAN_POINT('',(178.755635,-57.254666,0.));
#285 = LINE('',#286,#287);
#286 = CARTESIAN_POINT('',(178.755635,-57.254666,0.));
#287 = VECTOR('',#288,1.);
#288 = DIRECTION('',(0.,0.,1.));
#289 = ORIENTED_EDGE('',*,*,#290,.F.);
#290 = EDGE_CURVE('',#251,#283,#291,.T.);
#291 = LINE('',#292,#293);
#292 = CARTESIAN_POINT('',(160.51533,-57.254666,0.));
#293 = VECTOR('',#294,1.);
#294 = DIRECTION('',(1.,0.,0.));
#295 = PLANE('',#296);
#296 = AXIS2_PLACEMENT_3D('',#297,#298,#299);
#297 = CARTESIAN_POINT('',(160.51533,-57.254666,0.));
#298 = DIRECTION('',(0.,1.,0.));
#299 = DIRECTION('',(1.,0.,0.));
#300 = ADVANCED_FACE('',(#301),#328,.T.);
#301 = FACE_BOUND('',#302,.T.);
#302 = EDGE_LOOP('',(#303,#304,#313,#321));
#303 = ORIENTED_EDGE('',*,*,#282,.T.);
#304 = ORIENTED_EDGE('',*,*,#305,.T.);
#305 = EDGE_CURVE('',#275,#306,#308,.T.);
#306 = VERTEX_POINT('',#307);
#307 = CARTESIAN_POINT('',(179.463212,-57.548029,1.51));
#308 = CIRCLE('',#309,1.000008944217);
#309 = AXIS2_PLACEMENT_3D('',#310,#311,#312);
#310 = CARTESIAN_POINT('',(178.75563204123,-58.25467494421,1.51));
#311 = DIRECTION('',(0.,0.,-1.));
#312 = DIRECTION('',(2.958735731674E-06,0.999999999996,0.));
#313 = ORIENTED_EDGE('',*,*,#314,.F.);
#314 = EDGE_CURVE('',#315,#306,#317,.T.);
#315 = VERTEX_POINT('',#316);
#316 = CARTESIAN_POINT('',(179.463212,-57.548029,0.));
#317 = LINE('',#318,#319);
#318 = CARTESIAN_POINT('',(179.463212,-57.548029,0.));
#319 = VECTOR('',#320,1.);
#320 = DIRECTION('',(0.,0.,1.));
#321 = ORIENTED_EDGE('',*,*,#322,.F.);
#322 = EDGE_CURVE('',#283,#315,#323,.T.);
#323 = CIRCLE('',#324,1.000008944217);
#324 = AXIS2_PLACEMENT_3D('',#325,#326,#327);
#325 = CARTESIAN_POINT('',(178.75563204123,-58.25467494421,0.));
#326 = DIRECTION('',(0.,0.,-1.));
#327 = DIRECTION('',(2.958735731674E-06,0.999999999996,0.));
#328 = CYLINDRICAL_SURFACE('',#329,1.000008944217);
#329 = AXIS2_PLACEMENT_3D('',#330,#331,#332);
#330 = CARTESIAN_POINT('',(178.75563204123,-58.25467494421,0.));
#331 = DIRECTION('',(0.,0.,-1.));
#332 = DIRECTION('',(2.958735731674E-06,0.999999999996,0.));
#333 = ADVANCED_FACE('',(#334),#359,.T.);
#334 = FACE_BOUND('',#335,.T.);
#335 = EDGE_LOOP('',(#336,#337,#345,#353));
#336 = ORIENTED_EDGE('',*,*,#314,.T.);
#337 = ORIENTED_EDGE('',*,*,#338,.T.);
#338 = EDGE_CURVE('',#306,#339,#341,.T.);
#339 = VERTEX_POINT('',#340);
#340 = CARTESIAN_POINT('',(184.292246,-62.383489,1.51));
#341 = LINE('',#342,#343);
#342 = CARTESIAN_POINT('',(179.463212,-57.548029,1.51));
#343 = VECTOR('',#344,1.);
#344 = DIRECTION('',(0.706636463982,-0.707576785777,0.));
#345 = ORIENTED_EDGE('',*,*,#346,.F.);
#346 = EDGE_CURVE('',#347,#339,#349,.T.);
#347 = VERTEX_POINT('',#348);
#348 = CARTESIAN_POINT('',(184.292246,-62.383489,0.));
#349 = LINE('',#350,#351);
#350 = CARTESIAN_POINT('',(184.292246,-62.383489,0.));
#351 = VECTOR('',#352,1.);
#352 = DIRECTION('',(0.,0.,1.));
#353 = ORIENTED_EDGE('',*,*,#354,.F.);
#354 = EDGE_CURVE('',#315,#347,#355,.T.);
#355 = LINE('',#356,#357);
#356 = CARTESIAN_POINT('',(179.463212,-57.548029,0.));
#357 = VECTOR('',#358,1.);
#358 = DIRECTION('',(0.706636463982,-0.707576785777,0.));
#359 = PLANE('',#360);
#360 = AXIS2_PLACEMENT_3D('',#361,#362,#363);
#361 = CARTESIAN_POINT('',(179.463212,-57.548029,0.));
#362 = DIRECTION('',(0.707576785777,0.706636463982,-0.));
#363 = DIRECTION('',(0.706636463982,-0.707576785777,0.));
#364 = ADVANCED_FACE('',(#365),#392,.T.);
#365 = FACE_BOUND('',#366,.T.);
#366 = EDGE_LOOP('',(#367,#368,#377,#385));
#367 = ORIENTED_EDGE('',*,*,#346,.T.);
#368 = ORIENTED_EDGE('',*,*,#369,.T.);
#369 = EDGE_CURVE('',#339,#370,#372,.T.);
#370 = VERTEX_POINT('',#371);
#371 = CARTESIAN_POINT('',(184.58467,-63.089598,1.51));
#372 = CIRCLE('',#373,0.99984860078);
#373 = AXIS2_PLACEMENT_3D('',#374,#375,#376);
#374 = CARTESIAN_POINT('',(183.58482150767,-63.09006370386,1.51));
#375 = DIRECTION('',(0.,0.,-1.));
#376 = DIRECTION('',(0.707531612058,0.706681694923,0.));
#377 = ORIENTED_EDGE('',*,*,#378,.F.);
#378 = EDGE_CURVE('',#379,#370,#381,.T.);
#379 = VERTEX_POINT('',#380);
#380 = CARTESIAN_POINT('',(184.58467,-63.089598,0.));
#381 = LINE('',#382,#383);
#382 = CARTESIAN_POINT('',(184.58467,-63.089598,0.));
#383 = VECTOR('',#384,1.);
#384 = DIRECTION('',(0.,0.,1.));
#385 = ORIENTED_EDGE('',*,*,#386,.F.);
#386 = EDGE_CURVE('',#347,#379,#387,.T.);
#387 = CIRCLE('',#388,0.99984860078);
#388 = AXIS2_PLACEMENT_3D('',#389,#390,#391);
#389 = CARTESIAN_POINT('',(183.58482150767,-63.09006370386,0.));
#390 = DIRECTION('',(0.,0.,-1.));
#391 = DIRECTION('',(0.707531612058,0.706681694923,0.));
#392 = CYLINDRICAL_SURFACE('',#393,0.99984860078);
#393 = AXIS2_PLACEMENT_3D('',#394,#395,#396);
#394 = CARTESIAN_POINT('',(183.58482150767,-63.09006370386,0.));
#395 = DIRECTION('',(0.,0.,-1.));
#396 = DIRECTION('',(0.707531612058,0.706681694923,0.));
#397 = ADVANCED_FACE('',(#398),#423,.T.);
#398 = FACE_BOUND('',#399,.T.);
#399 = EDGE_LOOP('',(#400,#401,#409,#417));
#400 = ORIENTED_EDGE('',*,*,#378,.T.);
#401 = ORIENTED_EDGE('',*,*,#402,.T.);
#402 = EDGE_CURVE('',#370,#403,#405,.T.);
#403 = VERTEX_POINT('',#404);
#404 = CARTESIAN_POINT('',(184.61533,-121.310402,1.51));
#405 = LINE('',#406,#407);
#406 = CARTESIAN_POINT('',(184.58467,-63.089598,1.51));
#407 = VECTOR('',#408,1.);
#408 = DIRECTION('',(5.266158081333E-04,-0.999999861338,0.));
#409 = ORIENTED_EDGE('',*,*,#410,.F.);
#410 = EDGE_CURVE('',#411,#403,#413,.T.);
#411 = VERTEX_POINT('',#412);
#412 = CARTESIAN_POINT('',(184.61533,-121.310402,0.));
#413 = LINE('',#414,#415);
#414 = CARTESIAN_POINT('',(184.61533,-121.310402,0.));
#415 = VECTOR('',#416,1.);
#416 = DIRECTION('',(0.,0.,1.));
#417 = ORIENTED_EDGE('',*,*,#418,.F.);
#418 = EDGE_CURVE('',#379,#411,#419,.T.);
#419 = LINE('',#420,#421);
#420 = CARTESIAN_POINT('',(184.58467,-63.089598,0.));
#421 = VECTOR('',#422,1.);
#422 = DIRECTION('',(5.266158081333E-04,-0.999999861338,0.));
#423 = PLANE('',#424);
#424 = AXIS2_PLACEMENT_3D('',#425,#426,#427);
#425 = CARTESIAN_POINT('',(184.58467,-63.089598,0.));
#426 = DIRECTION('',(0.999999861338,5.266158081333E-04,-0.));
#427 = DIRECTION('',(5.266158081333E-04,-0.999999861338,0.));
#428 = ADVANCED_FACE('',(#429),#456,.F.);
#429 = FACE_BOUND('',#430,.T.);
#430 = EDGE_LOOP('',(#431,#432,#441,#449));
#431 = ORIENTED_EDGE('',*,*,#410,.T.);
#432 = ORIENTED_EDGE('',*,*,#433,.T.);
#433 = EDGE_CURVE('',#403,#434,#436,.T.);
#434 = VERTEX_POINT('',#435);
#435 = CARTESIAN_POINT('',(185.201978,-122.220974,1.51));
#436 = CIRCLE('',#437,1.000109647494);
#437 = AXIS2_PLACEMENT_3D('',#438,#439,#440);
#438 = CARTESIAN_POINT('',(185.61543964504,-121.3103320423,1.51));
#439 = DIRECTION('',(0.,0.,1.));
#440 = DIRECTION('',(-0.999999997553,-6.995000927309E-05,0.));
#441 = ORIENTED_EDGE('',*,*,#442,.F.);
#442 = EDGE_CURVE('',#443,#434,#445,.T.);
#443 = VERTEX_POINT('',#444);
#444 = CARTESIAN_POINT('',(185.201978,-122.220974,0.));
#445 = LINE('',#446,#447);
#446 = CARTESIAN_POINT('',(185.201978,-122.220974,0.));
#447 = VECTOR('',#448,1.);
#448 = DIRECTION('',(0.,0.,1.));
#449 = ORIENTED_EDGE('',*,*,#450,.F.);
#450 = EDGE_CURVE('',#411,#443,#451,.T.);
#451 = CIRCLE('',#452,1.000109647494);
#452 = AXIS2_PLACEMENT_3D('',#453,#454,#455);
#453 = CARTESIAN_POINT('',(185.61543964504,-121.3103320423,0.));
#454 = DIRECTION('',(0.,0.,1.));
#455 = DIRECTION('',(-0.999999997553,-6.995000927309E-05,0.));
#456 = CYLINDRICAL_SURFACE('',#457,1.000109647494);
#457 = AXIS2_PLACEMENT_3D('',#458,#459,#460);
#458 = CARTESIAN_POINT('',(185.61543964504,-121.3103320423,0.));
#459 = DIRECTION('',(-0.,-0.,-1.));
#460 = DIRECTION('',(-0.999999997553,-6.995000927309E-05,0.));
#461 = ADVANCED_FACE('',(#462),#487,.T.);
#462 = FACE_BOUND('',#463,.T.);
#463 = EDGE_LOOP('',(#464,#465,#473,#481));
#464 = ORIENTED_EDGE('',*,*,#442,.T.);
#465 = ORIENTED_EDGE('',*,*,#466,.T.);
#466 = EDGE_CURVE('',#434,#467,#469,.T.);
#467 = VERTEX_POINT('',#468);
#468 = CARTESIAN_POINT('',(198.897802,-128.438157,1.51));
#469 = LINE('',#470,#471);
#470 = CARTESIAN_POINT('',(185.201978,-122.220974,1.51));
#471 = VECTOR('',#472,1.);
#472 = DIRECTION('',(0.910571529769,-0.413351532202,0.));
#473 = ORIENTED_EDGE('',*,*,#474,.F.);
#474 = EDGE_CURVE('',#475,#467,#477,.T.);
#475 = VERTEX_POINT('',#476);
#476 = CARTESIAN_POINT('',(198.897802,-128.438157,0.));
#477 = LINE('',#478,#479);
#478 = CARTESIAN_POINT('',(198.897802,-128.438157,0.));
#479 = VECTOR('',#480,1.);
#480 = DIRECTION('',(0.,0.,1.));
#481 = ORIENTED_EDGE('',*,*,#482,.F.);
#482 = EDGE_CURVE('',#443,#475,#483,.T.);
#483 = LINE('',#484,#485);
#484 = CARTESIAN_POINT('',(185.201978,-122.220974,0.));
#485 = VECTOR('',#486,1.);
#486 = DIRECTION('',(0.910571529769,-0.413351532202,0.));
#487 = PLANE('',#488);
#488 = AXIS2_PLACEMENT_3D('',#489,#490,#491);
#489 = CARTESIAN_POINT('',(185.201978,-122.220974,0.));
#490 = DIRECTION('',(0.413351532202,0.910571529769,-0.));
#491 = DIRECTION('',(0.910571529769,-0.413351532202,0.));
#492 = ADVANCED_FACE('',(#493),#520,.T.);
#493 = FACE_BOUND('',#494,.T.);
#494 = EDGE_LOOP('',(#495,#496,#505,#513));
#495 = ORIENTED_EDGE('',*,*,#474,.T.);
#496 = ORIENTED_EDGE('',*,*,#497,.T.);
#497 = EDGE_CURVE('',#467,#498,#500,.T.);
#498 = VERTEX_POINT('',#499);
#499 = CARTESIAN_POINT('',(199.39185,-129.768997,1.51));
#500 = CIRCLE('',#501,0.99999793676);
#501 = AXIS2_PLACEMENT_3D('',#502,#503,#504);
#502 = CARTESIAN_POINT('',(198.48445298521,-129.3487274066,1.51));
#503 = DIRECTION('',(0.,0.,-1.));
#504 = DIRECTION('',(0.413349867627,0.910572285397,0.));
#505 = ORIENTED_EDGE('',*,*,#506,.F.);
#506 = EDGE_CURVE('',#507,#498,#509,.T.);
#507 = VERTEX_POINT('',#508);
#508 = CARTESIAN_POINT('',(199.39185,-129.768997,0.));
#509 = LINE('',#510,#511);
#510 = CARTESIAN_POINT('',(199.39185,-129.768997,0.));
#511 = VECTOR('',#512,1.);
#512 = DIRECTION('',(0.,0.,1.));
#513 = ORIENTED_EDGE('',*,*,#514,.F.);
#514 = EDGE_CURVE('',#475,#507,#515,.T.);
#515 = CIRCLE('',#516,0.99999793676);
#516 = AXIS2_PLACEMENT_3D('',#517,#518,#519);
#517 = CARTESIAN_POINT('',(198.48445298521,-129.3487274066,0.));
#518 = DIRECTION('',(0.,0.,-1.));
#519 = DIRECTION('',(0.413349867627,0.910572285397,0.));
#520 = CYLINDRICAL_SURFACE('',#521,0.99999793676);
#521 = AXIS2_PLACEMENT_3D('',#522,#523,#524);
#522 = CARTESIAN_POINT('',(198.48445298521,-129.3487274066,0.));
#523 = DIRECTION('',(0.,0.,-1.));
#524 = DIRECTION('',(0.413349867627,0.910572285397,0.));
#525 = ADVANCED_FACE('',(#526),#551,.T.);
#526 = FACE_BOUND('',#527,.T.);
#527 = EDGE_LOOP('',(#528,#529,#537,#545));
#528 = ORIENTED_EDGE('',*,*,#506,.T.);
#529 = ORIENTED_EDGE('',*,*,#530,.T.);
#530 = EDGE_CURVE('',#498,#531,#533,.T.);
#531 = VERTEX_POINT('',#532);
#532 = CARTESIAN_POINT('',(191.444633,-146.927761,1.51));
#533 = LINE('',#534,#535);
#534 = CARTESIAN_POINT('',(199.39185,-129.768997,1.51));
#535 = VECTOR('',#536,1.);
#536 = DIRECTION('',(-0.420269223058,-0.907399460078,0.));
#537 = ORIENTED_EDGE('',*,*,#538,.F.);
#538 = EDGE_CURVE('',#539,#531,#541,.T.);
#539 = VERTEX_POINT('',#540);
#540 = CARTESIAN_POINT('',(191.444633,-146.927761,0.));
#541 = LINE('',#542,#543);
#542 = CARTESIAN_POINT('',(191.444633,-146.927761,0.));
#543 = VECTOR('',#544,1.);
#544 = DIRECTION('',(0.,0.,1.));
#545 = ORIENTED_EDGE('',*,*,#546,.F.);
#546 = EDGE_CURVE('',#507,#539,#547,.T.);
#547 = LINE('',#548,#549);
#548 = CARTESIAN_POINT('',(199.39185,-129.768997,0.));
#549 = VECTOR('',#550,1.);
#550 = DIRECTION('',(-0.420269223058,-0.907399460078,0.));
#551 = PLANE('',#552);
#552 = AXIS2_PLACEMENT_3D('',#553,#554,#555);
#553 = CARTESIAN_POINT('',(199.39185,-129.768997,0.));
#554 = DIRECTION('',(0.907399460078,-0.420269223058,0.));
#555 = DIRECTION('',(-0.420269223058,-0.907399460078,0.));
#556 = ADVANCED_FACE('',(#557),#584,.T.);
#557 = FACE_BOUND('',#558,.T.);
#558 = EDGE_LOOP('',(#559,#560,#569,#577));
#559 = ORIENTED_EDGE('',*,*,#538,.T.);
#560 = ORIENTED_EDGE('',*,*,#561,.T.);
#561 = EDGE_CURVE('',#531,#562,#564,.T.);
#562 = VERTEX_POINT('',#563);
#563 = CARTESIAN_POINT('',(190.097764,-147.405749,1.51));
#564 = CIRCLE('',#565,1.000010808796);
#565 = AXIS2_PLACEMENT_3D('',#566,#567,#568);
#566 = CARTESIAN_POINT('',(190.53722847418,-146.5074769957,1.51));
#567 = DIRECTION('',(-0.,0.,-1.));
#568 = DIRECTION('',(0.907394717972,-0.420279461546,-0.));
#569 = ORIENTED_EDGE('',*,*,#570,.F.);
#570 = EDGE_CURVE('',#571,#562,#573,.T.);
#571 = VERTEX_POINT('',#572);
#572 = CARTESIAN_POINT('',(190.097764,-147.405749,0.));
#573 = LINE('',#574,#575);
#574 = CARTESIAN_POINT('',(190.097764,-147.405749,0.));
#575 = VECTOR('',#576,1.);
#576 = DIRECTION('',(0.,0.,1.));
#577 = ORIENTED_EDGE('',*,*,#578,.F.);
#578 = EDGE_CURVE('',#539,#571,#579,.T.);
#579 = CIRCLE('',#580,1.000010808796);
#580 = AXIS2_PLACEMENT_3D('',#581,#582,#583);
#581 = CARTESIAN_POINT('',(190.53722847418,-146.5074769957,0.));
#582 = DIRECTION('',(-0.,0.,-1.));
#583 = DIRECTION('',(0.907394717972,-0.420279461546,-0.));
#584 = CYLINDRICAL_SURFACE('',#585,1.000010808796);
#585 = AXIS2_PLACEMENT_3D('',#586,#587,#588);
#586 = CARTESIAN_POINT('',(190.53722847418,-146.5074769957,0.));
#587 = DIRECTION('',(-0.,0.,-1.));
#588 = DIRECTION('',(0.907394717972,-0.420279461546,-0.));
#589 = ADVANCED_FACE('',(#590),#615,.T.);
#590 = FACE_BOUND('',#591,.T.);
#591 = EDGE_LOOP('',(#592,#593,#601,#609));
#592 = ORIENTED_EDGE('',*,*,#570,.T.);
#593 = ORIENTED_EDGE('',*,*,#594,.T.);
#594 = EDGE_CURVE('',#562,#595,#597,.T.);
#595 = VERTEX_POINT('',#596);
#596 = CARTESIAN_POINT('',(172.540549,-138.815929,1.51));
#597 = LINE('',#598,#599);
#598 = CARTESIAN_POINT('',(190.097764,-147.405749,1.51));
#599 = VECTOR('',#600,1.);
#600 = DIRECTION('',(-0.898257290978,0.439469952563,0.));
#601 = ORIENTED_EDGE('',*,*,#602,.F.);
#602 = EDGE_CURVE('',#603,#595,#605,.T.);
#603 = VERTEX_POINT('',#604);
#604 = CARTESIAN_POINT('',(172.540549,-138.815929,0.));
#605 = LINE('',#606,#607);
#606 = CARTESIAN_POINT('',(172.540549,-138.815929,0.));
#607 = VECTOR('',#608,1.);
#608 = DIRECTION('',(0.,0.,1.));
#609 = ORIENTED_EDGE('',*,*,#610,.F.);
#610 = EDGE_CURVE('',#571,#603,#611,.T.);
#611 = LINE('',#612,#613);
#612 = CARTESIAN_POINT('',(190.097764,-147.405749,0.));
#613 = VECTOR('',#614,1.);
#614 = DIRECTION('',(-0.898257290978,0.439469952563,0.));
#615 = PLANE('',#616);
#616 = AXIS2_PLACEMENT_3D('',#617,#618,#619);
#617 = CARTESIAN_POINT('',(190.097764,-147.405749,0.));
#618 = DIRECTION('',(-0.439469952563,-0.898257290978,0.));
#619 = DIRECTION('',(-0.898257290978,0.439469952563,0.));
#620 = ADVANCED_FACE('',(#621),#648,.F.);
#621 = FACE_BOUND('',#622,.T.);
#622 = EDGE_LOOP('',(#623,#624,#633,#641));
#623 = ORIENTED_EDGE('',*,*,#602,.T.);
#624 = ORIENTED_EDGE('',*,*,#625,.T.);
#625 = EDGE_CURVE('',#595,#626,#628,.T.);
#626 = VERTEX_POINT('',#627);
#627 = CARTESIAN_POINT('',(172.278131,-138.729985,1.51));
#628 = CIRCLE('',#629,0.999179570953);
#629 = AXIS2_PLACEMENT_3D('',#630,#631,#632);
#630 = CARTESIAN_POINT('',(172.10133756766,-139.7133994077,1.51));
#631 = DIRECTION('',(0.,0.,1.));
#632 = DIRECTION('',(0.439572070029,0.898207323089,-0.));
#633 = ORIENTED_EDGE('',*,*,#634,.F.);
#634 = EDGE_CURVE('',#635,#626,#637,.T.);
#635 = VERTEX_POINT('',#636);
#636 = CARTESIAN_POINT('',(172.278131,-138.729985,0.));
#637 = LINE('',#638,#639);
#638 = CARTESIAN_POINT('',(172.278131,-138.729985,0.));
#639 = VECTOR('',#640,1.);
#640 = DIRECTION('',(0.,0.,1.));
#641 = ORIENTED_EDGE('',*,*,#642,.F.);
#642 = EDGE_CURVE('',#603,#635,#643,.T.);
#643 = CIRCLE('',#644,0.999179570953);
#644 = AXIS2_PLACEMENT_3D('',#645,#646,#647);
#645 = CARTESIAN_POINT('',(172.10133756766,-139.7133994077,0.));
#646 = DIRECTION('',(0.,0.,1.));
#647 = DIRECTION('',(0.439572070029,0.898207323089,-0.));
#648 = CYLINDRICAL_SURFACE('',#649,0.999179570953);
#649 = AXIS2_PLACEMENT_3D('',#650,#651,#652);
#650 = CARTESIAN_POINT('',(172.10133756766,-139.7133994077,0.));
#651 = DIRECTION('',(-0.,-0.,-1.));
#652 = DIRECTION('',(0.439572070029,0.898207323089,-0.));
#653 = ADVANCED_FACE('',(#654),#679,.T.);
#654 = FACE_BOUND('',#655,.T.);
#655 = EDGE_LOOP('',(#656,#657,#665,#673));
#656 = ORIENTED_EDGE('',*,*,#634,.T.);
#657 = ORIENTED_EDGE('',*,*,#658,.T.);
#658 = EDGE_CURVE('',#626,#659,#661,.T.);
#659 = VERTEX_POINT('',#660);
#660 = CARTESIAN_POINT('',(153.962179,-135.435052,1.51));
#661 = LINE('',#662,#663);
#662 = CARTESIAN_POINT('',(172.278131,-138.729985,1.51));
#663 = VECTOR('',#664,1.);
#664 = DIRECTION('',(-0.984201478703,0.177052109048,0.));
#665 = ORIENTED_EDGE('',*,*,#666,.F.);
#666 = EDGE_CURVE('',#667,#659,#669,.T.);
#667 = VERTEX_POINT('',#668);
#668 = CARTESIAN_POINT('',(153.962179,-135.435052,0.));
#669 = LINE('',#670,#671);
#670 = CARTESIAN_POINT('',(153.962179,-135.435052,0.));
#671 = VECTOR('',#672,1.);
#672 = DIRECTION('',(0.,0.,1.));
#673 = ORIENTED_EDGE('',*,*,#674,.F.);
#674 = EDGE_CURVE('',#635,#667,#675,.T.);
#675 = LINE('',#676,#677);
#676 = CARTESIAN_POINT('',(172.278131,-138.729985,0.));
#677 = VECTOR('',#678,1.);
#678 = DIRECTION('',(-0.984201478703,0.177052109048,0.));
#679 = PLANE('',#680);
#680 = AXIS2_PLACEMENT_3D('',#681,#682,#683);
#681 = CARTESIAN_POINT('',(172.278131,-138.729985,0.));
#682 = DIRECTION('',(-0.177052109048,-0.984201478703,0.));
#683 = DIRECTION('',(-0.984201478703,0.177052109048,0.));
#684 = ADVANCED_FACE('',(#685),#712,.T.);
#685 = FACE_BOUND('',#686,.T.);
#686 = EDGE_LOOP('',(#687,#688,#697,#705));
#687 = ORIENTED_EDGE('',*,*,#666,.T.);
#688 = ORIENTED_EDGE('',*,*,#689,.T.);
#689 = EDGE_CURVE('',#659,#690,#692,.T.);
#690 = VERTEX_POINT('',#691);
#691 = CARTESIAN_POINT('',(153.281738,-134.965346,1.51));
#692 = CIRCLE('',#693,1.000007456938);
#693 = AXIS2_PLACEMENT_3D('',#694,#695,#696);
#694 = CARTESIAN_POINT('',(154.13923574204,-134.4508437781,1.51));
#695 = DIRECTION('',(0.,0.,-1.));
#696 = DIRECTION('',(-0.177055421749,-0.984200882762,-0.));
#697 = ORIENTED_EDGE('',*,*,#698,.F.);
#698 = EDGE_CURVE('',#699,#690,#701,.T.);
#699 = VERTEX_POINT('',#700);
#700 = CARTESIAN_POINT('',(153.281738,-134.965346,0.));
#701 = LINE('',#702,#703);
#702 = CARTESIAN_POINT('',(153.281738,-134.965346,0.));
#703 = VECTOR('',#704,1.);
#704 = DIRECTION('',(0.,0.,1.));
#705 = ORIENTED_EDGE('',*,*,#706,.F.);
#706 = EDGE_CURVE('',#667,#699,#707,.T.);
#707 = CIRCLE('',#708,1.000007456938);
#708 = AXIS2_PLACEMENT_3D('',#709,#710,#711);
#709 = CARTESIAN_POINT('',(154.13923574204,-134.4508437781,0.));
#710 = DIRECTION('',(0.,0.,-1.));
#711 = DIRECTION('',(-0.177055421749,-0.984200882762,-0.));
#712 = CYLINDRICAL_SURFACE('',#713,1.000007456938);
#713 = AXIS2_PLACEMENT_3D('',#714,#715,#716);
#714 = CARTESIAN_POINT('',(154.13923574204,-134.4508437781,0.));
#715 = DIRECTION('',(0.,0.,-1.));
#716 = DIRECTION('',(-0.177055421749,-0.984200882762,-0.));
#717 = ADVANCED_FACE('',(#718),#743,.T.);
#718 = FACE_BOUND('',#719,.T.);
#719 = EDGE_LOOP('',(#720,#721,#729,#737));
#720 = ORIENTED_EDGE('',*,*,#698,.T.);
#721 = ORIENTED_EDGE('',*,*,#722,.T.);
#722 = EDGE_CURVE('',#690,#723,#725,.T.);
#723 = VERTEX_POINT('',#724);
#724 = CARTESIAN_POINT('',(147.206633,-124.84017,1.51));
#725 = LINE('',#726,#727);
#726 = CARTESIAN_POINT('',(153.281738,-134.965346,1.51));
#727 = VECTOR('',#728,1.);
#728 = DIRECTION('',(-0.514495718065,0.85749294813,0.));
#729 = ORIENTED_EDGE('',*,*,#730,.F.);
#730 = EDGE_CURVE('',#731,#723,#733,.T.);
#731 = VERTEX_POINT('',#732);
#732 = CARTESIAN_POINT('',(147.206633,-124.84017,0.));
#733 = LINE('',#734,#735);
#734 = CARTESIAN_POINT('',(147.206633,-124.84017,0.));
#735 = VECTOR('',#736,1.);
#736 = DIRECTION('',(0.,0.,1.));
#737 = ORIENTED_EDGE('',*,*,#738,.F.);
#738 = EDGE_CURVE('',#699,#731,#739,.T.);
#739 = LINE('',#740,#741);
#740 = CARTESIAN_POINT('',(153.281738,-134.965346,0.));
#741 = VECTOR('',#742,1.);
#742 = DIRECTION('',(-0.514495718065,0.85749294813,0.));
#743 = PLANE('',#744);
#744 = AXIS2_PLACEMENT_3D('',#745,#746,#747);
#745 = CARTESIAN_POINT('',(153.281738,-134.965346,0.));
#746 = DIRECTION('',(-0.85749294813,-0.514495718065,0.));
#747 = DIRECTION('',(-0.514495718065,0.85749294813,0.));
#748 = ADVANCED_FACE('',(#749),#776,.F.);
#749 = FACE_BOUND('',#750,.T.);
#750 = EDGE_LOOP('',(#751,#752,#761,#769));
#751 = ORIENTED_EDGE('',*,*,#730,.T.);
#752 = ORIENTED_EDGE('',*,*,#753,.T.);
#753 = EDGE_CURVE('',#723,#754,#756,.T.);
#754 = VERTEX_POINT('',#755);
#755 = CARTESIAN_POINT('',(146.34914,-124.354666,1.51));
#756 = CIRCLE('',#757,0.999999574965);
#757 = AXIS2_PLACEMENT_3D('',#758,#759,#760);
#758 = CARTESIAN_POINT('',(146.34914046168,-125.3546655749,1.51));
#759 = DIRECTION('',(0.,0.,1.));
#760 = DIRECTION('',(0.857492902783,0.514495793644,-0.));
#761 = ORIENTED_EDGE('',*,*,#762,.F.);
#762 = EDGE_CURVE('',#763,#754,#765,.T.);
#763 = VERTEX_POINT('',#764);
#764 = CARTESIAN_POINT('',(146.34914,-124.354666,0.));
#765 = LINE('',#766,#767);
#766 = CARTESIAN_POINT('',(146.34914,-124.354666,0.));
#767 = VECTOR('',#768,1.);
#768 = DIRECTION('',(0.,0.,1.));
#769 = ORIENTED_EDGE('',*,*,#770,.F.);
#770 = EDGE_CURVE('',#731,#763,#771,.T.);
#771 = CIRCLE('',#772,0.999999574965);
#772 = AXIS2_PLACEMENT_3D('',#773,#774,#775);
#773 = CARTESIAN_POINT('',(146.34914046168,-125.3546655749,0.));
#774 = DIRECTION('',(0.,0.,1.));
#775 = DIRECTION('',(0.857492902783,0.514495793644,-0.));
#776 = CYLINDRICAL_SURFACE('',#777,0.999999574965);
#777 = AXIS2_PLACEMENT_3D('',#778,#779,#780);
#778 = CARTESIAN_POINT('',(146.34914046168,-125.3546655749,0.));
#779 = DIRECTION('',(-0.,-0.,-1.));
#780 = DIRECTION('',(0.857492902783,0.514495793644,-0.));
#781 = ADVANCED_FACE('',(#782),#807,.T.);
#782 = FACE_BOUND('',#783,.T.);
#783 = EDGE_LOOP('',(#784,#785,#793,#801));
#784 = ORIENTED_EDGE('',*,*,#762,.T.);
#785 = ORIENTED_EDGE('',*,*,#786,.T.);
#786 = EDGE_CURVE('',#754,#787,#789,.T.);
#787 = VERTEX_POINT('',#788);
#788 = CARTESIAN_POINT('',(103.41533,-124.354666,1.51));
#789 = LINE('',#790,#791);
#790 = CARTESIAN_POINT('',(146.34914,-124.354666,1.51));
#791 = VECTOR('',#792,1.);
#792 = DIRECTION('',(-1.,0.,0.));
#793 = ORIENTED_EDGE('',*,*,#794,.F.);
#794 = EDGE_CURVE('',#795,#787,#797,.T.);
#795 = VERTEX_POINT('',#796);
#796 = CARTESIAN_POINT('',(103.41533,-124.354666,0.));
#797 = LINE('',#798,#799);
#798 = CARTESIAN_POINT('',(103.41533,-124.354666,0.));
#799 = VECTOR('',#800,1.);
#800 = DIRECTION('',(0.,0.,1.));
#801 = ORIENTED_EDGE('',*,*,#802,.F.);
#802 = EDGE_CURVE('',#763,#795,#803,.T.);
#803 = LINE('',#804,#805);
#804 = CARTESIAN_POINT('',(146.34914,-124.354666,0.));
#805 = VECTOR('',#806,1.);
#806 = DIRECTION('',(-1.,0.,0.));
#807 = PLANE('',#808);
#808 = AXIS2_PLACEMENT_3D('',#809,#810,#811);
#809 = CARTESIAN_POINT('',(146.34914,-124.354666,0.));
#810 = DIRECTION('',(0.,-1.,0.));
#811 = DIRECTION('',(-1.,0.,0.));
#812 = ADVANCED_FACE('',(#813),#840,.F.);
#813 = FACE_BOUND('',#814,.T.);
#814 = EDGE_LOOP('',(#815,#816,#825,#833));
#815 = ORIENTED_EDGE('',*,*,#794,.T.);
#816 = ORIENTED_EDGE('',*,*,#817,.T.);
#817 = EDGE_CURVE('',#787,#818,#820,.T.);
#818 = VERTEX_POINT('',#819);
#819 = CARTESIAN_POINT('',(102.41533,-125.354666,1.51));
#820 = CIRCLE('',#821,0.999999252925);
#821 = AXIS2_PLACEMENT_3D('',#822,#823,#824);
#822 = CARTESIAN_POINT('',(103.41532925292,-125.3546652529,1.51));
#823 = DIRECTION('',(0.,0.,1.));
#824 = DIRECTION('',(7.470757065321E-07,1.,-0.));
#825 = ORIENTED_EDGE('',*,*,#826,.F.);
#826 = EDGE_CURVE('',#827,#818,#829,.T.);
#827 = VERTEX_POINT('',#828);
#828 = CARTESIAN_POINT('',(102.41533,-125.354666,0.));
#829 = LINE('',#830,#831);
#830 = CARTESIAN_POINT('',(102.41533,-125.354666,0.));
#831 = VECTOR('',#832,1.);
#832 = DIRECTION('',(0.,0.,1.));
#833 = ORIENTED_EDGE('',*,*,#834,.F.);
#834 = EDGE_CURVE('',#795,#827,#835,.T.);
#835 = CIRCLE('',#836,0.999999252925);
#836 = AXIS2_PLACEMENT_3D('',#837,#838,#839);
#837 = CARTESIAN_POINT('',(103.41532925292,-125.3546652529,0.));
#838 = DIRECTION('',(0.,0.,1.));
#839 = DIRECTION('',(7.470757065321E-07,1.,-0.));
#840 = CYLINDRICAL_SURFACE('',#841,0.999999252925);
#841 = AXIS2_PLACEMENT_3D('',#842,#843,#844);
#842 = CARTESIAN_POINT('',(103.41532925292,-125.3546652529,0.));
#843 = DIRECTION('',(-0.,-0.,-1.));
#844 = DIRECTION('',(7.470757065321E-07,1.,-0.));
#845 = ADVANCED_FACE('',(#846),#873,.T.);
#846 = FACE_BOUND('',#847,.T.);
#847 = EDGE_LOOP('',(#848,#849,#858,#866));
#848 = ORIENTED_EDGE('',*,*,#826,.T.);
#849 = ORIENTED_EDGE('',*,*,#850,.T.);
#850 = EDGE_CURVE('',#818,#851,#853,.T.);
#851 = VERTEX_POINT('',#852);
#852 = CARTESIAN_POINT('',(102.11533,-125.654666,1.51));
#853 = CIRCLE('',#854,0.300000117299);
#854 = AXIS2_PLACEMENT_3D('',#855,#856,#857);
#855 = CARTESIAN_POINT('',(102.1153298827,-125.3546658827,1.51));
#856 = DIRECTION('',(0.,0.,-1.));
#857 = DIRECTION('',(1.,-3.90995314237E-07,0.));
#858 = ORIENTED_EDGE('',*,*,#859,.F.);
#859 = EDGE_CURVE('',#860,#851,#862,.T.);
#860 = VERTEX_POINT('',#861);
#861 = CARTESIAN_POINT('',(102.11533,-125.654666,0.));
#862 = LINE('',#863,#864);
#863 = CARTESIAN_POINT('',(102.11533,-125.654666,0.));
#864 = VECTOR('',#865,1.);
#865 = DIRECTION('',(0.,0.,1.));
#866 = ORIENTED_EDGE('',*,*,#867,.F.);
#867 = EDGE_CURVE('',#827,#860,#868,.T.);
#868 = CIRCLE('',#869,0.300000117299);
#869 = AXIS2_PLACEMENT_3D('',#870,#871,#872);
#870 = CARTESIAN_POINT('',(102.1153298827,-125.3546658827,0.));
#871 = DIRECTION('',(0.,0.,-1.));
#872 = DIRECTION('',(1.,-3.90995314237E-07,0.));
#873 = CYLINDRICAL_SURFACE('',#874,0.300000117299);
#874 = AXIS2_PLACEMENT_3D('',#875,#876,#877);
#875 = CARTESIAN_POINT('',(102.1153298827,-125.3546658827,0.));
#876 = DIRECTION('',(0.,0.,-1.));
#877 = DIRECTION('',(1.,-3.90995314237E-07,0.));
#878 = ADVANCED_FACE('',(#879),#904,.T.);
#879 = FACE_BOUND('',#880,.T.);
#880 = EDGE_LOOP('',(#881,#882,#890,#898));
#881 = ORIENTED_EDGE('',*,*,#859,.T.);
#882 = ORIENTED_EDGE('',*,*,#883,.T.);
#883 = EDGE_CURVE('',#851,#884,#886,.T.);
#884 = VERTEX_POINT('',#885);
#885 = CARTESIAN_POINT('',(82.91533,-125.654666,1.51));
#886 = LINE('',#887,#888);
#887 = CARTESIAN_POINT('',(102.11533,-125.654666,1.51));
#888 = VECTOR('',#889,1.);
#889 = DIRECTION('',(-1.,0.,0.));
#890 = ORIENTED_EDGE('',*,*,#891,.F.);
#891 = EDGE_CURVE('',#892,#884,#894,.T.);
#892 = VERTEX_POINT('',#893);
#893 = CARTESIAN_POINT('',(82.91533,-125.654666,0.));
#894 = LINE('',#895,#896);
#895 = CARTESIAN_POINT('',(82.91533,-125.654666,0.));
#896 = VECTOR('',#897,1.);
#897 = DIRECTION('',(0.,0.,1.));
#898 = ORIENTED_EDGE('',*,*,#899,.F.);
#899 = EDGE_CURVE('',#860,#892,#900,.T.);
#900 = LINE('',#901,#902);
#901 = CARTESIAN_POINT('',(102.11533,-125.654666,0.));
#902 = VECTOR('',#903,1.);
#903 = DIRECTION('',(-1.,0.,0.));
#904 = PLANE('',#905);
#905 = AXIS2_PLACEMENT_3D('',#906,#907,#908);
#906 = CARTESIAN_POINT('',(102.11533,-125.654666,0.));
#907 = DIRECTION('',(0.,-1.,0.));
#908 = DIRECTION('',(-1.,0.,0.));
#909 = ADVANCED_FACE('',(#910),#937,.T.);
#910 = FACE_BOUND('',#911,.T.);
#911 = EDGE_LOOP('',(#912,#913,#922,#930));
#912 = ORIENTED_EDGE('',*,*,#891,.T.);
#913 = ORIENTED_EDGE('',*,*,#914,.T.);
#914 = EDGE_CURVE('',#884,#915,#917,.T.);
#915 = VERTEX_POINT('',#916);
#916 = CARTESIAN_POINT('',(81.91533,-124.654666,1.51));
#917 = CIRCLE('',#918,0.999999252925);
#918 = AXIS2_PLACEMENT_3D('',#919,#920,#921);
#919 = CARTESIAN_POINT('',(82.915329252925,-124.654666747,1.51));
#920 = DIRECTION('',(0.,0.,-1.));
#921 = DIRECTION('',(7.470757065321E-07,-1.,0.));
#922 = ORIENTED_EDGE('',*,*,#923,.F.);
#923 = EDGE_CURVE('',#924,#915,#926,.T.);
#924 = VERTEX_POINT('',#925);
#925 = CARTESIAN_POINT('',(81.91533,-124.654666,0.));
#926 = LINE('',#927,#928);
#927 = CARTESIAN_POINT('',(81.91533,-124.654666,0.));
#928 = VECTOR('',#929,1.);
#929 = DIRECTION('',(0.,0.,1.));
#930 = ORIENTED_EDGE('',*,*,#931,.F.);
#931 = EDGE_CURVE('',#892,#924,#932,.T.);
#932 = CIRCLE('',#933,0.999999252925);
#933 = AXIS2_PLACEMENT_3D('',#934,#935,#936);
#934 = CARTESIAN_POINT('',(82.915329252925,-124.654666747,0.));
#935 = DIRECTION('',(0.,0.,-1.));
#936 = DIRECTION('',(7.470757065321E-07,-1.,0.));
#937 = CYLINDRICAL_SURFACE('',#938,0.999999252925);
#938 = AXIS2_PLACEMENT_3D('',#939,#940,#941);
#939 = CARTESIAN_POINT('',(82.915329252925,-124.654666747,0.));
#940 = DIRECTION('',(0.,0.,-1.));
#941 = DIRECTION('',(7.470757065321E-07,-1.,0.));
#942 = ADVANCED_FACE('',(#943),#968,.T.);
#943 = FACE_BOUND('',#944,.T.);
#944 = EDGE_LOOP('',(#945,#946,#954,#962));
#945 = ORIENTED_EDGE('',*,*,#923,.T.);
#946 = ORIENTED_EDGE('',*,*,#947,.T.);
#947 = EDGE_CURVE('',#915,#948,#950,.T.);
#948 = VERTEX_POINT('',#949);
#949 = CARTESIAN_POINT('',(81.941175,-65.49719,1.51));
#950 = LINE('',#951,#952);
#951 = CARTESIAN_POINT('',(81.91533,-124.654666,1.51));
#952 = VECTOR('',#953,1.);
#953 = DIRECTION('',(4.368847233021E-04,0.999999904566,0.));
#954 = ORIENTED_EDGE('',*,*,#955,.F.);
#955 = EDGE_CURVE('',#956,#948,#958,.T.);
#956 = VERTEX_POINT('',#957);
#957 = CARTESIAN_POINT('',(81.941175,-65.49719,0.));
#958 = LINE('',#959,#960);
#959 = CARTESIAN_POINT('',(81.941175,-65.49719,0.));
#960 = VECTOR('',#961,1.);
#961 = DIRECTION('',(0.,0.,1.));
#962 = ORIENTED_EDGE('',*,*,#963,.F.);
#963 = EDGE_CURVE('',#924,#956,#964,.T.);
#964 = LINE('',#965,#966);
#965 = CARTESIAN_POINT('',(81.91533,-124.654666,0.));
#966 = VECTOR('',#967,1.);
#967 = DIRECTION('',(4.368847233021E-04,0.999999904566,0.));
#968 = PLANE('',#969);
#969 = AXIS2_PLACEMENT_3D('',#970,#971,#972);
#970 = CARTESIAN_POINT('',(81.91533,-124.654666,0.));
#971 = DIRECTION('',(-0.999999904566,4.368847233021E-04,0.));
#972 = DIRECTION('',(4.368847233021E-04,0.999999904566,0.));
#973 = ADVANCED_FACE('',(#974),#1001,.T.);
#974 = FACE_BOUND('',#975,.T.);
#975 = EDGE_LOOP('',(#976,#977,#986,#994));
#976 = ORIENTED_EDGE('',*,*,#955,.T.);
#977 = ORIENTED_EDGE('',*,*,#978,.T.);
#978 = EDGE_CURVE('',#948,#979,#981,.T.);
#979 = VERTEX_POINT('',#980);
#980 = CARTESIAN_POINT('',(82.391559,-64.661773,1.51));
#981 = CIRCLE('',#982,1.000030012982);
#982 = AXIS2_PLACEMENT_3D('',#983,#984,#985);
#983 = CARTESIAN_POINT('',(82.941205012844,-65.49720659247,1.51));
#984 = DIRECTION('',(0.,0.,-1.));
#985 = DIRECTION('',(-0.999999999862,1.659197305278E-05,0.));
#986 = ORIENTED_EDGE('',*,*,#987,.F.);
#987 = EDGE_CURVE('',#988,#979,#990,.T.);
#988 = VERTEX_POINT('',#989);
#989 = CARTESIAN_POINT('',(82.391559,-64.661773,0.));
#990 = LINE('',#991,#992);
#991 = CARTESIAN_POINT('',(82.391559,-64.661773,0.));
#992 = VECTOR('',#993,1.);
#993 = DIRECTION('',(0.,0.,1.));
#994 = ORIENTED_EDGE('',*,*,#995,.F.);
#995 = EDGE_CURVE('',#956,#988,#996,.T.);
#996 = CIRCLE('',#997,1.000030012982);
#997 = AXIS2_PLACEMENT_3D('',#998,#999,#1000);
#998 = CARTESIAN_POINT('',(82.941205012844,-65.49720659247,0.));
#999 = DIRECTION('',(0.,0.,-1.));
#1000 = DIRECTION('',(-0.999999999862,1.659197305278E-05,0.));
#1001 = CYLINDRICAL_SURFACE('',#1002,1.000030012982);
#1002 = AXIS2_PLACEMENT_3D('',#1003,#1004,#1005);
#1003 = CARTESIAN_POINT('',(82.941205012844,-65.49720659247,0.));
#1004 = DIRECTION('',(0.,0.,-1.));
#1005 = DIRECTION('',(-0.999999999862,1.659197305278E-05,0.));
#1006 = ADVANCED_FACE('',(#1007),#1032,.T.);
#1007 = FACE_BOUND('',#1008,.T.);
#1008 = EDGE_LOOP('',(#1009,#1010,#1018,#1026));
#1009 = ORIENTED_EDGE('',*,*,#987,.T.);
#1010 = ORIENTED_EDGE('',*,*,#1011,.T.);
#1011 = EDGE_CURVE('',#979,#1012,#1014,.T.);
#1012 = VERTEX_POINT('',#1013);
#1013 = CARTESIAN_POINT('',(98.665164,-54.619249,1.51));
#1014 = LINE('',#1015,#1016);
#1015 = CARTESIAN_POINT('',(82.391559,-64.661773,1.51));
#1016 = VECTOR('',#1017,1.);
#1017 = DIRECTION('',(0.851004148069,0.52515896638,0.));
#1018 = ORIENTED_EDGE('',*,*,#1019,.F.);
#1019 = EDGE_CURVE('',#1020,#1012,#1022,.T.);
#1020 = VERTEX_POINT('',#1021);
#1021 = CARTESIAN_POINT('',(98.665164,-54.619249,0.));
#1022 = LINE('',#1023,#1024);
#1023 = CARTESIAN_POINT('',(98.665164,-54.619249,0.));
#1024 = VECTOR('',#1025,1.);
#1025 = DIRECTION('',(0.,0.,1.));
#1026 = ORIENTED_EDGE('',*,*,#1027,.F.);
#1027 = EDGE_CURVE('',#988,#1020,#1028,.T.);
#1028 = LINE('',#1029,#1030);
#1029 = CARTESIAN_POINT('',(82.391559,-64.661773,0.));
#1030 = VECTOR('',#1031,1.);
#1031 = DIRECTION('',(0.851004148069,0.52515896638,0.));
#1032 = PLANE('',#1033);
#1033 = AXIS2_PLACEMENT_3D('',#1034,#1035,#1036);
#1034 = CARTESIAN_POINT('',(82.391559,-64.661773,0.));
#1035 = DIRECTION('',(-0.52515896638,0.851004148069,0.));
#1036 = DIRECTION('',(0.851004148069,0.52515896638,0.));
#1037 = ADVANCED_FACE('',(#1038),#1065,.T.);
#1038 = FACE_BOUND('',#1039,.T.);
#1039 = EDGE_LOOP('',(#1040,#1041,#1050,#1058));
#1040 = ORIENTED_EDGE('',*,*,#1019,.T.);
#1041 = ORIENTED_EDGE('',*,*,#1042,.T.);
#1042 = EDGE_CURVE('',#1012,#1043,#1045,.T.);
#1043 = VERTEX_POINT('',#1044);
#1044 = CARTESIAN_POINT('',(99.21478,-54.454666,1.51));
#1045 = CIRCLE('',#1046,0.999996301817);
#1046 = AXIS2_PLACEMENT_3D('',#1047,#1048,#1049);
#1047 = CARTESIAN_POINT('',(99.214779519063,-55.45466230181,1.51));
#1048 = DIRECTION('',(0.,0.,-1.));
#1049 = DIRECTION('',(-0.549617551649,0.83541639134,0.));
#1050 = ORIENTED_EDGE('',*,*,#1051,.F.);
#1051 = EDGE_CURVE('',#1052,#1043,#1054,.T.);
#1052 = VERTEX_POINT('',#1053);
#1053 = CARTESIAN_POINT('',(99.21478,-54.454666,0.));
#1054 = LINE('',#1055,#1056);
#1055 = CARTESIAN_POINT('',(99.21478,-54.454666,0.));
#1056 = VECTOR('',#1057,1.);
#1057 = DIRECTION('',(0.,0.,1.));
#1058 = ORIENTED_EDGE('',*,*,#1059,.F.);
#1059 = EDGE_CURVE('',#1020,#1052,#1060,.T.);
#1060 = CIRCLE('',#1061,0.999996301817);
#1061 = AXIS2_PLACEMENT_3D('',#1062,#1063,#1064);
#1062 = CARTESIAN_POINT('',(99.214779519063,-55.45466230181,0.));
#1063 = DIRECTION('',(0.,0.,-1.));
#1064 = DIRECTION('',(-0.549617551649,0.83541639134,0.));
#1065 = CYLINDRICAL_SURFACE('',#1066,0.999996301817);
#1066 = AXIS2_PLACEMENT_3D('',#1067,#1068,#1069);
#1067 = CARTESIAN_POINT('',(99.214779519063,-55.45466230181,0.));
#1068 = DIRECTION('',(0.,0.,-1.));
#1069 = DIRECTION('',(-0.549617551649,0.83541639134,0.));
#1070 = ADVANCED_FACE('',(#1071),#1096,.T.);
#1071 = FACE_BOUND('',#1072,.T.);
#1072 = EDGE_LOOP('',(#1073,#1074,#1082,#1090));
#1073 = ORIENTED_EDGE('',*,*,#1051,.T.);
#1074 = ORIENTED_EDGE('',*,*,#1075,.T.);
#1075 = EDGE_CURVE('',#1043,#1076,#1078,.T.);
#1076 = VERTEX_POINT('',#1077);
#1077 = CARTESIAN_POINT('',(118.91533,-54.454666,1.51));
#1078 = LINE('',#1079,#1080);
#1079 = CARTESIAN_POINT('',(99.21478,-54.454666,1.51));
#1080 = VECTOR('',#1081,1.);
#1081 = DIRECTION('',(1.,0.,0.));
#1082 = ORIENTED_EDGE('',*,*,#1083,.F.);
#1083 = EDGE_CURVE('',#1084,#1076,#1086,.T.);
#1084 = VERTEX_POINT('',#1085);
#1085 = CARTESIAN_POINT('',(118.91533,-54.454666,0.));
#1086 = LINE('',#1087,#1088);
#1087 = CARTESIAN_POINT('',(118.91533,-54.454666,0.));
#1088 = VECTOR('',#1089,1.);
#1089 = DIRECTION('',(0.,0.,1.));
#1090 = ORIENTED_EDGE('',*,*,#1091,.F.);
#1091 = EDGE_CURVE('',#1052,#1084,#1092,.T.);
#1092 = LINE('',#1093,#1094);
#1093 = CARTESIAN_POINT('',(99.21478,-54.454666,0.));
#1094 = VECTOR('',#1095,1.);
#1095 = DIRECTION('',(1.,0.,0.));
#1096 = PLANE('',#1097);
#1097 = AXIS2_PLACEMENT_3D('',#1098,#1099,#1100);
#1098 = CARTESIAN_POINT('',(99.21478,-54.454666,0.));
#1099 = DIRECTION('',(0.,1.,0.));
#1100 = DIRECTION('',(1.,0.,0.));
#1101 = ADVANCED_FACE('',(#1102),#1129,.F.);
#1102 = FACE_BOUND('',#1103,.T.);
#1103 = EDGE_LOOP('',(#1104,#1105,#1114,#1122));
#1104 = ORIENTED_EDGE('',*,*,#1083,.T.);
#1105 = ORIENTED_EDGE('',*,*,#1106,.T.);
#1106 = EDGE_CURVE('',#1076,#1107,#1109,.T.);
#1107 = VERTEX_POINT('',#1108);
#1108 = CARTESIAN_POINT('',(119.91533,-53.454666,1.51));
#1109 = CIRCLE('',#1110,0.999999252925);
#1110 = AXIS2_PLACEMENT_3D('',#1111,#1112,#1113);
#1111 = CARTESIAN_POINT('',(118.91533074707,-53.45466674707,1.51));
#1112 = DIRECTION('',(0.,0.,1.));
#1113 = DIRECTION('',(-7.470757491648E-07,-1.,0.));
#1114 = ORIENTED_EDGE('',*,*,#1115,.F.);
#1115 = EDGE_CURVE('',#1116,#1107,#1118,.T.);
#1116 = VERTEX_POINT('',#1117);
#1117 = CARTESIAN_POINT('',(119.91533,-53.454666,0.));
#1118 = LINE('',#1119,#1120);
#1119 = CARTESIAN_POINT('',(119.91533,-53.454666,0.));
#1120 = VECTOR('',#1121,1.);
#1121 = DIRECTION('',(0.,0.,1.));
#1122 = ORIENTED_EDGE('',*,*,#1123,.F.);
#1123 = EDGE_CURVE('',#1084,#1116,#1124,.T.);
#1124 = CIRCLE('',#1125,0.999999252925);
#1125 = AXIS2_PLACEMENT_3D('',#1126,#1127,#1128);
#1126 = CARTESIAN_POINT('',(118.91533074707,-53.45466674707,0.));
#1127 = DIRECTION('',(0.,0.,1.));
#1128 = DIRECTION('',(-7.470757491648E-07,-1.,0.));
#1129 = CYLINDRICAL_SURFACE('',#1130,0.999999252925);
#1130 = AXIS2_PLACEMENT_3D('',#1131,#1132,#1133);
#1131 = CARTESIAN_POINT('',(118.91533074707,-53.45466674707,0.));
#1132 = DIRECTION('',(-0.,-0.,-1.));
#1133 = DIRECTION('',(-7.470757491648E-07,-1.,0.));
#1134 = ADVANCED_FACE('',(#1135),#1160,.T.);
#1135 = FACE_BOUND('',#1136,.T.);
#1136 = EDGE_LOOP('',(#1137,#1138,#1146,#1154));
#1137 = ORIENTED_EDGE('',*,*,#1115,.T.);
#1138 = ORIENTED_EDGE('',*,*,#1139,.T.);
#1139 = EDGE_CURVE('',#1107,#1140,#1142,.T.);
#1140 = VERTEX_POINT('',#1141);
#1141 = CARTESIAN_POINT('',(119.91533,-50.654666,1.51));
#1142 = LINE('',#1143,#1144);
#1143 = CARTESIAN_POINT('',(119.91533,-53.454666,1.51));
#1144 = VECTOR('',#1145,1.);
#1145 = DIRECTION('',(0.,1.,0.));
#1146 = ORIENTED_EDGE('',*,*,#1147,.F.);
#1147 = EDGE_CURVE('',#1148,#1140,#1150,.T.);
#1148 = VERTEX_POINT('',#1149);
#1149 = CARTESIAN_POINT('',(119.91533,-50.654666,0.));
#1150 = LINE('',#1151,#1152);
#1151 = CARTESIAN_POINT('',(119.91533,-50.654666,0.));
#1152 = VECTOR('',#1153,1.);
#1153 = DIRECTION('',(0.,0.,1.));
#1154 = ORIENTED_EDGE('',*,*,#1155,.F.);
#1155 = EDGE_CURVE('',#1116,#1148,#1156,.T.);
#1156 = LINE('',#1157,#1158);
#1157 = CARTESIAN_POINT('',(119.91533,-53.454666,0.));
#1158 = VECTOR('',#1159,1.);
#1159 = DIRECTION('',(0.,1.,0.));
#1160 = PLANE('',#1161);
#1161 = AXIS2_PLACEMENT_3D('',#1162,#1163,#1164);
#1162 = CARTESIAN_POINT('',(119.91533,-53.454666,0.));
#1163 = DIRECTION('',(-1.,0.,0.));
#1164 = DIRECTION('',(0.,1.,0.));
#1165 = ADVANCED_FACE('',(#1166),#1193,.T.);
#1166 = FACE_BOUND('',#1167,.T.);
#1167 = EDGE_LOOP('',(#1168,#1169,#1178,#1186));
#1168 = ORIENTED_EDGE('',*,*,#1147,.T.);
#1169 = ORIENTED_EDGE('',*,*,#1170,.T.);
#1170 = EDGE_CURVE('',#1140,#1171,#1173,.T.);
#1171 = VERTEX_POINT('',#1172);
#1172 = CARTESIAN_POINT('',(120.91533,-49.654666,1.51));
#1173 = CIRCLE('',#1174,0.999999252925);
#1174 = AXIS2_PLACEMENT_3D('',#1175,#1176,#1177);
#1175 = CARTESIAN_POINT('',(120.91532925292,-50.65466525292,1.51));
#1176 = DIRECTION('',(0.,0.,-1.));
#1177 = DIRECTION('',(-1.,-7.470757278485E-07,-0.));
#1178 = ORIENTED_EDGE('',*,*,#1179,.F.);
#1179 = EDGE_CURVE('',#1180,#1171,#1182,.T.);
#1180 = VERTEX_POINT('',#1181);
#1181 = CARTESIAN_POINT('',(120.91533,-49.654666,0.));
#1182 = LINE('',#1183,#1184);
#1183 = CARTESIAN_POINT('',(120.91533,-49.654666,0.));
#1184 = VECTOR('',#1185,1.);
#1185 = DIRECTION('',(0.,0.,1.));
#1186 = ORIENTED_EDGE('',*,*,#1187,.F.);
#1187 = EDGE_CURVE('',#1148,#1180,#1188,.T.);
#1188 = CIRCLE('',#1189,0.999999252925);
#1189 = AXIS2_PLACEMENT_3D('',#1190,#1191,#1192);
#1190 = CARTESIAN_POINT('',(120.91532925292,-50.65466525292,0.));
#1191 = DIRECTION('',(0.,0.,-1.));
#1192 = DIRECTION('',(-1.,-7.470757278485E-07,-0.));
#1193 = CYLINDRICAL_SURFACE('',#1194,0.999999252925);
#1194 = AXIS2_PLACEMENT_3D('',#1195,#1196,#1197);
#1195 = CARTESIAN_POINT('',(120.91532925292,-50.65466525292,0.));
#1196 = DIRECTION('',(0.,0.,-1.));
#1197 = DIRECTION('',(-1.,-7.470757278485E-07,-0.));
#1198 = ADVANCED_FACE('',(#1199),#1215,.T.);
#1199 = FACE_BOUND('',#1200,.T.);
#1200 = EDGE_LOOP('',(#1201,#1202,#1208,#1209));
#1201 = ORIENTED_EDGE('',*,*,#1179,.T.);
#1202 = ORIENTED_EDGE('',*,*,#1203,.T.);
#1203 = EDGE_CURVE('',#1171,#42,#1204,.T.);
#1204 = LINE('',#1205,#1206);
#1205 = CARTESIAN_POINT('',(120.91533,-49.654666,1.51));
#1206 = VECTOR('',#1207,1.);
#1207 = DIRECTION('',(1.,0.,0.));
#1208 = ORIENTED_EDGE('',*,*,#39,.F.);
#1209 = ORIENTED_EDGE('',*,*,#1210,.F.);
#1210 = EDGE_CURVE('',#1180,#40,#1211,.T.);
#1211 = LINE('',#1212,#1213);
#1212 = CARTESIAN_POINT('',(120.91533,-49.654666,0.));
#1213 = VECTOR('',#1214,1.);
#1214 = DIRECTION('',(1.,0.,0.));
#1215 = PLANE('',#1216);
#1216 = AXIS2_PLACEMENT_3D('',#1217,#1218,#1219);
#1217 = CARTESIAN_POINT('',(120.91533,-49.654666,0.));
#1218 = DIRECTION('',(0.,1.,0.));
#1219 = DIRECTION('',(1.,0.,0.));
#1220 = ADVANCED_FACE('',(#1221),#1260,.F.);
#1221 = FACE_BOUND('',#1222,.T.);
#1222 = EDGE_LOOP('',(#1223,#1224,#1225,#1226,#1227,#1228,#1229,#1230,
    #1231,#1232,#1233,#1234,#1235,#1236,#1237,#1238,#1239,#1240,#1241,
    #1242,#1243,#1244,#1245,#1246,#1247,#1248,#1249,#1250,#1251,#1252,
    #1253,#1254,#1255,#1256,#1257,#1258,#1259));
#1223 = ORIENTED_EDGE('',*,*,#66,.T.);
#1224 = ORIENTED_EDGE('',*,*,#98,.T.);
#1225 = ORIENTED_EDGE('',*,*,#130,.T.);
#1226 = ORIENTED_EDGE('',*,*,#162,.T.);
#1227 = ORIENTED_EDGE('',*,*,#194,.T.);
#1228 = ORIENTED_EDGE('',*,*,#226,.T.);
#1229 = ORIENTED_EDGE('',*,*,#258,.T.);
#1230 = ORIENTED_EDGE('',*,*,#290,.T.);
#1231 = ORIENTED_EDGE('',*,*,#322,.T.);
#1232 = ORIENTED_EDGE('',*,*,#354,.T.);
#1233 = ORIENTED_EDGE('',*,*,#386,.T.);
#1234 = ORIENTED_EDGE('',*,*,#418,.T.);
#1235 = ORIENTED_EDGE('',*,*,#450,.T.);
#1236 = ORIENTED_EDGE('',*,*,#482,.T.);
#1237 = ORIENTED_EDGE('',*,*,#514,.T.);
#1238 = ORIENTED_EDGE('',*,*,#546,.T.);
#1239 = ORIENTED_EDGE('',*,*,#578,.T.);
#1240 = ORIENTED_EDGE('',*,*,#610,.T.);
#1241 = ORIENTED_EDGE('',*,*,#642,.T.);
#1242 = ORIENTED_EDGE('',*,*,#674,.T.);
#1243 = ORIENTED_EDGE('',*,*,#706,.T.);
#1244 = ORIENTED_EDGE('',*,*,#738,.T.);
#1245 = ORIENTED_EDGE('',*,*,#770,.T.);
#1246 = ORIENTED_EDGE('',*,*,#802,.T.);
#1247 = ORIENTED_EDGE('',*,*,#834,.T.);
#1248 = ORIENTED_EDGE('',*,*,#867,.T.);
#1249 = ORIENTED_EDGE('',*,*,#899,.T.);
#1250 = ORIENTED_EDGE('',*,*,#931,.T.);
#1251 = ORIENTED_EDGE('',*,*,#963,.T.);
#1252 = ORIENTED_EDGE('',*,*,#995,.T.);
#1253 = ORIENTED_EDGE('',*,*,#1027,.T.);
#1254 = ORIENTED_EDGE('',*,*,#1059,.T.);
#1255 = ORIENTED_EDGE('',*,*,#1091,.T.);
#1256 = ORIENTED_EDGE('',*,*,#1123,.T.);
#1257 = ORIENTED_EDGE('',*,*,#1155,.T.);
#1258 = ORIENTED_EDGE('',*,*,#1187,.T.);
#1259 = ORIENTED_EDGE('',*,*,#1210,.T.);
#1260 = PLANE('',#1261);
#1261 = AXIS2_PLACEMENT_3D('',#1262,#1263,#1264);
#1262 = CARTESIAN_POINT('',(0.,0.,0.));
#1263 = DIRECTION('',(0.,0.,1.));
#1264 = DIRECTION('',(1.,0.,-0.));
#1265 = ADVANCED_FACE('',(#1266),#1305,.T.);
#1266 = FACE_BOUND('',#1267,.F.);
#1267 = EDGE_LOOP('',(#1268,#1269,#1270,#1271,#1272,#1273,#1274,#1275,
    #1276,#1277,#1278,#1279,#1280,#1281,#1282,#1283,#1284,#1285,#1286,
    #1287,#1288,#1289,#1290,#1291,#1292,#1293,#1294,#1295,#1296,#1297,
    #1298,#1299,#1300,#1301,#1302,#1303,#1304));
#1268 = ORIENTED_EDGE('',*,*,#49,.T.);
#1269 = ORIENTED_EDGE('',*,*,#82,.T.);
#1270 = ORIENTED_EDGE('',*,*,#113,.T.);
#1271 = ORIENTED_EDGE('',*,*,#146,.T.);
#1272 = ORIENTED_EDGE('',*,*,#177,.T.);
#1273 = ORIENTED_EDGE('',*,*,#210,.T.);
#1274 = ORIENTED_EDGE('',*,*,#241,.T.);
#1275 = ORIENTED_EDGE('',*,*,#274,.T.);
#1276 = ORIENTED_EDGE('',*,*,#305,.T.);
#1277 = ORIENTED_EDGE('',*,*,#338,.T.);
#1278 = ORIENTED_EDGE('',*,*,#369,.T.);
#1279 = ORIENTED_EDGE('',*,*,#402,.T.);
#1280 = ORIENTED_EDGE('',*,*,#433,.T.);
#1281 = ORIENTED_EDGE('',*,*,#466,.T.);
#1282 = ORIENTED_EDGE('',*,*,#497,.T.);
#1283 = ORIENTED_EDGE('',*,*,#530,.T.);
#1284 = ORIENTED_EDGE('',*,*,#561,.T.);
#1285 = ORIENTED_EDGE('',*,*,#594,.T.);
#1286 = ORIENTED_EDGE('',*,*,#625,.T.);
#1287 = ORIENTED_EDGE('',*,*,#658,.T.);
#1288 = ORIENTED_EDGE('',*,*,#689,.T.);
#1289 = ORIENTED_EDGE('',*,*,#722,.T.);
#1290 = ORIENTED_EDGE('',*,*,#753,.T.);
#1291 = ORIENTED_EDGE('',*,*,#786,.T.);
#1292 = ORIENTED_EDGE('',*,*,#817,.T.);
#1293 = ORIENTED_EDGE('',*,*,#850,.T.);
#1294 = ORIENTED_EDGE('',*,*,#883,.T.);
#1295 = ORIENTED_EDGE('',*,*,#914,.T.);
#1296 = ORIENTED_EDGE('',*,*,#947,.T.);
#1297 = ORIENTED_EDGE('',*,*,#978,.T.);
#1298 = ORIENTED_EDGE('',*,*,#1011,.T.);
#1299 = ORIENTED_EDGE('',*,*,#1042,.T.);
#1300 = ORIENTED_EDGE('',*,*,#1075,.T.);
#1301 = ORIENTED_EDGE('',*,*,#1106,.T.);
#1302 = ORIENTED_EDGE('',*,*,#1139,.T.);
#1303 = ORIENTED_EDGE('',*,*,#1170,.T.);
#1304 = ORIENTED_EDGE('',*,*,#1203,.T.);
#1305 = PLANE('',#1306);
#1306 = AXIS2_PLACEMENT_3D('',#1307,#1308,#1309);
#1307 = CARTESIAN_POINT('',(0.,0.,1.51));
#1308 = DIRECTION('',(0.,0.,1.));
#1309 = DIRECTION('',(1.,0.,-0.));
#1310 = ( GEOMETRIC_REPRESENTATION_CONTEXT(3) 
GLOBAL_UNCERTAINTY_ASSIGNED_CONTEXT((#1314)) 
GLOBAL_UNIT_ASSIGNED_CONTEXT((#1311,#1312,#1313)) REPRESENTATION_CONTEXT
('Context #1','3D Context with UNIT and UNCERTAINTY') );
#1311 = ( LENGTH_UNIT() NAMED_UNIT(*) SI_UNIT(.MILLI.,.METRE.) );
#1312 = ( NAMED_UNIT(*) PLANE_ANGLE_UNIT() SI_UNIT($,.RADIAN.) );
#1313 = ( NAMED_UNIT(*) SI_UNIT($,.STERADIAN.) SOLID_ANGLE_UNIT() );
#1314 = UNCERTAINTY_MEASURE_WITH_UNIT(LENGTH_MEASURE(1.E-07),#1311,
  'distance_accuracy_value','confusion accuracy');
#1315 = CONTEXT_DEPENDENT_SHAPE_REPRESENTATION(#1316,#1318);
#1316 = ( REPRESENTATION_RELATIONSHIP('','',#32,#10) 
REPRESENTATION_RELATIONSHIP_WITH_TRANSFORMATION(#1317) 
SHAPE_REPRESENTATION_RELATIONSHIP() );
#1317 = ITEM_DEFINED_TRANSFORMATION('','',#11,#15);
#1318 = PRODUCT_DEFINITION_SHAPE('Placement','Placement of an item',
  #1319);
#1319 = NEXT_ASSEMBLY_USAGE_OCCURRENCE('1','=>[0:1:1:2]','',#5,#27,$);
#1320 = PRODUCT_RELATED_PRODUCT_CATEGORY('part',$,(#29));
#1321 = MECHANICAL_DESIGN_GEOMETRIC_PRESENTATION_REPRESENTATION('',(
    #1322),#1310);
#1322 = STYLED_ITEM('color',(#1323),#33);
#1323 = PRESENTATION_STYLE_ASSIGNMENT((#1324));
#1324 = SURFACE_STYLE_USAGE(.BOTH.,#1325);
#1325 = SURFACE_SIDE_STYLE('',(#1326));
#1326 = SURFACE_STYLE_FILL_AREA(#1327);
#1327 = FILL_AREA_STYLE('',(#1328));
#1328 = FILL_AREA_STYLE_COLOUR('',#1329);
#1329 = COLOUR_RGB('',0.313304153717,0.484529207832,0.410020903123);
ENDSEC;
END-ISO-10303-21;
