  0
SECTION
  2
HEADER
  9
$ANGBASE
  50
0.0
  9
$ANGDIR
  70
1
  9
$MEASUREMENT
  70
1
  9
$INSUNITS
  70
4
  0
ENDSEC
  0
SECTION
  2
TABLES
  0
TABLE
  2
LTYPE
  70
4
  0
LTYPE
  5
40F
  2
CONTINUOUS
  70
0
  3
Solid line
  72
65
  73
0
  40
0.0
  0
LTYPE
  5
410
  2
DASHDOT
 70
0
  3
Dash Dot ____ _ ____ _
 72
65
 73
4
 40
2.0
 49
1.25
 49
-0.25
 49
0.25
 49
-0.25
  0
LTYPE
  5
411
  2
DASHED
 70
0
  3
Dashed __ __ __ __ __
 72
65
 73
2
 40
0.75
 49
0.5
 49
-0.25
  0
LTYPE
  5
43B
  2
DOTTED
 70
0
  3
Dotted .  .  .  .
 72
65
 73
2
 40
0.2
 49
0.0
 49
-0.2
  0
ENDTAB
  0
TABLE
  2
STYLE
  70
4
  0
STYLE
  2
KICAD
  70
0
  40
0
  41
1
  42
1
  50
0
  71
0
  3
isocp.shx
  0
STYLE
  2
KICADB
  70
0
  40
0
  41
1
  42
1
  50
0
  71
0
  3
isocp.shx
  0
STYLE
  2
KICADI
  70
0
  40
0
  41
1
  42
1
  50
15
  71
0
  3
isocp.shx
  0
STYLE
  2
KICADBI
  70
0
  40
0
  41
1
  42
1
  50
15
  71
0
  3
isocp.shx
  0
ENDTAB
  0
TABLE
  2
LAYER
  70
1
  0
LAYER
  2
Edge.Cuts
  70
0
  62
254
  420
13685453
  6
CONTINUOUS
  0
ENDTAB
  0
ENDSEC
  0
SECTION
  2
ENTITIES
0
LINE
8
Edge.Cuts
6
CONTINUOUS
10
115.5950579999999945
20
-117.7139099999999985
11
115.8509150000000005
21
-117.7824659999999994
0
LINE
8
Edge.Cuts
6
CONTINUOUS
10
115.8509150000000005
20
-117.7824659999999994
11
116.0956350000000015
21
-117.8838329999999956
0
LINE
8
Edge.Cuts
6
CONTINUOUS
10
116.0956350000000015
20
-117.8838329999999956
11
116.3250299999999982
21
-118.0162739999999957
0
LINE
8
Edge.Cuts
6
CONTINUOUS
10
116.3250299999999982
20
-118.0162739999999957
11
116.5351749999999953
21
-118.1775239999999911
0
LINE
8
Edge.Cuts
6
CONTINUOUS
10
116.5351749999999953
20
-118.1775239999999911
11
116.7224760000000003
21
-118.3648249999999962
0
LINE
8
Edge.Cuts
6
CONTINUOUS
10
116.7224760000000003
20
-118.3648249999999962
11
116.8837259999999958
21
-118.5749699999999933
0
LINE
8
Edge.Cuts
6
CONTINUOUS
10
116.8837259999999958
20
-118.5749699999999933
11
117.0161669999999958
21
-118.80436499999999
0
LINE
8
Edge.Cuts
6
CONTINUOUS
10
117.0161669999999958
20
-118.80436499999999
11
117.117533999999992
21
-119.0490849999999909
0
LINE
8
Edge.Cuts
6
CONTINUOUS
10
117.117533999999992
20
-119.0490849999999909
11
117.186089999999993
21
-119.3049419999999969
0
LINE
8
Edge.Cuts
6
CONTINUOUS
10
117.186089999999993
20
-119.3049419999999969
11
117.2206639999999993
21
-119.5675589999999886
0
LINE
8
Edge.Cuts
6
CONTINUOUS
10
117.2206639999999993
20
-119.5675589999999886
11
117.2206639999999993
21
-119.8324409999999887
0
LINE
8
Edge.Cuts
6
CONTINUOUS
10
117.2206639999999993
20
-119.8324409999999887
11
117.186089999999993
21
-120.0950579999999945
0
LINE
8
Edge.Cuts
6
CONTINUOUS
10
117.186089999999993
20
-120.0950579999999945
11
117.117533999999992
21
-120.3509150000000005
0
LINE
8
Edge.Cuts
6
CONTINUOUS
10
117.117533999999992
20
-120.3509150000000005
11
117.0161669999999958
21
-120.5956350000000015
0
LINE
8
Edge.Cuts
6
CONTINUOUS
10
117.0161669999999958
20
-120.5956350000000015
11
116.8837259999999958
21
-120.8250299999999982
0
LINE
8
Edge.Cuts
6
CONTINUOUS
10
116.8837259999999958
20
-120.8250299999999982
11
116.7224760000000003
21
-121.0351749999999953
0
LINE
8
Edge.Cuts
6
CONTINUOUS
10
116.7224760000000003
20
-121.0351749999999953
11
116.5351749999999953
21
-121.2224760000000003
0
LINE
8
Edge.Cuts
6
CONTINUOUS
10
116.5351749999999953
20
-121.2224760000000003
11
116.3250299999999982
21
-121.3837259999999958
0
LINE
8
Edge.Cuts
6
CONTINUOUS
10
116.3250299999999982
20
-121.3837259999999958
11
116.0956350000000015
21
-121.5161669999999958
0
LINE
8
Edge.Cuts
6
CONTINUOUS
10
116.0956350000000015
20
-121.5161669999999958
11
115.8509150000000005
21
-121.617533999999992
0
LINE
8
Edge.Cuts
6
CONTINUOUS
10
115.8509150000000005
20
-121.617533999999992
11
115.5950579999999945
21
-121.686089999999993
0
LINE
8
Edge.Cuts
6
CONTINUOUS
10
115.5950579999999945
20
-121.686089999999993
11
115.3324409999999887
21
-121.7206639999999993
0
LINE
8
Edge.Cuts
6
CONTINUOUS
10
115.3324409999999887
20
-121.7206639999999993
11
115.0675589999999886
21
-121.7206639999999993
0
LINE
8
Edge.Cuts
6
CONTINUOUS
10
115.0675589999999886
20
-121.7206639999999993
11
114.8049419999999969
21
-121.686089999999993
0
LINE
8
Edge.Cuts
6
CONTINUOUS
10
114.8049419999999969
20
-121.686089999999993
11
114.5490849999999909
21
-121.617533999999992
0
LINE
8
Edge.Cuts
6
CONTINUOUS
10
114.5490849999999909
20
-121.617533999999992
11
114.30436499999999
21
-121.5161669999999958
0
LINE
8
Edge.Cuts
6
CONTINUOUS
10
114.30436499999999
20
-121.5161669999999958
11
114.0749699999999933
21
-121.3837259999999958
0
LINE
8
Edge.Cuts
6
CONTINUOUS
10
114.0749699999999933
20
-121.3837259999999958
11
113.8648249999999962
21
-121.2224760000000003
0
LINE
8
Edge.Cuts
6
CONTINUOUS
10
113.8648249999999962
20
-121.2224760000000003
11
113.6775239999999911
21
-121.0351749999999953
0
LINE
8
Edge.Cuts
6
CONTINUOUS
10
113.6775239999999911
20
-121.0351749999999953
11
113.5162739999999957
21
-120.8250299999999982
0
LINE
8
Edge.Cuts
6
CONTINUOUS
10
113.5162739999999957
20
-120.8250299999999982
11
113.3838329999999956
21
-120.5956350000000015
0
LINE
8
Edge.Cuts
6
CONTINUOUS
10
113.3838329999999956
20
-120.5956350000000015
11
113.2824659999999994
21
-120.3509150000000005
0
LINE
8
Edge.Cuts
6
CONTINUOUS
10
113.2824659999999994
20
-120.3509150000000005
11
113.2139099999999985
21
-120.0950579999999945
0
LINE
8
Edge.Cuts
6
CONTINUOUS
10
113.2139099999999985
20
-120.0950579999999945
11
113.1793359999999922
21
-119.8324409999999887
0
LINE
8
Edge.Cuts
6
CONTINUOUS
10
113.1793359999999922
20
-119.8324409999999887
11
113.1793359999999922
21
-119.5705519999999922
0
LINE
8
Edge.Cuts
6
CONTINUOUS
10
113.1793359999999922
20
-119.5705519999999922
11
113.1793359999999922
21
-119.5675589999999886
0
LINE
8
Edge.Cuts
6
CONTINUOUS
10
113.1793359999999922
20
-119.5675589999999886
11
113.2139099999999985
21
-119.3049419999999969
0
LINE
8
Edge.Cuts
6
CONTINUOUS
10
113.2139099999999985
20
-119.3049419999999969
11
113.2824659999999994
21
-119.0490849999999909
0
LINE
8
Edge.Cuts
6
CONTINUOUS
10
113.2824659999999994
20
-119.0490849999999909
11
113.3838329999999956
21
-118.80436499999999
0
LINE
8
Edge.Cuts
6
CONTINUOUS
10
113.3838329999999956
20
-118.80436499999999
11
113.5162739999999957
21
-118.5749699999999933
0
LINE
8
Edge.Cuts
6
CONTINUOUS
10
113.5162739999999957
20
-118.5749699999999933
11
113.6775239999999911
21
-118.3648249999999962
0
LINE
8
Edge.Cuts
6
CONTINUOUS
10
113.6775239999999911
20
-118.3648249999999962
11
113.8648249999999962
21
-118.1775239999999911
0
LINE
8
Edge.Cuts
6
CONTINUOUS
10
113.8648249999999962
20
-118.1775239999999911
11
114.0749699999999933
21
-118.0162739999999957
0
LINE
8
Edge.Cuts
6
CONTINUOUS
10
114.0749699999999933
20
-118.0162739999999957
11
114.30436499999999
21
-117.8838329999999956
0
LINE
8
Edge.Cuts
6
CONTINUOUS
10
114.30436499999999
20
-117.8838329999999956
11
114.5490849999999909
21
-117.7824659999999994
0
LINE
8
Edge.Cuts
6
CONTINUOUS
10
114.5490849999999909
20
-117.7824659999999994
11
114.8049419999999969
21
-117.7139099999999985
0
LINE
8
Edge.Cuts
6
CONTINUOUS
10
114.8049419999999969
20
-117.7139099999999985
11
115.0675589999999886
21
-117.6793359999999922
0
LINE
8
Edge.Cuts
6
CONTINUOUS
10
115.0675589999999886
20
-117.6793359999999922
11
115.3324409999999887
21
-117.6793359999999922
0
LINE
8
Edge.Cuts
6
CONTINUOUS
10
115.3324409999999887
20
-117.6793359999999922
11
115.5950579999999945
21
-117.7139099999999985
0
LINE
8
Edge.Cuts
6
CONTINUOUS
10
113.2249999999999943
20
-119.8294479999999993
11
113.2587929999999972
21
-120.0861299999999972
0
LINE
8
Edge.Cuts
6
CONTINUOUS
10
113.2587929999999972
20
-120.0861299999999972
11
113.325800000000001
21
-120.3362049999999925
0
LINE
8
Edge.Cuts
6
CONTINUOUS
10
113.325800000000001
20
-120.3362049999999925
11
113.4248750000000001
21
-120.5753950000000003
0
LINE
8
Edge.Cuts
6
CONTINUOUS
10
113.4248750000000001
20
-120.5753950000000003
11
113.554323999999994
21
-120.7996059999999972
0
LINE
8
Edge.Cuts
6
CONTINUOUS
10
113.554323999999994
20
-120.7996059999999972
11
113.7119299999999953
21
-121.0050019999999904
0
LINE
8
Edge.Cuts
6
CONTINUOUS
10
113.7119299999999953
20
-121.0050019999999904
11
113.8949980000000011
21
-121.1880699999999962
0
LINE
8
Edge.Cuts
6
CONTINUOUS
10
113.8949980000000011
20
-121.1880699999999962
11
114.1003939999999943
21
-121.3456759999999974
0
LINE
8
Edge.Cuts
6
CONTINUOUS
10
114.1003939999999943
20
-121.3456759999999974
11
114.3246049999999912
21
-121.4751249999999914
0
LINE
8
Edge.Cuts
6
CONTINUOUS
10
114.3246049999999912
20
-121.4751249999999914
11
114.5637949999999989
21
-121.5741999999999905
0
LINE
8
Edge.Cuts
6
CONTINUOUS
10
114.5637949999999989
20
-121.5741999999999905
11
114.8138699999999943
21
-121.6412069999999943
0
LINE
8
Edge.Cuts
6
CONTINUOUS
10
114.8138699999999943
20
-121.6412069999999943
11
115.0705519999999922
21
-121.6749999999999972
0
LINE
8
Edge.Cuts
6
CONTINUOUS
10
115.0705519999999922
20
-121.6749999999999972
11
115.3294479999999993
21
-121.6749999999999972
0
LINE
8
Edge.Cuts
6
CONTINUOUS
10
115.3294479999999993
20
-121.6749999999999972
11
115.5861299999999972
21
-121.6412069999999943
0
LINE
8
Edge.Cuts
6
CONTINUOUS
10
115.5861299999999972
20
-121.6412069999999943
11
115.8362049999999925
21
-121.5741999999999905
0
LINE
8
Edge.Cuts
6
CONTINUOUS
10
115.8362049999999925
20
-121.5741999999999905
11
116.0753950000000003
21
-121.4751249999999914
0
LINE
8
Edge.Cuts
6
CONTINUOUS
10
116.0753950000000003
20
-121.4751249999999914
11
116.2996059999999972
21
-121.3456759999999974
0
LINE
8
Edge.Cuts
6
CONTINUOUS
10
116.2996059999999972
20
-121.3456759999999974
11
116.5050019999999904
21
-121.1880699999999962
0
LINE
8
Edge.Cuts
6
CONTINUOUS
10
116.5050019999999904
20
-121.1880699999999962
11
116.6880699999999962
21
-121.0050019999999904
0
LINE
8
Edge.Cuts
6
CONTINUOUS
10
116.6880699999999962
20
-121.0050019999999904
11
116.8456759999999974
21
-120.7996059999999972
0
LINE
8
Edge.Cuts
6
CONTINUOUS
10
116.8456759999999974
20
-120.7996059999999972
11
116.9751249999999914
21
-120.5753950000000003
0
LINE
8
Edge.Cuts
6
CONTINUOUS
10
116.9751249999999914
20
-120.5753950000000003
11
117.0741999999999905
21
-120.3362049999999925
0
LINE
8
Edge.Cuts
6
CONTINUOUS
10
117.0741999999999905
20
-120.3362049999999925
11
117.1412069999999943
21
-120.0861299999999972
0
LINE
8
Edge.Cuts
6
CONTINUOUS
10
117.1412069999999943
20
-120.0861299999999972
11
117.1749999999999972
21
-119.8294479999999993
0
LINE
8
Edge.Cuts
6
CONTINUOUS
10
117.1749999999999972
20
-119.8294479999999993
11
117.1749999999999972
21
-119.5705519999999922
0
LINE
8
Edge.Cuts
6
CONTINUOUS
10
117.1749999999999972
20
-119.5705519999999922
11
117.1412069999999943
21
-119.3138699999999943
0
LINE
8
Edge.Cuts
6
CONTINUOUS
10
117.1412069999999943
20
-119.3138699999999943
11
117.0741999999999905
21
-119.0637949999999989
0
LINE
8
Edge.Cuts
6
CONTINUOUS
10
117.0741999999999905
20
-119.0637949999999989
11
116.9751249999999914
21
-118.8246049999999912
0
LINE
8
Edge.Cuts
6
CONTINUOUS
10
116.9751249999999914
20
-118.8246049999999912
11
116.8456759999999974
21
-118.6003939999999943
0
LINE
8
Edge.Cuts
6
CONTINUOUS
10
116.8456759999999974
20
-118.6003939999999943
11
116.6880699999999962
21
-118.3949980000000011
0
LINE
8
Edge.Cuts
6
CONTINUOUS
10
116.6880699999999962
20
-118.3949980000000011
11
116.5050019999999904
21
-118.2119299999999953
0
LINE
8
Edge.Cuts
6
CONTINUOUS
10
116.5050019999999904
20
-118.2119299999999953
11
116.2996059999999972
21
-118.054323999999994
0
LINE
8
Edge.Cuts
6
CONTINUOUS
10
116.2996059999999972
20
-118.054323999999994
11
116.0753950000000003
21
-117.9248750000000001
0
LINE
8
Edge.Cuts
6
CONTINUOUS
10
116.0753950000000003
20
-117.9248750000000001
11
115.8362049999999925
21
-117.825800000000001
0
LINE
8
Edge.Cuts
6
CONTINUOUS
10
115.8362049999999925
20
-117.825800000000001
11
115.5861299999999972
21
-117.7587929999999972
0
LINE
8
Edge.Cuts
6
CONTINUOUS
10
115.5861299999999972
20
-117.7587929999999972
11
115.3294479999999993
21
-117.7249999999999943
0
LINE
8
Edge.Cuts
6
CONTINUOUS
10
115.3294479999999993
20
-117.7249999999999943
11
115.0705519999999922
21
-117.7249999999999943
0
LINE
8
Edge.Cuts
6
CONTINUOUS
10
115.0705519999999922
20
-117.7249999999999943
11
114.8138699999999943
21
-117.7587929999999972
0
LINE
8
Edge.Cuts
6
CONTINUOUS
10
114.8138699999999943
20
-117.7587929999999972
11
114.5637949999999989
21
-117.825800000000001
0
LINE
8
Edge.Cuts
6
CONTINUOUS
10
114.5637949999999989
20
-117.825800000000001
11
114.3246049999999912
21
-117.9248750000000001
0
LINE
8
Edge.Cuts
6
CONTINUOUS
10
114.3246049999999912
20
-117.9248750000000001
11
114.1003939999999943
21
-118.054323999999994
0
LINE
8
Edge.Cuts
6
CONTINUOUS
10
114.1003939999999943
20
-118.054323999999994
11
113.8949980000000011
21
-118.2119299999999953
0
LINE
8
Edge.Cuts
6
CONTINUOUS
10
113.8949980000000011
20
-118.2119299999999953
11
113.7119299999999953
21
-118.3949980000000011
0
LINE
8
Edge.Cuts
6
CONTINUOUS
10
113.7119299999999953
20
-118.3949980000000011
11
113.554323999999994
21
-118.6003939999999943
0
LINE
8
Edge.Cuts
6
CONTINUOUS
10
113.554323999999994
20
-118.6003939999999943
11
113.4248750000000001
21
-118.8246049999999912
0
LINE
8
Edge.Cuts
6
CONTINUOUS
10
113.4248750000000001
20
-118.8246049999999912
11
113.325800000000001
21
-119.0637949999999989
0
LINE
8
Edge.Cuts
6
CONTINUOUS
10
113.325800000000001
20
-119.0637949999999989
11
113.2587929999999972
21
-119.3138699999999943
0
LINE
8
Edge.Cuts
6
CONTINUOUS
10
113.2587929999999972
20
-119.3138699999999943
11
113.2249999999999943
21
-119.5705519999999922
0
LINE
8
Edge.Cuts
6
CONTINUOUS
10
113.2249999999999943
20
-119.5705519999999922
11
113.2249999999999943
21
-119.8294479999999993
0
LINE
8
Edge.Cuts
6
CONTINUOUS
10
86.1950580000000031
20
-100.5139099999999956
11
86.4509149999999948
21
-100.5824659999999966
0
LINE
8
Edge.Cuts
6
CONTINUOUS
10
86.4509149999999948
20
-100.5824659999999966
11
86.6956349999999958
21
-100.6838329999999928
0
LINE
8
Edge.Cuts
6
CONTINUOUS
10
86.6956349999999958
20
-100.6838329999999928
11
86.9250299999999925
21
-100.8162739999999928
0
LINE
8
Edge.Cuts
6
CONTINUOUS
10
86.9250299999999925
20
-100.8162739999999928
11
87.1351749999999896
21
-100.9775240000000025
0
LINE
8
Edge.Cuts
6
CONTINUOUS
10
87.1351749999999896
20
-100.9775240000000025
11
87.3224759999999947
21
-101.1648249999999933
0
LINE
8
Edge.Cuts
6
CONTINUOUS
10
87.3224759999999947
20
-101.1648249999999933
11
87.4837259999999901
21
-101.3749699999999905
0
LINE
8
Edge.Cuts
6
CONTINUOUS
10
87.4837259999999901
20
-101.3749699999999905
11
87.6161669999999901
21
-101.6043650000000014
0
LINE
8
Edge.Cuts
6
CONTINUOUS
10
87.6161669999999901
20
-101.6043650000000014
11
87.7175340000000006
21
-101.8490850000000023
0
LINE
8
Edge.Cuts
6
CONTINUOUS
10
87.7175340000000006
20
-101.8490850000000023
11
87.7860900000000015
21
-102.1049419999999941
0
LINE
8
Edge.Cuts
6
CONTINUOUS
10
87.7860900000000015
20
-102.1049419999999941
11
87.8206639999999936
21
-102.367559
0
LINE
8
Edge.Cuts
6
CONTINUOUS
10
87.8206639999999936
20
-102.367559
11
87.8206639999999936
21
-102.632441
0
LINE
8
Edge.Cuts
6
CONTINUOUS
10
87.8206639999999936
20
-102.632441
11
87.7860900000000015
21
-102.8950579999999917
0
LINE
8
Edge.Cuts
6
CONTINUOUS
10
87.7860900000000015
20
-102.8950579999999917
11
87.7175340000000006
21
-103.1509149999999977
0
LINE
8
Edge.Cuts
6
CONTINUOUS
10
87.7175340000000006
20
-103.1509149999999977
11
87.6161669999999901
21
-103.3956349999999986
0
LINE
8
Edge.Cuts
6
CONTINUOUS
10
87.6161669999999901
20
-103.3956349999999986
11
87.4837259999999901
21
-103.6250299999999953
0
LINE
8
Edge.Cuts
6
CONTINUOUS
10
87.4837259999999901
20
-103.6250299999999953
11
87.3224759999999947
21
-103.8351749999999925
0
LINE
8
Edge.Cuts
6
CONTINUOUS
10
87.3224759999999947
20
-103.8351749999999925
11
87.1351749999999896
21
-104.0224759999999975
0
LINE
8
Edge.Cuts
6
CONTINUOUS
10
87.1351749999999896
20
-104.0224759999999975
11
86.9250299999999925
21
-104.183725999999993
0
LINE
8
Edge.Cuts
6
CONTINUOUS
10
86.9250299999999925
20
-104.183725999999993
11
86.6956349999999958
21
-104.316166999999993
0
LINE
8
Edge.Cuts
6
CONTINUOUS
10
86.6956349999999958
20
-104.316166999999993
11
86.4509149999999948
21
-104.4175339999999892
0
LINE
8
Edge.Cuts
6
CONTINUOUS
10
86.4509149999999948
20
-104.4175339999999892
11
86.1950580000000031
21
-104.4860899999999901
0
LINE
8
Edge.Cuts
6
CONTINUOUS
10
86.1950580000000031
20
-104.4860899999999901
11
85.9324409999999972
21
-104.5206639999999965
0
LINE
8
Edge.Cuts
6
CONTINUOUS
10
85.9324409999999972
20
-104.5206639999999965
11
85.6675589999999971
21
-104.5206639999999965
0
LINE
8
Edge.Cuts
6
CONTINUOUS
10
85.6675589999999971
20
-104.5206639999999965
11
85.4049419999999913
21
-104.4860899999999901
0
LINE
8
Edge.Cuts
6
CONTINUOUS
10
85.4049419999999913
20
-104.4860899999999901
11
85.1490849999999995
21
-104.4175339999999892
0
LINE
8
Edge.Cuts
6
CONTINUOUS
10
85.1490849999999995
20
-104.4175339999999892
11
84.9043649999999985
21
-104.316166999999993
0
LINE
8
Edge.Cuts
6
CONTINUOUS
10
84.9043649999999985
20
-104.316166999999993
11
84.6749700000000018
21
-104.183725999999993
0
LINE
8
Edge.Cuts
6
CONTINUOUS
10
84.6749700000000018
20
-104.183725999999993
11
84.4648249999999905
21
-104.0224759999999975
0
LINE
8
Edge.Cuts
6
CONTINUOUS
10
84.4648249999999905
20
-104.0224759999999975
11
84.2775239999999997
21
-103.8351749999999925
0
LINE
8
Edge.Cuts
6
CONTINUOUS
10
84.2775239999999997
20
-103.8351749999999925
11
84.11627399999999
21
-103.6250299999999953
0
LINE
8
Edge.Cuts
6
CONTINUOUS
10
84.11627399999999
20
-103.6250299999999953
11
83.98383299999999
21
-103.3956349999999986
0
LINE
8
Edge.Cuts
6
CONTINUOUS
10
83.98383299999999
20
-103.3956349999999986
11
83.8824659999999938
21
-103.1509149999999977
0
LINE
8
Edge.Cuts
6
CONTINUOUS
10
83.8824659999999938
20
-103.1509149999999977
11
83.8139099999999928
21
-102.8950579999999917
0
LINE
8
Edge.Cuts
6
CONTINUOUS
10
83.8139099999999928
20
-102.8950579999999917
11
83.7793360000000007
21
-102.632441
0
LINE
8
Edge.Cuts
6
CONTINUOUS
10
83.7793360000000007
20
-102.632441
11
83.7793360000000007
21
-102.3705519999999893
0
LINE
8
Edge.Cuts
6
CONTINUOUS
10
83.7793360000000007
20
-102.3705519999999893
11
83.7793360000000007
21
-102.367559
0
LINE
8
Edge.Cuts
6
CONTINUOUS
10
83.7793360000000007
20
-102.367559
11
83.8139099999999928
21
-102.1049419999999941
0
LINE
8
Edge.Cuts
6
CONTINUOUS
10
83.8139099999999928
20
-102.1049419999999941
11
83.8824659999999938
21
-101.8490850000000023
0
LINE
8
Edge.Cuts
6
CONTINUOUS
10
83.8824659999999938
20
-101.8490850000000023
11
83.98383299999999
21
-101.6043650000000014
0
LINE
8
Edge.Cuts
6
CONTINUOUS
10
83.98383299999999
20
-101.6043650000000014
11
84.11627399999999
21
-101.3749699999999905
0
LINE
8
Edge.Cuts
6
CONTINUOUS
10
84.11627399999999
20
-101.3749699999999905
11
84.2775239999999997
21
-101.1648249999999933
0
LINE
8
Edge.Cuts
6
CONTINUOUS
10
84.2775239999999997
20
-101.1648249999999933
11
84.4648249999999905
21
-100.9775240000000025
0
LINE
8
Edge.Cuts
6
CONTINUOUS
10
84.4648249999999905
20
-100.9775240000000025
11
84.6749700000000018
21
-100.8162739999999928
0
LINE
8
Edge.Cuts
6
CONTINUOUS
10
84.6749700000000018
20
-100.8162739999999928
11
84.9043649999999985
21
-100.6838329999999928
0
LINE
8
Edge.Cuts
6
CONTINUOUS
10
84.9043649999999985
20
-100.6838329999999928
11
85.1490849999999995
21
-100.5824659999999966
0
LINE
8
Edge.Cuts
6
CONTINUOUS
10
85.1490849999999995
20
-100.5824659999999966
11
85.4049419999999913
21
-100.5139099999999956
0
LINE
8
Edge.Cuts
6
CONTINUOUS
10
85.4049419999999913
20
-100.5139099999999956
11
85.6675589999999971
21
-100.4793359999999893
0
LINE
8
Edge.Cuts
6
CONTINUOUS
10
85.6675589999999971
20
-100.4793359999999893
11
85.9324409999999972
21
-100.4793359999999893
0
LINE
8
Edge.Cuts
6
CONTINUOUS
10
85.9324409999999972
20
-100.4793359999999893
11
86.1950580000000031
21
-100.5139099999999956
0
LINE
8
Edge.Cuts
6
CONTINUOUS
10
83.8250000000000028
20
-102.6294479999999965
11
83.8587929999999915
21
-102.8861299999999943
0
LINE
8
Edge.Cuts
6
CONTINUOUS
10
83.8587929999999915
20
-102.8861299999999943
11
83.9257999999999953
21
-103.1362049999999897
0
LINE
8
Edge.Cuts
6
CONTINUOUS
10
83.9257999999999953
20
-103.1362049999999897
11
84.0248749999999944
21
-103.3753949999999975
0
LINE
8
Edge.Cuts
6
CONTINUOUS
10
84.0248749999999944
20
-103.3753949999999975
11
84.1543240000000026
21
-103.5996059999999943
0
LINE
8
Edge.Cuts
6
CONTINUOUS
10
84.1543240000000026
20
-103.5996059999999943
11
84.3119299999999896
21
-103.8050020000000018
0
LINE
8
Edge.Cuts
6
CONTINUOUS
10
84.3119299999999896
20
-103.8050020000000018
11
84.4949979999999954
21
-103.9880699999999933
0
LINE
8
Edge.Cuts
6
CONTINUOUS
10
84.4949979999999954
20
-103.9880699999999933
11
84.7003940000000028
21
-104.1456759999999946
0
LINE
8
Edge.Cuts
6
CONTINUOUS
10
84.7003940000000028
20
-104.1456759999999946
11
84.9246049999999997
21
-104.2751249999999885
0
LINE
8
Edge.Cuts
6
CONTINUOUS
10
84.9246049999999997
20
-104.2751249999999885
11
85.1637949999999933
21
-104.3742000000000019
0
LINE
8
Edge.Cuts
6
CONTINUOUS
10
85.1637949999999933
20
-104.3742000000000019
11
85.4138700000000028
21
-104.4412069999999915
0
LINE
8
Edge.Cuts
6
CONTINUOUS
10
85.4138700000000028
20
-104.4412069999999915
11
85.6705520000000007
21
-104.4749999999999943
0
LINE
8
Edge.Cuts
6
CONTINUOUS
10
85.6705520000000007
20
-104.4749999999999943
11
85.9294479999999936
21
-104.4749999999999943
0
LINE
8
Edge.Cuts
6
CONTINUOUS
10
85.9294479999999936
20
-104.4749999999999943
11
86.1861299999999915
21
-104.4412069999999915
0
LINE
8
Edge.Cuts
6
CONTINUOUS
10
86.1861299999999915
20
-104.4412069999999915
11
86.4362050000000011
21
-104.3742000000000019
0
LINE
8
Edge.Cuts
6
CONTINUOUS
10
86.4362050000000011
20
-104.3742000000000019
11
86.6753949999999946
21
-104.2751249999999885
0
LINE
8
Edge.Cuts
6
CONTINUOUS
10
86.6753949999999946
20
-104.2751249999999885
11
86.8996059999999915
21
-104.1456759999999946
0
LINE
8
Edge.Cuts
6
CONTINUOUS
10
86.8996059999999915
20
-104.1456759999999946
11
87.1050019999999989
21
-103.9880699999999933
0
LINE
8
Edge.Cuts
6
CONTINUOUS
10
87.1050019999999989
20
-103.9880699999999933
11
87.2880699999999905
21
-103.8050020000000018
0
LINE
8
Edge.Cuts
6
CONTINUOUS
10
87.2880699999999905
20
-103.8050020000000018
11
87.4456759999999917
21
-103.5996059999999943
0
LINE
8
Edge.Cuts
6
CONTINUOUS
10
87.4456759999999917
20
-103.5996059999999943
11
87.5751249999999999
21
-103.3753949999999975
0
LINE
8
Edge.Cuts
6
CONTINUOUS
10
87.5751249999999999
20
-103.3753949999999975
11
87.674199999999999
21
-103.1362049999999897
0
LINE
8
Edge.Cuts
6
CONTINUOUS
10
87.674199999999999
20
-103.1362049999999897
11
87.7412070000000028
21
-102.8861299999999943
0
LINE
8
Edge.Cuts
6
CONTINUOUS
10
87.7412070000000028
20
-102.8861299999999943
11
87.7749999999999915
21
-102.6294479999999965
0
LINE
8
Edge.Cuts
6
CONTINUOUS
10
87.7749999999999915
20
-102.6294479999999965
11
87.7749999999999915
21
-102.3705519999999893
0
LINE
8
Edge.Cuts
6
CONTINUOUS
10
87.7749999999999915
20
-102.3705519999999893
11
87.7412070000000028
21
-102.1138699999999915
0
LINE
8
Edge.Cuts
6
CONTINUOUS
10
87.7412070000000028
20
-102.1138699999999915
11
87.674199999999999
21
-101.8637949999999961
0
LINE
8
Edge.Cuts
6
CONTINUOUS
10
87.674199999999999
20
-101.8637949999999961
11
87.5751249999999999
21
-101.6246049999999883
0
LINE
8
Edge.Cuts
6
CONTINUOUS
10
87.5751249999999999
20
-101.6246049999999883
11
87.4456759999999917
21
-101.4003939999999915
0
LINE
8
Edge.Cuts
6
CONTINUOUS
10
87.4456759999999917
20
-101.4003939999999915
11
87.2880699999999905
21
-101.1949979999999982
0
LINE
8
Edge.Cuts
6
CONTINUOUS
10
87.2880699999999905
20
-101.1949979999999982
11
87.1050019999999989
21
-101.0119299999999924
0
LINE
8
Edge.Cuts
6
CONTINUOUS
10
87.1050019999999989
20
-101.0119299999999924
11
86.8996059999999915
21
-100.8543239999999912
0
LINE
8
Edge.Cuts
6
CONTINUOUS
10
86.8996059999999915
20
-100.8543239999999912
11
86.6753949999999946
21
-100.7248749999999973
0
LINE
8
Edge.Cuts
6
CONTINUOUS
10
86.6753949999999946
20
-100.7248749999999973
11
86.4362050000000011
21
-100.6257999999999981
0
LINE
8
Edge.Cuts
6
CONTINUOUS
10
86.4362050000000011
20
-100.6257999999999981
11
86.1861299999999915
21
-100.5587929999999943
0
LINE
8
Edge.Cuts
6
CONTINUOUS
10
86.1861299999999915
20
-100.5587929999999943
11
85.9294479999999936
21
-100.5249999999999915
0
LINE
8
Edge.Cuts
6
CONTINUOUS
10
85.9294479999999936
20
-100.5249999999999915
11
85.6705520000000007
21
-100.5249999999999915
0
LINE
8
Edge.Cuts
6
CONTINUOUS
10
85.6705520000000007
20
-100.5249999999999915
11
85.4138700000000028
21
-100.5587929999999943
0
LINE
8
Edge.Cuts
6
CONTINUOUS
10
85.4138700000000028
20
-100.5587929999999943
11
85.1637949999999933
21
-100.6257999999999981
0
LINE
8
Edge.Cuts
6
CONTINUOUS
10
85.1637949999999933
20
-100.6257999999999981
11
84.9246049999999997
21
-100.7248749999999973
0
LINE
8
Edge.Cuts
6
CONTINUOUS
10
84.9246049999999997
20
-100.7248749999999973
11
84.7003940000000028
21
-100.8543239999999912
0
LINE
8
Edge.Cuts
6
CONTINUOUS
10
84.7003940000000028
20
-100.8543239999999912
11
84.4949979999999954
21
-101.0119299999999924
0
LINE
8
Edge.Cuts
6
CONTINUOUS
10
84.4949979999999954
20
-101.0119299999999924
11
84.3119299999999896
21
-101.1949979999999982
0
LINE
8
Edge.Cuts
6
CONTINUOUS
10
84.3119299999999896
20
-101.1949979999999982
11
84.1543240000000026
21
-101.4003939999999915
0
LINE
8
Edge.Cuts
6
CONTINUOUS
10
84.1543240000000026
20
-101.4003939999999915
11
84.0248749999999944
21
-101.6246049999999883
0
LINE
8
Edge.Cuts
6
CONTINUOUS
10
84.0248749999999944
20
-101.6246049999999883
11
83.9257999999999953
21
-101.8637949999999961
0
LINE
8
Edge.Cuts
6
CONTINUOUS
10
83.9257999999999953
20
-101.8637949999999961
11
83.8587929999999915
21
-102.1138699999999915
0
LINE
8
Edge.Cuts
6
CONTINUOUS
10
83.8587929999999915
20
-102.1138699999999915
11
83.8250000000000028
21
-102.3705519999999893
0
LINE
8
Edge.Cuts
6
CONTINUOUS
10
83.8250000000000028
20
-102.3705519999999893
11
83.8250000000000028
21
-102.6294479999999965
0
LINE
8
Edge.Cuts
6
CONTINUOUS
10
124.118828999999991
20
-90.5068029999999908
11
124.374685999999997
21
-90.5753589999999917
0
LINE
8
Edge.Cuts
6
CONTINUOUS
10
124.374685999999997
20
-90.5753589999999917
11
124.6194059999999979
21
-90.6767260000000022
0
LINE
8
Edge.Cuts
6
CONTINUOUS
10
124.6194059999999979
20
-90.6767260000000022
11
124.8488009999999946
21
-90.8091670000000022
0
LINE
8
Edge.Cuts
6
CONTINUOUS
10
124.8488009999999946
20
-90.8091670000000022
11
125.0589459999999917
21
-90.9704169999999976
0
LINE
8
Edge.Cuts
6
CONTINUOUS
10
125.0589459999999917
20
-90.9704169999999976
11
125.2462469999999968
21
-91.1577180000000027
0
LINE
8
Edge.Cuts
6
CONTINUOUS
10
125.2462469999999968
20
-91.1577180000000027
11
125.4074969999999922
21
-91.3678629999999998
0
LINE
8
Edge.Cuts
6
CONTINUOUS
10
125.4074969999999922
20
-91.3678629999999998
11
125.5399379999999923
21
-91.5972579999999965
0
LINE
8
Edge.Cuts
6
CONTINUOUS
10
125.5399379999999923
20
-91.5972579999999965
11
125.6413049999999885
21
-91.8419779999999975
0
LINE
8
Edge.Cuts
6
CONTINUOUS
10
125.6413049999999885
20
-91.8419779999999975
11
125.7098609999999894
21
-92.0978349999999892
0
LINE
8
Edge.Cuts
6
CONTINUOUS
10
125.7098609999999894
20
-92.0978349999999892
11
125.7444349999999957
21
-92.3604519999999951
0
LINE
8
Edge.Cuts
6
CONTINUOUS
10
125.7444349999999957
20
-92.3604519999999951
11
125.7444349999999957
21
-92.6253339999999952
0
LINE
8
Edge.Cuts
6
CONTINUOUS
10
125.7444349999999957
20
-92.6253339999999952
11
125.7098609999999894
21
-92.887951000000001
0
LINE
8
Edge.Cuts
6
CONTINUOUS
10
125.7098609999999894
20
-92.887951000000001
11
125.6413049999999885
21
-93.1438079999999928
0
LINE
8
Edge.Cuts
6
CONTINUOUS
10
125.6413049999999885
20
-93.1438079999999928
11
125.5399379999999923
21
-93.3885279999999938
0
LINE
8
Edge.Cuts
6
CONTINUOUS
10
125.5399379999999923
20
-93.3885279999999938
11
125.4074969999999922
21
-93.6179229999999905
0
LINE
8
Edge.Cuts
6
CONTINUOUS
10
125.4074969999999922
20
-93.6179229999999905
11
125.2462469999999968
21
-93.8280680000000018
0
LINE
8
Edge.Cuts
6
CONTINUOUS
10
125.2462469999999968
20
-93.8280680000000018
11
125.0589459999999917
21
-94.0153689999999926
0
LINE
8
Edge.Cuts
6
CONTINUOUS
10
125.0589459999999917
20
-94.0153689999999926
11
124.8488009999999946
21
-94.1766190000000023
0
LINE
8
Edge.Cuts
6
CONTINUOUS
10
124.8488009999999946
20
-94.1766190000000023
11
124.6194059999999979
21
-94.3090600000000023
0
LINE
8
Edge.Cuts
6
CONTINUOUS
10
124.6194059999999979
20
-94.3090600000000023
11
124.374685999999997
21
-94.4104269999999985
0
LINE
8
Edge.Cuts
6
CONTINUOUS
10
124.374685999999997
20
-94.4104269999999985
11
124.118828999999991
21
-94.4789829999999995
0
LINE
8
Edge.Cuts
6
CONTINUOUS
10
124.118828999999991
20
-94.4789829999999995
11
123.8562119999999993
21
-94.5135569999999916
0
LINE
8
Edge.Cuts
6
CONTINUOUS
10
123.8562119999999993
20
-94.5135569999999916
11
123.5913299999999992
21
-94.5135569999999916
0
LINE
8
Edge.Cuts
6
CONTINUOUS
10
123.5913299999999992
20
-94.5135569999999916
11
123.3287129999999934
21
-94.4789829999999995
0
LINE
8
Edge.Cuts
6
CONTINUOUS
10
123.3287129999999934
20
-94.4789829999999995
11
123.0728559999999874
21
-94.4104269999999985
0
LINE
8
Edge.Cuts
6
CONTINUOUS
10
123.0728559999999874
20
-94.4104269999999985
11
122.8281360000000006
21
-94.3090600000000023
0
LINE
8
Edge.Cuts
6
CONTINUOUS
10
122.8281360000000006
20
-94.3090600000000023
11
122.5987409999999898
21
-94.1766190000000023
0
LINE
8
Edge.Cuts
6
CONTINUOUS
10
122.5987409999999898
20
-94.1766190000000023
11
122.3885959999999926
21
-94.0153689999999926
0
LINE
8
Edge.Cuts
6
CONTINUOUS
10
122.3885959999999926
20
-94.0153689999999926
11
122.2012949999999876
21
-93.8280680000000018
0
LINE
8
Edge.Cuts
6
CONTINUOUS
10
122.2012949999999876
20
-93.8280680000000018
11
122.0400449999999921
21
-93.6179229999999905
0
LINE
8
Edge.Cuts
6
CONTINUOUS
10
122.0400449999999921
20
-93.6179229999999905
11
121.9076039999999921
21
-93.3885279999999938
0
LINE
8
Edge.Cuts
6
CONTINUOUS
10
121.9076039999999921
20
-93.3885279999999938
11
121.8062369999999959
21
-93.1438079999999928
0
LINE
8
Edge.Cuts
6
CONTINUOUS
10
121.8062369999999959
20
-93.1438079999999928
11
121.7376809999999949
21
-92.887951000000001
0
LINE
8
Edge.Cuts
6
CONTINUOUS
10
121.7376809999999949
20
-92.887951000000001
11
121.7031069999999886
21
-92.6253339999999952
0
LINE
8
Edge.Cuts
6
CONTINUOUS
10
121.7031069999999886
20
-92.6253339999999952
11
121.7031069999999886
21
-92.3634449999999987
0
LINE
8
Edge.Cuts
6
CONTINUOUS
10
121.7031069999999886
20
-92.3634449999999987
11
121.7031069999999886
21
-92.3604519999999951
0
LINE
8
Edge.Cuts
6
CONTINUOUS
10
121.7031069999999886
20
-92.3604519999999951
11
121.7376809999999949
21
-92.0978349999999892
0
LINE
8
Edge.Cuts
6
CONTINUOUS
10
121.7376809999999949
20
-92.0978349999999892
11
121.8062369999999959
21
-91.8419779999999975
0
LINE
8
Edge.Cuts
6
CONTINUOUS
10
121.8062369999999959
20
-91.8419779999999975
11
121.9076039999999921
21
-91.5972579999999965
0
LINE
8
Edge.Cuts
6
CONTINUOUS
10
121.9076039999999921
20
-91.5972579999999965
11
122.0400449999999921
21
-91.3678629999999998
0
LINE
8
Edge.Cuts
6
CONTINUOUS
10
122.0400449999999921
20
-91.3678629999999998
11
122.2012949999999876
21
-91.1577180000000027
0
LINE
8
Edge.Cuts
6
CONTINUOUS
10
122.2012949999999876
20
-91.1577180000000027
11
122.3885959999999926
21
-90.9704169999999976
0
LINE
8
Edge.Cuts
6
CONTINUOUS
10
122.3885959999999926
20
-90.9704169999999976
11
122.5987409999999898
21
-90.8091670000000022
0
LINE
8
Edge.Cuts
6
CONTINUOUS
10
122.5987409999999898
20
-90.8091670000000022
11
122.8281360000000006
21
-90.6767260000000022
0
LINE
8
Edge.Cuts
6
CONTINUOUS
10
122.8281360000000006
20
-90.6767260000000022
11
123.0728559999999874
21
-90.5753589999999917
0
LINE
8
Edge.Cuts
6
CONTINUOUS
10
123.0728559999999874
20
-90.5753589999999917
11
123.3287129999999934
21
-90.5068029999999908
0
LINE
8
Edge.Cuts
6
CONTINUOUS
10
123.3287129999999934
20
-90.5068029999999908
11
123.5913299999999992
21
-90.4722289999999987
0
LINE
8
Edge.Cuts
6
CONTINUOUS
10
123.5913299999999992
20
-90.4722289999999987
11
123.8562119999999993
21
-90.4722289999999987
0
LINE
8
Edge.Cuts
6
CONTINUOUS
10
123.8562119999999993
20
-90.4722289999999987
11
124.118828999999991
21
-90.5068029999999908
0
LINE
8
Edge.Cuts
6
CONTINUOUS
10
121.7487709999999907
20
-92.6223409999999916
11
121.7825639999999936
21
-92.8790229999999895
0
LINE
8
Edge.Cuts
6
CONTINUOUS
10
121.7825639999999936
20
-92.8790229999999895
11
121.8495709999999974
21
-93.129097999999999
0
LINE
8
Edge.Cuts
6
CONTINUOUS
10
121.8495709999999974
20
-93.129097999999999
11
121.9486459999999965
21
-93.3682879999999926
0
LINE
8
Edge.Cuts
6
CONTINUOUS
10
121.9486459999999965
20
-93.3682879999999926
11
122.0780949999999905
21
-93.5924989999999895
0
LINE
8
Edge.Cuts
6
CONTINUOUS
10
122.0780949999999905
20
-93.5924989999999895
11
122.2357009999999917
21
-93.7978949999999969
0
LINE
8
Edge.Cuts
6
CONTINUOUS
10
122.2357009999999917
20
-93.7978949999999969
11
122.4187689999999975
21
-93.9809630000000027
0
LINE
8
Edge.Cuts
6
CONTINUOUS
10
122.4187689999999975
20
-93.9809630000000027
11
122.6241649999999908
21
-94.1385689999999897
0
LINE
8
Edge.Cuts
6
CONTINUOUS
10
122.6241649999999908
20
-94.1385689999999897
11
122.8483759999999876
21
-94.2680179999999979
0
LINE
8
Edge.Cuts
6
CONTINUOUS
10
122.8483759999999876
20
-94.2680179999999979
11
123.0875659999999954
21
-94.367092999999997
0
LINE
8
Edge.Cuts
6
CONTINUOUS
10
123.0875659999999954
20
-94.367092999999997
11
123.3376409999999908
21
-94.4341000000000008
0
LINE
8
Edge.Cuts
6
CONTINUOUS
10
123.3376409999999908
20
-94.4341000000000008
11
123.5943229999999886
21
-94.4678929999999895
0
LINE
8
Edge.Cuts
6
CONTINUOUS
10
123.5943229999999886
20
-94.4678929999999895
11
123.8532189999999957
21
-94.4678929999999895
0
LINE
8
Edge.Cuts
6
CONTINUOUS
10
123.8532189999999957
20
-94.4678929999999895
11
124.1099009999999936
21
-94.4341000000000008
0
LINE
8
Edge.Cuts
6
CONTINUOUS
10
124.1099009999999936
20
-94.4341000000000008
11
124.359975999999989
21
-94.367092999999997
0
LINE
8
Edge.Cuts
6
CONTINUOUS
10
124.359975999999989
20
-94.367092999999997
11
124.5991659999999968
21
-94.2680179999999979
0
LINE
8
Edge.Cuts
6
CONTINUOUS
10
124.5991659999999968
20
-94.2680179999999979
11
124.8233769999999936
21
-94.1385689999999897
0
LINE
8
Edge.Cuts
6
CONTINUOUS
10
124.8233769999999936
20
-94.1385689999999897
11
125.028773000000001
21
-93.9809630000000027
0
LINE
8
Edge.Cuts
6
CONTINUOUS
10
125.028773000000001
20
-93.9809630000000027
11
125.2118409999999926
21
-93.7978949999999969
0
LINE
8
Edge.Cuts
6
CONTINUOUS
10
125.2118409999999926
20
-93.7978949999999969
11
125.3694469999999939
21
-93.5924989999999895
0
LINE
8
Edge.Cuts
6
CONTINUOUS
10
125.3694469999999939
20
-93.5924989999999895
11
125.4988959999999878
21
-93.3682879999999926
0
LINE
8
Edge.Cuts
6
CONTINUOUS
10
125.4988959999999878
20
-93.3682879999999926
11
125.5979710000000011
21
-93.129097999999999
0
LINE
8
Edge.Cuts
6
CONTINUOUS
10
125.5979710000000011
20
-93.129097999999999
11
125.6649779999999907
21
-92.8790229999999895
0
LINE
8
Edge.Cuts
6
CONTINUOUS
10
125.6649779999999907
20
-92.8790229999999895
11
125.6987709999999936
21
-92.6223409999999916
0
LINE
8
Edge.Cuts
6
CONTINUOUS
10
125.6987709999999936
20
-92.6223409999999916
11
125.6987709999999936
21
-92.3634449999999987
0
LINE
8
Edge.Cuts
6
CONTINUOUS
10
125.6987709999999936
20
-92.3634449999999987
11
125.6649779999999907
21
-92.1067630000000008
0
LINE
8
Edge.Cuts
6
CONTINUOUS
10
125.6649779999999907
20
-92.1067630000000008
11
125.5979710000000011
21
-91.8566879999999912
0
LINE
8
Edge.Cuts
6
CONTINUOUS
10
125.5979710000000011
20
-91.8566879999999912
11
125.4988959999999878
21
-91.6174979999999977
0
LINE
8
Edge.Cuts
6
CONTINUOUS
10
125.4988959999999878
20
-91.6174979999999977
11
125.3694469999999939
21
-91.3932870000000008
0
LINE
8
Edge.Cuts
6
CONTINUOUS
10
125.3694469999999939
20
-91.3932870000000008
11
125.2118409999999926
21
-91.1878909999999934
0
LINE
8
Edge.Cuts
6
CONTINUOUS
10
125.2118409999999926
20
-91.1878909999999934
11
125.028773000000001
21
-91.0048230000000018
0
LINE
8
Edge.Cuts
6
CONTINUOUS
10
125.028773000000001
20
-91.0048230000000018
11
124.8233769999999936
21
-90.8472170000000006
0
LINE
8
Edge.Cuts
6
CONTINUOUS
10
124.8233769999999936
20
-90.8472170000000006
11
124.5991659999999968
21
-90.7177679999999924
0
LINE
8
Edge.Cuts
6
CONTINUOUS
10
124.5991659999999968
20
-90.7177679999999924
11
124.359975999999989
21
-90.6186929999999933
0
LINE
8
Edge.Cuts
6
CONTINUOUS
10
124.359975999999989
20
-90.6186929999999933
11
124.1099009999999936
21
-90.5516859999999895
0
LINE
8
Edge.Cuts
6
CONTINUOUS
10
124.1099009999999936
20
-90.5516859999999895
11
123.8532189999999957
21
-90.5178930000000008
0
LINE
8
Edge.Cuts
6
CONTINUOUS
10
123.8532189999999957
20
-90.5178930000000008
11
123.5943229999999886
21
-90.5178930000000008
0
LINE
8
Edge.Cuts
6
CONTINUOUS
10
123.5943229999999886
20
-90.5178930000000008
11
123.3376409999999908
21
-90.5516859999999895
0
LINE
8
Edge.Cuts
6
CONTINUOUS
10
123.3376409999999908
20
-90.5516859999999895
11
123.0875659999999954
21
-90.6186929999999933
0
LINE
8
Edge.Cuts
6
CONTINUOUS
10
123.0875659999999954
20
-90.6186929999999933
11
122.8483759999999876
21
-90.7177679999999924
0
LINE
8
Edge.Cuts
6
CONTINUOUS
10
122.8483759999999876
20
-90.7177679999999924
11
122.6241649999999908
21
-90.8472170000000006
0
LINE
8
Edge.Cuts
6
CONTINUOUS
10
122.6241649999999908
20
-90.8472170000000006
11
122.4187689999999975
21
-91.0048230000000018
0
LINE
8
Edge.Cuts
6
CONTINUOUS
10
122.4187689999999975
20
-91.0048230000000018
11
122.2357009999999917
21
-91.1878909999999934
0
LINE
8
Edge.Cuts
6
CONTINUOUS
10
122.2357009999999917
20
-91.1878909999999934
11
122.0780949999999905
21
-91.3932870000000008
0
LINE
8
Edge.Cuts
6
CONTINUOUS
10
122.0780949999999905
20
-91.3932870000000008
11
121.9486459999999965
21
-91.6174979999999977
0
LINE
8
Edge.Cuts
6
CONTINUOUS
10
121.9486459999999965
20
-91.6174979999999977
11
121.8495709999999974
21
-91.8566879999999912
0
LINE
8
Edge.Cuts
6
CONTINUOUS
10
121.8495709999999974
20
-91.8566879999999912
11
121.7825639999999936
21
-92.1067630000000008
0
LINE
8
Edge.Cuts
6
CONTINUOUS
10
121.7825639999999936
20
-92.1067630000000008
11
121.7487709999999907
21
-92.3634449999999987
0
LINE
8
Edge.Cuts
6
CONTINUOUS
10
121.7487709999999907
20
-92.3634449999999987
11
121.7487709999999907
21
-92.6223409999999916
0
LINE
8
Edge.Cuts
6
CONTINUOUS
10
67.5950579999999945
20
-87.11390999999999
11
67.8509150000000005
21
-87.1824659999999909
0
LINE
8
Edge.Cuts
6
CONTINUOUS
10
67.8509150000000005
20
-87.1824659999999909
11
68.0956350000000015
21
-87.2838330000000013
0
LINE
8
Edge.Cuts
6
CONTINUOUS
10
68.0956350000000015
20
-87.2838330000000013
11
68.3250299999999982
21
-87.4162740000000014
0
LINE
8
Edge.Cuts
6
CONTINUOUS
10
68.3250299999999982
20
-87.4162740000000014
11
68.5351749999999953
21
-87.5775239999999968
0
LINE
8
Edge.Cuts
6
CONTINUOUS
10
68.5351749999999953
20
-87.5775239999999968
11
68.7224760000000003
21
-87.7648250000000019
0
LINE
8
Edge.Cuts
6
CONTINUOUS
10
68.7224760000000003
20
-87.7648250000000019
11
68.8837259999999958
21
-87.974969999999999
0
LINE
8
Edge.Cuts
6
CONTINUOUS
10
68.8837259999999958
20
-87.974969999999999
11
69.0161669999999958
21
-88.2043649999999957
0
LINE
8
Edge.Cuts
6
CONTINUOUS
10
69.0161669999999958
20
-88.2043649999999957
11
69.117533999999992
21
-88.4490849999999966
0
LINE
8
Edge.Cuts
6
CONTINUOUS
10
69.117533999999992
20
-88.4490849999999966
11
69.186089999999993
21
-88.7049420000000026
0
LINE
8
Edge.Cuts
6
CONTINUOUS
10
69.186089999999993
20
-88.7049420000000026
11
69.2206639999999993
21
-88.9675589999999943
0
LINE
8
Edge.Cuts
6
CONTINUOUS
10
69.2206639999999993
20
-88.9675589999999943
11
69.2206639999999993
21
-89.2324409999999943
0
LINE
8
Edge.Cuts
6
CONTINUOUS
10
69.2206639999999993
20
-89.2324409999999943
11
69.186089999999993
21
-89.4950580000000002
0
LINE
8
Edge.Cuts
6
CONTINUOUS
10
69.186089999999993
20
-89.4950580000000002
11
69.117533999999992
21
-89.750914999999992
0
LINE
8
Edge.Cuts
6
CONTINUOUS
10
69.117533999999992
20
-89.750914999999992
11
69.0161669999999958
21
-89.9956349999999929
0
LINE
8
Edge.Cuts
6
CONTINUOUS
10
69.0161669999999958
20
-89.9956349999999929
11
68.8837259999999958
21
-90.2250299999999896
0
LINE
8
Edge.Cuts
6
CONTINUOUS
10
68.8837259999999958
20
-90.2250299999999896
11
68.7224760000000003
21
-90.435175000000001
0
LINE
8
Edge.Cuts
6
CONTINUOUS
10
68.7224760000000003
20
-90.435175000000001
11
68.5351749999999953
21
-90.6224759999999918
0
LINE
8
Edge.Cuts
6
CONTINUOUS
10
68.5351749999999953
20
-90.6224759999999918
11
68.3250299999999982
21
-90.7837260000000015
0
LINE
8
Edge.Cuts
6
CONTINUOUS
10
68.3250299999999982
20
-90.7837260000000015
11
68.0956350000000015
21
-90.9161670000000015
0
LINE
8
Edge.Cuts
6
CONTINUOUS
10
68.0956350000000015
20
-90.9161670000000015
11
67.8509150000000005
21
-91.0175339999999977
0
LINE
8
Edge.Cuts
6
CONTINUOUS
10
67.8509150000000005
20
-91.0175339999999977
11
67.5950579999999945
21
-91.0860899999999987
0
LINE
8
Edge.Cuts
6
CONTINUOUS
10
67.5950579999999945
20
-91.0860899999999987
11
67.3324410000000029
21
-91.1206639999999908
0
LINE
8
Edge.Cuts
6
CONTINUOUS
10
67.3324410000000029
20
-91.1206639999999908
11
67.0675590000000028
21
-91.1206639999999908
0
LINE
8
Edge.Cuts
6
CONTINUOUS
10
67.0675590000000028
20
-91.1206639999999908
11
66.8049419999999969
21
-91.0860899999999987
0
LINE
8
Edge.Cuts
6
CONTINUOUS
10
66.8049419999999969
20
-91.0860899999999987
11
66.5490849999999909
21
-91.0175339999999977
0
LINE
8
Edge.Cuts
6
CONTINUOUS
10
66.5490849999999909
20
-91.0175339999999977
11
66.30436499999999
21
-90.9161670000000015
0
LINE
8
Edge.Cuts
6
CONTINUOUS
10
66.30436499999999
20
-90.9161670000000015
11
66.0749699999999933
21
-90.7837260000000015
0
LINE
8
Edge.Cuts
6
CONTINUOUS
10
66.0749699999999933
20
-90.7837260000000015
11
65.8648249999999962
21
-90.6224759999999918
0
LINE
8
Edge.Cuts
6
CONTINUOUS
10
65.8648249999999962
20
-90.6224759999999918
11
65.6775239999999911
21
-90.435175000000001
0
LINE
8
Edge.Cuts
6
CONTINUOUS
10
65.6775239999999911
20
-90.435175000000001
11
65.5162739999999957
21
-90.2250299999999896
0
LINE
8
Edge.Cuts
6
CONTINUOUS
10
65.5162739999999957
20
-90.2250299999999896
11
65.3838329999999956
21
-89.9956349999999929
0
LINE
8
Edge.Cuts
6
CONTINUOUS
10
65.3838329999999956
20
-89.9956349999999929
11
65.2824659999999994
21
-89.750914999999992
0
LINE
8
Edge.Cuts
6
CONTINUOUS
10
65.2824659999999994
20
-89.750914999999992
11
65.2139099999999985
21
-89.4950580000000002
0
LINE
8
Edge.Cuts
6
CONTINUOUS
10
65.2139099999999985
20
-89.4950580000000002
11
65.1793359999999922
21
-89.2324409999999943
0
LINE
8
Edge.Cuts
6
CONTINUOUS
10
65.1793359999999922
20
-89.2324409999999943
11
65.1793359999999922
21
-88.9705519999999979
0
LINE
8
Edge.Cuts
6
CONTINUOUS
10
65.1793359999999922
20
-88.9705519999999979
11
65.1793359999999922
21
-88.9675589999999943
0
LINE
8
Edge.Cuts
6
CONTINUOUS
10
65.1793359999999922
20
-88.9675589999999943
11
65.2139099999999985
21
-88.7049420000000026
0
LINE
8
Edge.Cuts
6
CONTINUOUS
10
65.2139099999999985
20
-88.7049420000000026
11
65.2824659999999994
21
-88.4490849999999966
0
LINE
8
Edge.Cuts
6
CONTINUOUS
10
65.2824659999999994
20
-88.4490849999999966
11
65.3838329999999956
21
-88.2043649999999957
0
LINE
8
Edge.Cuts
6
CONTINUOUS
10
65.3838329999999956
20
-88.2043649999999957
11
65.5162739999999957
21
-87.974969999999999
0
LINE
8
Edge.Cuts
6
CONTINUOUS
10
65.5162739999999957
20
-87.974969999999999
11
65.6775239999999911
21
-87.7648250000000019
0
LINE
8
Edge.Cuts
6
CONTINUOUS
10
65.6775239999999911
20
-87.7648250000000019
11
65.8648249999999962
21
-87.5775239999999968
0
LINE
8
Edge.Cuts
6
CONTINUOUS
10
65.8648249999999962
20
-87.5775239999999968
11
66.0749699999999933
21
-87.4162740000000014
0
LINE
8
Edge.Cuts
6
CONTINUOUS
10
66.0749699999999933
20
-87.4162740000000014
11
66.30436499999999
21
-87.2838330000000013
0
LINE
8
Edge.Cuts
6
CONTINUOUS
10
66.30436499999999
20
-87.2838330000000013
11
66.5490849999999909
21
-87.1824659999999909
0
LINE
8
Edge.Cuts
6
CONTINUOUS
10
66.5490849999999909
20
-87.1824659999999909
11
66.8049419999999969
21
-87.11390999999999
0
LINE
8
Edge.Cuts
6
CONTINUOUS
10
66.8049419999999969
20
-87.11390999999999
11
67.0675590000000028
21
-87.0793359999999979
0
LINE
8
Edge.Cuts
6
CONTINUOUS
10
67.0675590000000028
20
-87.0793359999999979
11
67.3324410000000029
21
-87.0793359999999979
0
LINE
8
Edge.Cuts
6
CONTINUOUS
10
67.3324410000000029
20
-87.0793359999999979
11
67.5950579999999945
21
-87.11390999999999
0
LINE
8
Edge.Cuts
6
CONTINUOUS
10
65.2249999999999943
20
-89.2294479999999908
11
65.2587929999999972
21
-89.4861300000000028
0
LINE
8
Edge.Cuts
6
CONTINUOUS
10
65.2587929999999972
20
-89.4861300000000028
11
65.325800000000001
21
-89.7362049999999982
0
LINE
8
Edge.Cuts
6
CONTINUOUS
10
65.325800000000001
20
-89.7362049999999982
11
65.4248750000000001
21
-89.9753949999999918
0
LINE
8
Edge.Cuts
6
CONTINUOUS
10
65.4248750000000001
20
-89.9753949999999918
11
65.554323999999994
21
-90.1996060000000028
0
LINE
8
Edge.Cuts
6
CONTINUOUS
10
65.554323999999994
20
-90.1996060000000028
11
65.7119299999999953
21
-90.4050019999999961
0
LINE
8
Edge.Cuts
6
CONTINUOUS
10
65.7119299999999953
20
-90.4050019999999961
11
65.8949980000000011
21
-90.5880700000000019
0
LINE
8
Edge.Cuts
6
CONTINUOUS
10
65.8949980000000011
20
-90.5880700000000019
11
66.1003939999999943
21
-90.7456759999999889
0
LINE
8
Edge.Cuts
6
CONTINUOUS
10
66.1003939999999943
20
-90.7456759999999889
11
66.3246049999999912
21
-90.875124999999997
0
LINE
8
Edge.Cuts
6
CONTINUOUS
10
66.3246049999999912
20
-90.875124999999997
11
66.5637949999999989
21
-90.9741999999999962
0
LINE
8
Edge.Cuts
6
CONTINUOUS
10
66.5637949999999989
20
-90.9741999999999962
11
66.8138699999999943
21
-91.041207
0
LINE
8
Edge.Cuts
6
CONTINUOUS
10
66.8138699999999943
20
-91.041207
11
67.0705519999999922
21
-91.0750000000000028
0
LINE
8
Edge.Cuts
6
CONTINUOUS
10
67.0705519999999922
20
-91.0750000000000028
11
67.3294479999999993
21
-91.0750000000000028
0
LINE
8
Edge.Cuts
6
CONTINUOUS
10
67.3294479999999993
20
-91.0750000000000028
11
67.5861299999999972
21
-91.041207
0
LINE
8
Edge.Cuts
6
CONTINUOUS
10
67.5861299999999972
20
-91.041207
11
67.8362049999999925
21
-90.9741999999999962
0
LINE
8
Edge.Cuts
6
CONTINUOUS
10
67.8362049999999925
20
-90.9741999999999962
11
68.0753950000000003
21
-90.875124999999997
0
LINE
8
Edge.Cuts
6
CONTINUOUS
10
68.0753950000000003
20
-90.875124999999997
11
68.2996059999999972
21
-90.7456759999999889
0
LINE
8
Edge.Cuts
6
CONTINUOUS
10
68.2996059999999972
20
-90.7456759999999889
11
68.5050019999999904
21
-90.5880700000000019
0
LINE
8
Edge.Cuts
6
CONTINUOUS
10
68.5050019999999904
20
-90.5880700000000019
11
68.6880699999999962
21
-90.4050019999999961
0
LINE
8
Edge.Cuts
6
CONTINUOUS
10
68.6880699999999962
20
-90.4050019999999961
11
68.8456759999999974
21
-90.1996060000000028
0
LINE
8
Edge.Cuts
6
CONTINUOUS
10
68.8456759999999974
20
-90.1996060000000028
11
68.9751249999999914
21
-89.9753949999999918
0
LINE
8
Edge.Cuts
6
CONTINUOUS
10
68.9751249999999914
20
-89.9753949999999918
11
69.0741999999999905
21
-89.7362049999999982
0
LINE
8
Edge.Cuts
6
CONTINUOUS
10
69.0741999999999905
20
-89.7362049999999982
11
69.1412069999999943
21
-89.4861300000000028
0
LINE
8
Edge.Cuts
6
CONTINUOUS
10
69.1412069999999943
20
-89.4861300000000028
11
69.1749999999999972
21
-89.2294479999999908
0
LINE
8
Edge.Cuts
6
CONTINUOUS
10
69.1749999999999972
20
-89.2294479999999908
11
69.1749999999999972
21
-88.9705519999999979
0
LINE
8
Edge.Cuts
6
CONTINUOUS
10
69.1749999999999972
20
-88.9705519999999979
11
69.1412069999999943
21
-88.71387
0
LINE
8
Edge.Cuts
6
CONTINUOUS
10
69.1412069999999943
20
-88.71387
11
69.0741999999999905
21
-88.4637949999999904
0
LINE
8
Edge.Cuts
6
CONTINUOUS
10
69.0741999999999905
20
-88.4637949999999904
11
68.9751249999999914
21
-88.2246049999999968
0
LINE
8
Edge.Cuts
6
CONTINUOUS
10
68.9751249999999914
20
-88.2246049999999968
11
68.8456759999999974
21
-88.000394
0
LINE
8
Edge.Cuts
6
CONTINUOUS
10
68.8456759999999974
20
-88.000394
11
68.6880699999999962
21
-87.7949979999999925
0
LINE
8
Edge.Cuts
6
CONTINUOUS
10
68.6880699999999962
20
-87.7949979999999925
11
68.5050019999999904
21
-87.611930000000001
0
LINE
8
Edge.Cuts
6
CONTINUOUS
10
68.5050019999999904
20
-87.611930000000001
11
68.2996059999999972
21
-87.4543239999999997
0
LINE
8
Edge.Cuts
6
CONTINUOUS
10
68.2996059999999972
20
-87.4543239999999997
11
68.0753950000000003
21
-87.3248749999999916
0
LINE
8
Edge.Cuts
6
CONTINUOUS
10
68.0753950000000003
20
-87.3248749999999916
11
67.8362049999999925
21
-87.2257999999999925
0
LINE
8
Edge.Cuts
6
CONTINUOUS
10
67.8362049999999925
20
-87.2257999999999925
11
67.5861299999999972
21
-87.1587930000000028
0
LINE
8
Edge.Cuts
6
CONTINUOUS
10
67.5861299999999972
20
-87.1587930000000028
11
67.3294479999999993
21
-87.125
0
LINE
8
Edge.Cuts
6
CONTINUOUS
10
67.3294479999999993
20
-87.125
11
67.0705519999999922
21
-87.125
0
LINE
8
Edge.Cuts
6
CONTINUOUS
10
67.0705519999999922
20
-87.125
11
66.8138699999999943
21
-87.1587930000000028
0
LINE
8
Edge.Cuts
6
CONTINUOUS
10
66.8138699999999943
20
-87.1587930000000028
11
66.5637949999999989
21
-87.2257999999999925
0
LINE
8
Edge.Cuts
6
CONTINUOUS
10
66.5637949999999989
20
-87.2257999999999925
11
66.3246049999999912
21
-87.3248749999999916
0
LINE
8
Edge.Cuts
6
CONTINUOUS
10
66.3246049999999912
20
-87.3248749999999916
11
66.1003939999999943
21
-87.4543239999999997
0
LINE
8
Edge.Cuts
6
CONTINUOUS
10
66.1003939999999943
20
-87.4543239999999997
11
65.8949980000000011
21
-87.611930000000001
0
LINE
8
Edge.Cuts
6
CONTINUOUS
10
65.8949980000000011
20
-87.611930000000001
11
65.7119299999999953
21
-87.7949979999999925
0
LINE
8
Edge.Cuts
6
CONTINUOUS
10
65.7119299999999953
20
-87.7949979999999925
11
65.554323999999994
21
-88.000394
0
LINE
8
Edge.Cuts
6
CONTINUOUS
10
65.554323999999994
20
-88.000394
11
65.4248750000000001
21
-88.2246049999999968
0
LINE
8
Edge.Cuts
6
CONTINUOUS
10
65.4248750000000001
20
-88.2246049999999968
11
65.325800000000001
21
-88.4637949999999904
0
LINE
8
Edge.Cuts
6
CONTINUOUS
10
65.325800000000001
20
-88.4637949999999904
11
65.2587929999999972
21
-88.71387
0
LINE
8
Edge.Cuts
6
CONTINUOUS
10
65.2587929999999972
20
-88.71387
11
65.2249999999999943
21
-88.9705519999999979
0
LINE
8
Edge.Cuts
6
CONTINUOUS
10
65.2249999999999943
20
-88.9705519999999979
11
65.2249999999999943
21
-89.2294479999999908
0
LINE
8
Edge.Cuts
6
CONTINUOUS
10
124.3950579999999917
20
-70.7139099999999985
11
124.6509149999999977
21
-70.7824659999999994
0
LINE
8
Edge.Cuts
6
CONTINUOUS
10
124.6509149999999977
20
-70.7824659999999994
11
124.8956349999999986
21
-70.8838329999999956
0
LINE
8
Edge.Cuts
6
CONTINUOUS
10
124.8956349999999986
20
-70.8838329999999956
11
125.1250299999999953
21
-71.0162739999999957
0
LINE
8
Edge.Cuts
6
CONTINUOUS
10
125.1250299999999953
20
-71.0162739999999957
11
125.3351749999999925
21
-71.1775239999999911
0
LINE
8
Edge.Cuts
6
CONTINUOUS
10
125.3351749999999925
20
-71.1775239999999911
11
125.5224759999999975
21
-71.3648249999999962
0
LINE
8
Edge.Cuts
6
CONTINUOUS
10
125.5224759999999975
20
-71.3648249999999962
11
125.683725999999993
21
-71.5749699999999933
0
LINE
8
Edge.Cuts
6
CONTINUOUS
10
125.683725999999993
20
-71.5749699999999933
11
125.816166999999993
21
-71.80436499999999
0
LINE
8
Edge.Cuts
6
CONTINUOUS
10
125.816166999999993
20
-71.80436499999999
11
125.9175339999999892
21
-72.0490849999999909
0
LINE
8
Edge.Cuts
6
CONTINUOUS
10
125.9175339999999892
20
-72.0490849999999909
11
125.9860899999999901
21
-72.3049419999999969
0
LINE
8
Edge.Cuts
6
CONTINUOUS
10
125.9860899999999901
20
-72.3049419999999969
11
126.0206639999999965
21
-72.5675590000000028
0
LINE
8
Edge.Cuts
6
CONTINUOUS
10
126.0206639999999965
20
-72.5675590000000028
11
126.0206639999999965
21
-72.8324410000000029
0
LINE
8
Edge.Cuts
6
CONTINUOUS
10
126.0206639999999965
20
-72.8324410000000029
11
125.9860899999999901
21
-73.0950579999999945
0
LINE
8
Edge.Cuts
6
CONTINUOUS
10
125.9860899999999901
20
-73.0950579999999945
11
125.9175339999999892
21
-73.3509150000000005
0
LINE
8
Edge.Cuts
6
CONTINUOUS
10
125.9175339999999892
20
-73.3509150000000005
11
125.816166999999993
21
-73.5956350000000015
0
LINE
8
Edge.Cuts
6
CONTINUOUS
10
125.816166999999993
20
-73.5956350000000015
11
125.683725999999993
21
-73.8250299999999982
0
LINE
8
Edge.Cuts
6
CONTINUOUS
10
125.683725999999993
20
-73.8250299999999982
11
125.5224759999999975
21
-74.0351749999999953
0
LINE
8
Edge.Cuts
6
CONTINUOUS
10
125.5224759999999975
20
-74.0351749999999953
11
125.3351749999999925
21
-74.2224760000000003
0
LINE
8
Edge.Cuts
6
CONTINUOUS
10
125.3351749999999925
20
-74.2224760000000003
11
125.1250299999999953
21
-74.3837259999999958
0
LINE
8
Edge.Cuts
6
CONTINUOUS
10
125.1250299999999953
20
-74.3837259999999958
11
124.8956349999999986
21
-74.5161669999999958
0
LINE
8
Edge.Cuts
6
CONTINUOUS
10
124.8956349999999986
20
-74.5161669999999958
11
124.6509149999999977
21
-74.617533999999992
0
LINE
8
Edge.Cuts
6
CONTINUOUS
10
124.6509149999999977
20
-74.617533999999992
11
124.3950579999999917
21
-74.686089999999993
0
LINE
8
Edge.Cuts
6
CONTINUOUS
10
124.3950579999999917
20
-74.686089999999993
11
124.132441
21
-74.7206639999999993
0
LINE
8
Edge.Cuts
6
CONTINUOUS
10
124.132441
20
-74.7206639999999993
11
123.867559
21
-74.7206639999999993
0
LINE
8
Edge.Cuts
6
CONTINUOUS
10
123.867559
20
-74.7206639999999993
11
123.6049419999999941
21
-74.686089999999993
0
LINE
8
Edge.Cuts
6
CONTINUOUS
10
123.6049419999999941
20
-74.686089999999993
11
123.3490849999999881
21
-74.617533999999992
0
LINE
8
Edge.Cuts
6
CONTINUOUS
10
123.3490849999999881
20
-74.617533999999992
11
123.1043650000000014
21
-74.5161669999999958
0
LINE
8
Edge.Cuts
6
CONTINUOUS
10
123.1043650000000014
20
-74.5161669999999958
11
122.8749699999999905
21
-74.3837259999999958
0
LINE
8
Edge.Cuts
6
CONTINUOUS
10
122.8749699999999905
20
-74.3837259999999958
11
122.6648249999999933
21
-74.2224760000000003
0
LINE
8
Edge.Cuts
6
CONTINUOUS
10
122.6648249999999933
20
-74.2224760000000003
11
122.4775239999999883
21
-74.0351749999999953
0
LINE
8
Edge.Cuts
6
CONTINUOUS
10
122.4775239999999883
20
-74.0351749999999953
11
122.3162739999999928
21
-73.8250299999999982
0
LINE
8
Edge.Cuts
6
CONTINUOUS
10
122.3162739999999928
20
-73.8250299999999982
11
122.1838329999999928
21
-73.5956350000000015
0
LINE
8
Edge.Cuts
6
CONTINUOUS
10
122.1838329999999928
20
-73.5956350000000015
11
122.0824659999999966
21
-73.3509150000000005
0
LINE
8
Edge.Cuts
6
CONTINUOUS
10
122.0824659999999966
20
-73.3509150000000005
11
122.0139099999999956
21
-73.0950579999999945
0
LINE
8
Edge.Cuts
6
CONTINUOUS
10
122.0139099999999956
20
-73.0950579999999945
11
121.9793359999999893
21
-72.8324410000000029
0
LINE
8
Edge.Cuts
6
CONTINUOUS
10
121.9793359999999893
20
-72.8324410000000029
11
121.9793359999999893
21
-72.5705519999999922
0
LINE
8
Edge.Cuts
6
CONTINUOUS
10
121.9793359999999893
20
-72.5705519999999922
11
121.9793359999999893
21
-72.5675590000000028
0
LINE
8
Edge.Cuts
6
CONTINUOUS
10
121.9793359999999893
20
-72.5675590000000028
11
122.0139099999999956
21
-72.3049419999999969
0
LINE
8
Edge.Cuts
6
CONTINUOUS
10
122.0139099999999956
20
-72.3049419999999969
11
122.0824659999999966
21
-72.0490849999999909
0
LINE
8
Edge.Cuts
6
CONTINUOUS
10
122.0824659999999966
20
-72.0490849999999909
11
122.1838329999999928
21
-71.80436499999999
0
LINE
8
Edge.Cuts
6
CONTINUOUS
10
122.1838329999999928
20
-71.80436499999999
11
122.3162739999999928
21
-71.5749699999999933
0
LINE
8
Edge.Cuts
6
CONTINUOUS
10
122.3162739999999928
20
-71.5749699999999933
11
122.4775239999999883
21
-71.3648249999999962
0
LINE
8
Edge.Cuts
6
CONTINUOUS
10
122.4775239999999883
20
-71.3648249999999962
11
122.6648249999999933
21
-71.1775239999999911
0
LINE
8
Edge.Cuts
6
CONTINUOUS
10
122.6648249999999933
20
-71.1775239999999911
11
122.8749699999999905
21
-71.0162739999999957
0
LINE
8
Edge.Cuts
6
CONTINUOUS
10
122.8749699999999905
20
-71.0162739999999957
11
123.1043650000000014
21
-70.8838329999999956
0
LINE
8
Edge.Cuts
6
CONTINUOUS
10
123.1043650000000014
20
-70.8838329999999956
11
123.3490849999999881
21
-70.7824659999999994
0
LINE
8
Edge.Cuts
6
CONTINUOUS
10
123.3490849999999881
20
-70.7824659999999994
11
123.6049419999999941
21
-70.7139099999999985
0
LINE
8
Edge.Cuts
6
CONTINUOUS
10
123.6049419999999941
20
-70.7139099999999985
11
123.867559
21
-70.6793359999999922
0
LINE
8
Edge.Cuts
6
CONTINUOUS
10
123.867559
20
-70.6793359999999922
11
124.132441
21
-70.6793359999999922
0
LINE
8
Edge.Cuts
6
CONTINUOUS
10
124.132441
20
-70.6793359999999922
11
124.3950579999999917
21
-70.7139099999999985
0
LINE
8
Edge.Cuts
6
CONTINUOUS
10
122.0249999999999915
20
-72.8294479999999993
11
122.0587929999999943
21
-73.0861299999999972
0
LINE
8
Edge.Cuts
6
CONTINUOUS
10
122.0587929999999943
20
-73.0861299999999972
11
122.1257999999999981
21
-73.3362049999999925
0
LINE
8
Edge.Cuts
6
CONTINUOUS
10
122.1257999999999981
20
-73.3362049999999925
11
122.2248749999999973
21
-73.5753950000000003
0
LINE
8
Edge.Cuts
6
CONTINUOUS
10
122.2248749999999973
20
-73.5753950000000003
11
122.3543239999999912
21
-73.7996059999999972
0
LINE
8
Edge.Cuts
6
CONTINUOUS
10
122.3543239999999912
20
-73.7996059999999972
11
122.5119299999999924
21
-74.0050019999999904
0
LINE
8
Edge.Cuts
6
CONTINUOUS
10
122.5119299999999924
20
-74.0050019999999904
11
122.6949979999999982
21
-74.1880699999999962
0
LINE
8
Edge.Cuts
6
CONTINUOUS
10
122.6949979999999982
20
-74.1880699999999962
11
122.9003939999999915
21
-74.3456759999999974
0
LINE
8
Edge.Cuts
6
CONTINUOUS
10
122.9003939999999915
20
-74.3456759999999974
11
123.1246049999999883
21
-74.4751249999999914
0
LINE
8
Edge.Cuts
6
CONTINUOUS
10
123.1246049999999883
20
-74.4751249999999914
11
123.3637949999999961
21
-74.5741999999999905
0
LINE
8
Edge.Cuts
6
CONTINUOUS
10
123.3637949999999961
20
-74.5741999999999905
11
123.6138699999999915
21
-74.6412069999999943
0
LINE
8
Edge.Cuts
6
CONTINUOUS
10
123.6138699999999915
20
-74.6412069999999943
11
123.8705519999999893
21
-74.6749999999999972
0
LINE
8
Edge.Cuts
6
CONTINUOUS
10
123.8705519999999893
20
-74.6749999999999972
11
124.1294479999999965
21
-74.6749999999999972
0
LINE
8
Edge.Cuts
6
CONTINUOUS
10
124.1294479999999965
20
-74.6749999999999972
11
124.3861299999999943
21
-74.6412069999999943
0
LINE
8
Edge.Cuts
6
CONTINUOUS
10
124.3861299999999943
20
-74.6412069999999943
11
124.6362049999999897
21
-74.5741999999999905
0
LINE
8
Edge.Cuts
6
CONTINUOUS
10
124.6362049999999897
20
-74.5741999999999905
11
124.8753949999999975
21
-74.4751249999999914
0
LINE
8
Edge.Cuts
6
CONTINUOUS
10
124.8753949999999975
20
-74.4751249999999914
11
125.0996059999999943
21
-74.3456759999999974
0
LINE
8
Edge.Cuts
6
CONTINUOUS
10
125.0996059999999943
20
-74.3456759999999974
11
125.3050019999999876
21
-74.1880699999999962
0
LINE
8
Edge.Cuts
6
CONTINUOUS
10
125.3050019999999876
20
-74.1880699999999962
11
125.4880699999999933
21
-74.0050019999999904
0
LINE
8
Edge.Cuts
6
CONTINUOUS
10
125.4880699999999933
20
-74.0050019999999904
11
125.6456759999999946
21
-73.7996059999999972
0
LINE
8
Edge.Cuts
6
CONTINUOUS
10
125.6456759999999946
20
-73.7996059999999972
11
125.7751249999999885
21
-73.5753950000000003
0
LINE
8
Edge.Cuts
6
CONTINUOUS
10
125.7751249999999885
20
-73.5753950000000003
11
125.8741999999999877
21
-73.3362049999999925
0
LINE
8
Edge.Cuts
6
CONTINUOUS
10
125.8741999999999877
20
-73.3362049999999925
11
125.9412069999999915
21
-73.0861299999999972
0
LINE
8
Edge.Cuts
6
CONTINUOUS
10
125.9412069999999915
20
-73.0861299999999972
11
125.9749999999999943
21
-72.8294479999999993
0
LINE
8
Edge.Cuts
6
CONTINUOUS
10
125.9749999999999943
20
-72.8294479999999993
11
125.9749999999999943
21
-72.5705519999999922
0
LINE
8
Edge.Cuts
6
CONTINUOUS
10
125.9749999999999943
20
-72.5705519999999922
11
125.9412069999999915
21
-72.3138699999999943
0
LINE
8
Edge.Cuts
6
CONTINUOUS
10
125.9412069999999915
20
-72.3138699999999943
11
125.8741999999999877
21
-72.0637949999999989
0
LINE
8
Edge.Cuts
6
CONTINUOUS
10
125.8741999999999877
20
-72.0637949999999989
11
125.7751249999999885
21
-71.8246049999999912
0
LINE
8
Edge.Cuts
6
CONTINUOUS
10
125.7751249999999885
20
-71.8246049999999912
11
125.6456759999999946
21
-71.6003939999999943
0
LINE
8
Edge.Cuts
6
CONTINUOUS
10
125.6456759999999946
20
-71.6003939999999943
11
125.4880699999999933
21
-71.3949980000000011
0
LINE
8
Edge.Cuts
6
CONTINUOUS
10
125.4880699999999933
20
-71.3949980000000011
11
125.3050019999999876
21
-71.2119299999999953
0
LINE
8
Edge.Cuts
6
CONTINUOUS
10
125.3050019999999876
20
-71.2119299999999953
11
125.0996059999999943
21
-71.054323999999994
0
LINE
8
Edge.Cuts
6
CONTINUOUS
10
125.0996059999999943
20
-71.054323999999994
11
124.8753949999999975
21
-70.9248750000000001
0
LINE
8
Edge.Cuts
6
CONTINUOUS
10
124.8753949999999975
20
-70.9248750000000001
11
124.6362049999999897
21
-70.825800000000001
0
LINE
8
Edge.Cuts
6
CONTINUOUS
10
124.6362049999999897
20
-70.825800000000001
11
124.3861299999999943
21
-70.7587929999999972
0
LINE
8
Edge.Cuts
6
CONTINUOUS
10
124.3861299999999943
20
-70.7587929999999972
11
124.1294479999999965
21
-70.7249999999999943
0
LINE
8
Edge.Cuts
6
CONTINUOUS
10
124.1294479999999965
20
-70.7249999999999943
11
123.8705519999999893
21
-70.7249999999999943
0
LINE
8
Edge.Cuts
6
CONTINUOUS
10
123.8705519999999893
20
-70.7249999999999943
11
123.6138699999999915
21
-70.7587929999999972
0
LINE
8
Edge.Cuts
6
CONTINUOUS
10
123.6138699999999915
20
-70.7587929999999972
11
123.3637949999999961
21
-70.825800000000001
0
LINE
8
Edge.Cuts
6
CONTINUOUS
10
123.3637949999999961
20
-70.825800000000001
11
123.1246049999999883
21
-70.9248750000000001
0
LINE
8
Edge.Cuts
6
CONTINUOUS
10
123.1246049999999883
20
-70.9248750000000001
11
122.9003939999999915
21
-71.054323999999994
0
LINE
8
Edge.Cuts
6
CONTINUOUS
10
122.9003939999999915
20
-71.054323999999994
11
122.6949979999999982
21
-71.2119299999999953
0
LINE
8
Edge.Cuts
6
CONTINUOUS
10
122.6949979999999982
20
-71.2119299999999953
11
122.5119299999999924
21
-71.3949980000000011
0
LINE
8
Edge.Cuts
6
CONTINUOUS
10
122.5119299999999924
20
-71.3949980000000011
11
122.3543239999999912
21
-71.6003939999999943
0
LINE
8
Edge.Cuts
6
CONTINUOUS
10
122.3543239999999912
20
-71.6003939999999943
11
122.2248749999999973
21
-71.8246049999999912
0
LINE
8
Edge.Cuts
6
CONTINUOUS
10
122.2248749999999973
20
-71.8246049999999912
11
122.1257999999999981
21
-72.0637949999999989
0
LINE
8
Edge.Cuts
6
CONTINUOUS
10
122.1257999999999981
20
-72.0637949999999989
11
122.0587929999999943
21
-72.3138699999999943
0
LINE
8
Edge.Cuts
6
CONTINUOUS
10
122.0587929999999943
20
-72.3138699999999943
11
122.0249999999999915
21
-72.5705519999999922
0
LINE
8
Edge.Cuts
6
CONTINUOUS
10
122.0249999999999915
20
-72.5705519999999922
11
122.0249999999999915
21
-72.8294479999999993
0
LINE
8
Edge.Cuts
6
CONTINUOUS
10
86.5950579999999945
20
-63.4139099999999942
11
86.8509150000000005
21
-63.4824659999999952
0
LINE
8
Edge.Cuts
6
CONTINUOUS
10
86.8509150000000005
20
-63.4824659999999952
11
87.0956350000000015
21
-63.5838329999999985
0
LINE
8
Edge.Cuts
6
CONTINUOUS
10
87.0956350000000015
20
-63.5838329999999985
11
87.3250299999999982
21
-63.7162739999999985
0
LINE
8
Edge.Cuts
6
CONTINUOUS
10
87.3250299999999982
20
-63.7162739999999985
11
87.5351749999999953
21
-63.877523999999994
0
LINE
8
Edge.Cuts
6
CONTINUOUS
10
87.5351749999999953
20
-63.877523999999994
11
87.7224760000000003
21
-64.064824999999999
0
LINE
8
Edge.Cuts
6
CONTINUOUS
10
87.7224760000000003
20
-64.064824999999999
11
87.8837259999999958
21
-64.2749699999999962
0
LINE
8
Edge.Cuts
6
CONTINUOUS
10
87.8837259999999958
20
-64.2749699999999962
11
88.0161669999999958
21
-64.5043649999999928
0
LINE
8
Edge.Cuts
6
CONTINUOUS
10
88.0161669999999958
20
-64.5043649999999928
11
88.117533999999992
21
-64.7490849999999938
0
LINE
8
Edge.Cuts
6
CONTINUOUS
10
88.117533999999992
20
-64.7490849999999938
11
88.186089999999993
21
-65.0049419999999998
0
LINE
8
Edge.Cuts
6
CONTINUOUS
10
88.186089999999993
20
-65.0049419999999998
11
88.2206639999999993
21
-65.2675589999999914
0
LINE
8
Edge.Cuts
6
CONTINUOUS
10
88.2206639999999993
20
-65.2675589999999914
11
88.2206639999999993
21
-65.5324409999999915
0
LINE
8
Edge.Cuts
6
CONTINUOUS
10
88.2206639999999993
20
-65.5324409999999915
11
88.186089999999993
21
-65.7950579999999974
0
LINE
8
Edge.Cuts
6
CONTINUOUS
10
88.186089999999993
20
-65.7950579999999974
11
88.117533999999992
21
-66.0509150000000034
0
LINE
8
Edge.Cuts
6
CONTINUOUS
10
88.117533999999992
20
-66.0509150000000034
11
88.0161669999999958
21
-66.2956349999999901
0
LINE
8
Edge.Cuts
6
CONTINUOUS
10
88.0161669999999958
20
-66.2956349999999901
11
87.8837259999999958
21
-66.525030000000001
0
LINE
8
Edge.Cuts
6
CONTINUOUS
10
87.8837259999999958
20
-66.525030000000001
11
87.7224760000000003
21
-66.7351749999999981
0
LINE
8
Edge.Cuts
6
CONTINUOUS
10
87.7224760000000003
20
-66.7351749999999981
11
87.5351749999999953
21
-66.9224760000000032
0
LINE
8
Edge.Cuts
6
CONTINUOUS
10
87.5351749999999953
20
-66.9224760000000032
11
87.3250299999999982
21
-67.0837259999999986
0
LINE
8
Edge.Cuts
6
CONTINUOUS
10
87.3250299999999982
20
-67.0837259999999986
11
87.0956350000000015
21
-67.2161669999999987
0
LINE
8
Edge.Cuts
6
CONTINUOUS
10
87.0956350000000015
20
-67.2161669999999987
11
86.8509150000000005
21
-67.3175339999999949
0
LINE
8
Edge.Cuts
6
CONTINUOUS
10
86.8509150000000005
20
-67.3175339999999949
11
86.5950579999999945
21
-67.3860899999999958
0
LINE
8
Edge.Cuts
6
CONTINUOUS
10
86.5950579999999945
20
-67.3860899999999958
11
86.3324410000000029
21
-67.4206640000000021
0
LINE
8
Edge.Cuts
6
CONTINUOUS
10
86.3324410000000029
20
-67.4206640000000021
11
86.0675590000000028
21
-67.4206640000000021
0
LINE
8
Edge.Cuts
6
CONTINUOUS
10
86.0675590000000028
20
-67.4206640000000021
11
85.8049419999999969
21
-67.3860899999999958
0
LINE
8
Edge.Cuts
6
CONTINUOUS
10
85.8049419999999969
20
-67.3860899999999958
11
85.5490849999999909
21
-67.3175339999999949
0
LINE
8
Edge.Cuts
6
CONTINUOUS
10
85.5490849999999909
20
-67.3175339999999949
11
85.30436499999999
21
-67.2161669999999987
0
LINE
8
Edge.Cuts
6
CONTINUOUS
10
85.30436499999999
20
-67.2161669999999987
11
85.0749699999999933
21
-67.0837259999999986
0
LINE
8
Edge.Cuts
6
CONTINUOUS
10
85.0749699999999933
20
-67.0837259999999986
11
84.8648249999999962
21
-66.9224760000000032
0
LINE
8
Edge.Cuts
6
CONTINUOUS
10
84.8648249999999962
20
-66.9224760000000032
11
84.6775239999999911
21
-66.7351749999999981
0
LINE
8
Edge.Cuts
6
CONTINUOUS
10
84.6775239999999911
20
-66.7351749999999981
11
84.5162739999999957
21
-66.525030000000001
0
LINE
8
Edge.Cuts
6
CONTINUOUS
10
84.5162739999999957
20
-66.525030000000001
11
84.3838329999999956
21
-66.2956349999999901
0
LINE
8
Edge.Cuts
6
CONTINUOUS
10
84.3838329999999956
20
-66.2956349999999901
11
84.2824659999999994
21
-66.0509150000000034
0
LINE
8
Edge.Cuts
6
CONTINUOUS
10
84.2824659999999994
20
-66.0509150000000034
11
84.2139099999999985
21
-65.7950579999999974
0
LINE
8
Edge.Cuts
6
CONTINUOUS
10
84.2139099999999985
20
-65.7950579999999974
11
84.1793359999999922
21
-65.5324409999999915
0
LINE
8
Edge.Cuts
6
CONTINUOUS
10
84.1793359999999922
20
-65.5324409999999915
11
84.1793359999999922
21
-65.270551999999995
0
LINE
8
Edge.Cuts
6
CONTINUOUS
10
84.1793359999999922
20
-65.270551999999995
11
84.1793359999999922
21
-65.2675589999999914
0
LINE
8
Edge.Cuts
6
CONTINUOUS
10
84.1793359999999922
20
-65.2675589999999914
11
84.2139099999999985
21
-65.0049419999999998
0
LINE
8
Edge.Cuts
6
CONTINUOUS
10
84.2139099999999985
20
-65.0049419999999998
11
84.2824659999999994
21
-64.7490849999999938
0
LINE
8
Edge.Cuts
6
CONTINUOUS
10
84.2824659999999994
20
-64.7490849999999938
11
84.3838329999999956
21
-64.5043649999999928
0
LINE
8
Edge.Cuts
6
CONTINUOUS
10
84.3838329999999956
20
-64.5043649999999928
11
84.5162739999999957
21
-64.2749699999999962
0
LINE
8
Edge.Cuts
6
CONTINUOUS
10
84.5162739999999957
20
-64.2749699999999962
11
84.6775239999999911
21
-64.064824999999999
0
LINE
8
Edge.Cuts
6
CONTINUOUS
10
84.6775239999999911
20
-64.064824999999999
11
84.8648249999999962
21
-63.877523999999994
0
LINE
8
Edge.Cuts
6
CONTINUOUS
10
84.8648249999999962
20
-63.877523999999994
11
85.0749699999999933
21
-63.7162739999999985
0
LINE
8
Edge.Cuts
6
CONTINUOUS
10
85.0749699999999933
20
-63.7162739999999985
11
85.30436499999999
21
-63.5838329999999985
0
LINE
8
Edge.Cuts
6
CONTINUOUS
10
85.30436499999999
20
-63.5838329999999985
11
85.5490849999999909
21
-63.4824659999999952
0
LINE
8
Edge.Cuts
6
CONTINUOUS
10
85.5490849999999909
20
-63.4824659999999952
11
85.8049419999999969
21
-63.4139099999999942
0
LINE
8
Edge.Cuts
6
CONTINUOUS
10
85.8049419999999969
20
-63.4139099999999942
11
86.0675590000000028
21
-63.379335999999995
0
LINE
8
Edge.Cuts
6
CONTINUOUS
10
86.0675590000000028
20
-63.379335999999995
11
86.3324410000000029
21
-63.379335999999995
0
LINE
8
Edge.Cuts
6
CONTINUOUS
10
86.3324410000000029
20
-63.379335999999995
11
86.5950579999999945
21
-63.4139099999999942
0
LINE
8
Edge.Cuts
6
CONTINUOUS
10
84.2249999999999943
20
-65.5294480000000021
11
84.2587929999999972
21
-65.78613
0
LINE
8
Edge.Cuts
6
CONTINUOUS
10
84.2587929999999972
20
-65.78613
11
84.325800000000001
21
-66.0362049999999954
0
LINE
8
Edge.Cuts
6
CONTINUOUS
10
84.325800000000001
20
-66.0362049999999954
11
84.4248750000000001
21
-66.2753950000000032
0
LINE
8
Edge.Cuts
6
CONTINUOUS
10
84.4248750000000001
20
-66.2753950000000032
11
84.554323999999994
21
-66.499606
0
LINE
8
Edge.Cuts
6
CONTINUOUS
10
84.554323999999994
20
-66.499606
11
84.7119299999999953
21
-66.7050019999999932
0
LINE
8
Edge.Cuts
6
CONTINUOUS
10
84.7119299999999953
20
-66.7050019999999932
11
84.8949980000000011
21
-66.888069999999999
0
LINE
8
Edge.Cuts
6
CONTINUOUS
10
84.8949980000000011
20
-66.888069999999999
11
85.1003939999999943
21
-67.0456760000000003
0
LINE
8
Edge.Cuts
6
CONTINUOUS
10
85.1003939999999943
20
-67.0456760000000003
11
85.3246049999999912
21
-67.1751249999999942
0
LINE
8
Edge.Cuts
6
CONTINUOUS
10
85.3246049999999912
20
-67.1751249999999942
11
85.5637949999999989
21
-67.2741999999999933
0
LINE
8
Edge.Cuts
6
CONTINUOUS
10
85.5637949999999989
20
-67.2741999999999933
11
85.8138699999999943
21
-67.3412069999999972
0
LINE
8
Edge.Cuts
6
CONTINUOUS
10
85.8138699999999943
20
-67.3412069999999972
11
86.0705519999999922
21
-67.375
0
LINE
8
Edge.Cuts
6
CONTINUOUS
10
86.0705519999999922
20
-67.375
11
86.3294479999999993
21
-67.375
0
LINE
8
Edge.Cuts
6
CONTINUOUS
10
86.3294479999999993
20
-67.375
11
86.5861299999999972
21
-67.3412069999999972
0
LINE
8
Edge.Cuts
6
CONTINUOUS
10
86.5861299999999972
20
-67.3412069999999972
11
86.8362049999999925
21
-67.2741999999999933
0
LINE
8
Edge.Cuts
6
CONTINUOUS
10
86.8362049999999925
20
-67.2741999999999933
11
87.0753950000000003
21
-67.1751249999999942
0
LINE
8
Edge.Cuts
6
CONTINUOUS
10
87.0753950000000003
20
-67.1751249999999942
11
87.2996059999999972
21
-67.0456760000000003
0
LINE
8
Edge.Cuts
6
CONTINUOUS
10
87.2996059999999972
20
-67.0456760000000003
11
87.5050019999999904
21
-66.888069999999999
0
LINE
8
Edge.Cuts
6
CONTINUOUS
10
87.5050019999999904
20
-66.888069999999999
11
87.6880699999999962
21
-66.7050019999999932
0
LINE
8
Edge.Cuts
6
CONTINUOUS
10
87.6880699999999962
20
-66.7050019999999932
11
87.8456759999999974
21
-66.499606
0
LINE
8
Edge.Cuts
6
CONTINUOUS
10
87.8456759999999974
20
-66.499606
11
87.9751249999999914
21
-66.2753950000000032
0
LINE
8
Edge.Cuts
6
CONTINUOUS
10
87.9751249999999914
20
-66.2753950000000032
11
88.0741999999999905
21
-66.0362049999999954
0
LINE
8
Edge.Cuts
6
CONTINUOUS
10
88.0741999999999905
20
-66.0362049999999954
11
88.1412069999999943
21
-65.78613
0
LINE
8
Edge.Cuts
6
CONTINUOUS
10
88.1412069999999943
20
-65.78613
11
88.1749999999999972
21
-65.5294480000000021
0
LINE
8
Edge.Cuts
6
CONTINUOUS
10
88.1749999999999972
20
-65.5294480000000021
11
88.1749999999999972
21
-65.270551999999995
0
LINE
8
Edge.Cuts
6
CONTINUOUS
10
88.1749999999999972
20
-65.270551999999995
11
88.1412069999999943
21
-65.0138699999999972
0
LINE
8
Edge.Cuts
6
CONTINUOUS
10
88.1412069999999943
20
-65.0138699999999972
11
88.0741999999999905
21
-64.7637950000000018
0
LINE
8
Edge.Cuts
6
CONTINUOUS
10
88.0741999999999905
20
-64.7637950000000018
11
87.9751249999999914
21
-64.524604999999994
0
LINE
8
Edge.Cuts
6
CONTINUOUS
10
87.9751249999999914
20
-64.524604999999994
11
87.8456759999999974
21
-64.3003939999999972
0
LINE
8
Edge.Cuts
6
CONTINUOUS
10
87.8456759999999974
20
-64.3003939999999972
11
87.6880699999999962
21
-64.0949980000000039
0
LINE
8
Edge.Cuts
6
CONTINUOUS
10
87.6880699999999962
20
-64.0949980000000039
11
87.5050019999999904
21
-63.9119299999999981
0
LINE
8
Edge.Cuts
6
CONTINUOUS
10
87.5050019999999904
20
-63.9119299999999981
11
87.2996059999999972
21
-63.7543239999999969
0
LINE
8
Edge.Cuts
6
CONTINUOUS
10
87.2996059999999972
20
-63.7543239999999969
11
87.0753950000000003
21
-63.6248749999999959
0
LINE
8
Edge.Cuts
6
CONTINUOUS
10
87.0753950000000003
20
-63.6248749999999959
11
86.8362049999999925
21
-63.5257999999999967
0
LINE
8
Edge.Cuts
6
CONTINUOUS
10
86.8362049999999925
20
-63.5257999999999967
11
86.5861299999999972
21
-63.458793
0
LINE
8
Edge.Cuts
6
CONTINUOUS
10
86.5861299999999972
20
-63.458793
11
86.3294479999999993
21
-63.4249999999999972
0
LINE
8
Edge.Cuts
6
CONTINUOUS
10
86.3294479999999993
20
-63.4249999999999972
11
86.0705519999999922
21
-63.4249999999999972
0
LINE
8
Edge.Cuts
6
CONTINUOUS
10
86.0705519999999922
20
-63.4249999999999972
11
85.8138699999999943
21
-63.458793
0
LINE
8
Edge.Cuts
6
CONTINUOUS
10
85.8138699999999943
20
-63.458793
11
85.5637949999999989
21
-63.5257999999999967
0
LINE
8
Edge.Cuts
6
CONTINUOUS
10
85.5637949999999989
20
-63.5257999999999967
11
85.3246049999999912
21
-63.6248749999999959
0
LINE
8
Edge.Cuts
6
CONTINUOUS
10
85.3246049999999912
20
-63.6248749999999959
11
85.1003939999999943
21
-63.7543239999999969
0
LINE
8
Edge.Cuts
6
CONTINUOUS
10
85.1003939999999943
20
-63.7543239999999969
11
84.8949980000000011
21
-63.9119299999999981
0
LINE
8
Edge.Cuts
6
CONTINUOUS
10
84.8949980000000011
20
-63.9119299999999981
11
84.7119299999999953
21
-64.0949980000000039
0
LINE
8
Edge.Cuts
6
CONTINUOUS
10
84.7119299999999953
20
-64.0949980000000039
11
84.554323999999994
21
-64.3003939999999972
0
LINE
8
Edge.Cuts
6
CONTINUOUS
10
84.554323999999994
20
-64.3003939999999972
11
84.4248750000000001
21
-64.524604999999994
0
LINE
8
Edge.Cuts
6
CONTINUOUS
10
84.4248750000000001
20
-64.524604999999994
11
84.325800000000001
21
-64.7637950000000018
0
LINE
8
Edge.Cuts
6
CONTINUOUS
10
84.325800000000001
20
-64.7637950000000018
11
84.2587929999999972
21
-65.0138699999999972
0
LINE
8
Edge.Cuts
6
CONTINUOUS
10
84.2587929999999972
20
-65.0138699999999972
11
84.2249999999999943
21
-65.270551999999995
0
LINE
8
Edge.Cuts
6
CONTINUOUS
10
84.2249999999999943
20
-65.270551999999995
11
84.2249999999999943
21
-65.5294480000000021
0
LINE
8
Edge.Cuts
6
CONTINUOUS
10
104.0237709999999964
20
-45.9678929999999966
11
104.2017599999999931
21
-45.9834649999999954
0
LINE
8
Edge.Cuts
6
CONTINUOUS
10
104.2017599999999931
20
-45.9834649999999954
11
104.3743419999999986
21
-46.0297079999999994
0
LINE
8
Edge.Cuts
6
CONTINUOUS
10
104.3743419999999986
20
-46.0297079999999994
11
104.5362709999999993
21
-46.1052169999999961
0
LINE
8
Edge.Cuts
6
CONTINUOUS
10
104.5362709999999993
20
-46.1052169999999961
11
104.6826289999999915
21
-46.207696999999996
0
LINE
8
Edge.Cuts
6
CONTINUOUS
10
104.6826289999999915
20
-46.207696999999996
11
104.8089669999999956
21
-46.3340350000000001
0
LINE
8
Edge.Cuts
6
CONTINUOUS
10
104.8089669999999956
20
-46.3340350000000001
11
104.9114469999999955
21
-46.4803929999999994
0
LINE
8
Edge.Cuts
6
CONTINUOUS
10
104.9114469999999955
20
-46.4803929999999994
11
104.9869559999999922
21
-46.6423220000000001
0
LINE
8
Edge.Cuts
6
CONTINUOUS
10
104.9869559999999922
20
-46.6423220000000001
11
105.0331989999999962
21
-46.8149039999999985
0
LINE
8
Edge.Cuts
6
CONTINUOUS
10
105.0331989999999962
20
-46.8149039999999985
11
105.0487710000000021
21
-46.9928929999999951
0
LINE
8
Edge.Cuts
6
CONTINUOUS
10
105.0487710000000021
20
-46.9928929999999951
11
105.0487710000000021
21
-49.7928929999999994
0
LINE
8
Edge.Cuts
6
CONTINUOUS
10
105.0487710000000021
20
-49.7928929999999994
11
105.0487710000000021
21
-49.8781940000000006
0
LINE
8
Edge.Cuts
6
CONTINUOUS
10
105.0487710000000021
20
-49.8781940000000006
11
105.0783959999999979
21
-50.0462050000000005
0
LINE
8
Edge.Cuts
6
CONTINUOUS
10
105.0783959999999979
20
-50.0462050000000005
11
105.1367460000000023
21
-50.2065199999999976
0
LINE
8
Edge.Cuts
6
CONTINUOUS
10
105.1367460000000023
20
-50.2065199999999976
11
105.2220469999999892
21
-50.3542659999999955
0
LINE
8
Edge.Cuts
6
CONTINUOUS
10
105.2220469999999892
20
-50.3542659999999955
11
105.3317079999999919
21
-50.4849559999999968
0
LINE
8
Edge.Cuts
6
CONTINUOUS
10
105.3317079999999919
20
-50.4849559999999968
11
105.4623979999999932
21
-50.5946169999999995
0
LINE
8
Edge.Cuts
6
CONTINUOUS
10
105.4623979999999932
20
-50.5946169999999995
11
105.6101439999999911
21
-50.6799180000000007
0
LINE
8
Edge.Cuts
6
CONTINUOUS
10
105.6101439999999911
20
-50.6799180000000007
11
105.7704589999999882
21
-50.7382679999999979
0
LINE
8
Edge.Cuts
6
CONTINUOUS
10
105.7704589999999882
20
-50.7382679999999979
11
105.9384699999999953
21
-50.7678930000000008
0
LINE
8
Edge.Cuts
6
CONTINUOUS
10
105.9384699999999953
20
-50.7678930000000008
11
106.0237709999999964
21
-50.7678930000000008
0
LINE
8
Edge.Cuts
6
CONTINUOUS
10
106.0237709999999964
20
-50.7678930000000008
11
123.1237709999999907
21
-50.7678930000000008
0
LINE
8
Edge.Cuts
6
CONTINUOUS
10
123.1237709999999907
20
-50.7678930000000008
11
123.3017599999999874
21
-50.7834649999999996
0
LINE
8
Edge.Cuts
6
CONTINUOUS
10
123.3017599999999874
20
-50.7834649999999996
11
123.4743419999999929
21
-50.8297079999999966
0
LINE
8
Edge.Cuts
6
CONTINUOUS
10
123.4743419999999929
20
-50.8297079999999966
11
123.6362709999999936
21
-50.9052170000000004
0
LINE
8
Edge.Cuts
6
CONTINUOUS
10
123.6362709999999936
20
-50.9052170000000004
11
123.782629
21
-51.0076970000000003
0
LINE
8
Edge.Cuts
6
CONTINUOUS
10
123.782629
20
-51.0076970000000003
11
123.9089669999999899
21
-51.1340349999999972
0
LINE
8
Edge.Cuts
6
CONTINUOUS
10
123.9089669999999899
20
-51.1340349999999972
11
124.0114469999999898
21
-51.2803929999999966
0
LINE
8
Edge.Cuts
6
CONTINUOUS
10
124.0114469999999898
20
-51.2803929999999966
11
124.0869560000000007
21
-51.4423219999999972
0
LINE
8
Edge.Cuts
6
CONTINUOUS
10
124.0869560000000007
20
-51.4423219999999972
11
124.1331989999999905
21
-51.6149039999999957
0
LINE
8
Edge.Cuts
6
CONTINUOUS
10
124.1331989999999905
20
-51.6149039999999957
11
124.1487709999999964
21
-51.7928929999999994
0
LINE
8
Edge.Cuts
6
CONTINUOUS
10
124.1487709999999964
20
-51.7928929999999994
11
124.1487709999999964
21
-52.5928929999999966
0
LINE
8
Edge.Cuts
6
CONTINUOUS
10
124.1487709999999964
20
-52.5928929999999966
11
124.1487709999999964
21
-52.6781939999999977
0
LINE
8
Edge.Cuts
6
CONTINUOUS
10
124.1487709999999964
20
-52.6781939999999977
11
124.1783959999999922
21
-52.8462049999999977
0
LINE
8
Edge.Cuts
6
CONTINUOUS
10
124.1783959999999922
20
-52.8462049999999977
11
124.2367459999999966
21
-53.0065199999999948
0
LINE
8
Edge.Cuts
6
CONTINUOUS
10
124.2367459999999966
20
-53.0065199999999948
11
124.3220469999999978
21
-53.1542659999999998
0
LINE
8
Edge.Cuts
6
CONTINUOUS
10
124.3220469999999978
20
-53.1542659999999998
11
124.4317080000000004
21
-53.2849560000000011
0
LINE
8
Edge.Cuts
6
CONTINUOUS
10
124.4317080000000004
20
-53.2849560000000011
11
124.5623979999999875
21
-53.3946169999999967
0
LINE
8
Edge.Cuts
6
CONTINUOUS
10
124.5623979999999875
20
-53.3946169999999967
11
124.7101439999999997
21
-53.4799179999999978
0
LINE
8
Edge.Cuts
6
CONTINUOUS
10
124.7101439999999997
20
-53.4799179999999978
11
124.8704589999999968
21
-53.5382679999999951
0
LINE
8
Edge.Cuts
6
CONTINUOUS
10
124.8704589999999968
20
-53.5382679999999951
11
125.0384699999999896
21
-53.567892999999998
0
LINE
8
Edge.Cuts
6
CONTINUOUS
10
125.0384699999999896
20
-53.567892999999998
11
125.1237709999999907
21
-53.567892999999998
0
LINE
8
Edge.Cuts
6
CONTINUOUS
10
125.1237709999999907
20
-53.567892999999998
11
143.364075999999983
21
-53.567892999999998
0
LINE
8
Edge.Cuts
6
CONTINUOUS
10
143.364075999999983
20
-53.567892999999998
11
143.5245559999999898
21
-53.5805340000000001
0
LINE
8
Edge.Cuts
6
CONTINUOUS
10
143.5245559999999898
20
-53.5805340000000001
11
143.6810769999999877
21
-53.6181449999999984
0
LINE
8
Edge.Cuts
6
CONTINUOUS
10
143.6810769999999877
20
-53.6181449999999984
11
143.8297799999999995
21
-53.6797970000000007
0
LINE
8
Edge.Cuts
6
CONTINUOUS
10
143.8297799999999995
20
-53.6797970000000007
11
143.9669969999999921
21
-53.763970999999998
0
LINE
8
Edge.Cuts
6
CONTINUOUS
10
143.9669969999999921
20
-53.763970999999998
11
144.0893419999999878
21
-53.8685899999999975
0
LINE
8
Edge.Cuts
6
CONTINUOUS
10
144.0893419999999878
20
-53.8685899999999975
11
148.9183769999999924
21
-58.7040499999999952
0
LINE
8
Edge.Cuts
6
CONTINUOUS
10
148.9183769999999924
20
-58.7040499999999952
11
148.9183809999999824
21
-58.7040559999999942
0
LINE
8
Edge.Cuts
6
CONTINUOUS
10
148.9183809999999824
20
-58.7040559999999942
11
149.0226159999999993
21
-58.8262209999999968
0
LINE
8
Edge.Cuts
6
CONTINUOUS
10
149.0226159999999993
20
-58.8262209999999968
11
149.1064899999999795
21
-58.9631779999999992
0
LINE
8
Edge.Cuts
6
CONTINUOUS
10
149.1064899999999795
20
-58.9631779999999992
11
149.1679389999999898
21
-59.1115569999999977
0
LINE
8
Edge.Cuts
6
CONTINUOUS
10
149.1679389999999898
20
-59.1115569999999977
11
149.2054530000000057
21
-59.267713999999998
0
LINE
8
Edge.Cuts
6
CONTINUOUS
10
149.2054530000000057
20
-59.267713999999998
11
149.2181099999999958
21
-59.4278109999999984
0
LINE
8
Edge.Cuts
6
CONTINUOUS
10
149.2181099999999958
20
-59.4278109999999984
11
149.2181109999999933
21
-59.4278119999999959
0
LINE
8
Edge.Cuts
6
CONTINUOUS
10
149.2181109999999933
20
-59.4278119999999959
11
149.248771000000005
21
-117.6486159999999899
0
LINE
8
Edge.Cuts
6
CONTINUOUS
10
149.248771000000005
20
-117.6486159999999899
11
149.2487689999999816
21
-117.6486219999999889
0
LINE
8
Edge.Cuts
6
CONTINUOUS
10
149.2487689999999816
20
-117.6486219999999889
11
149.248771000000005
21
-117.6486269999999905
0
LINE
8
Edge.Cuts
6
CONTINUOUS
10
149.248771000000005
20
-117.6486269999999905
11
149.2487019999999802
21
-117.7285279999999972
0
LINE
8
Edge.Cuts
6
CONTINUOUS
10
149.2487019999999802
20
-117.7285279999999972
11
149.2747249999999894
21
-117.8861969999999957
0
LINE
8
Edge.Cuts
6
CONTINUOUS
10
149.2747249999999894
20
-117.8861969999999957
11
149.3260659999999973
21
-118.0375269999999972
0
LINE
8
Edge.Cuts
6
CONTINUOUS
10
149.3260659999999973
20
-118.0375269999999972
11
149.4013549999999952
21
-118.1784819999999883
0
LINE
8
Edge.Cuts
6
CONTINUOUS
10
149.4013549999999952
20
-118.1784819999999883
11
149.4985829999999964
21
-118.3053019999999975
0
LINE
8
Edge.Cuts
6
CONTINUOUS
10
149.4985829999999964
20
-118.3053019999999975
11
149.6151579999999797
21
-118.4146039999999971
0
LINE
8
Edge.Cuts
6
CONTINUOUS
10
149.6151579999999797
20
-118.4146039999999971
11
149.7479710000000068
21
-118.5034729999999996
0
LINE
8
Edge.Cuts
6
CONTINUOUS
10
149.7479710000000068
20
-118.5034729999999996
11
149.8207539999999938
21
-118.5364369999999923
0
LINE
8
Edge.Cuts
6
CONTINUOUS
10
149.8207539999999938
20
-118.5364369999999923
11
163.5165769999999839
21
-124.753619999999998
0
LINE
8
Edge.Cuts
6
CONTINUOUS
10
163.5165769999999839
20
-124.753619999999998
11
163.6729269999999872
21
-124.8418609999999944
0
LINE
8
Edge.Cuts
6
CONTINUOUS
10
163.6729269999999872
20
-124.8418609999999944
11
163.8114819999999838
21
-124.9560290000000009
0
LINE
8
Edge.Cuts
6
CONTINUOUS
10
163.8114819999999838
20
-124.9560290000000009
11
163.927991999999989
21
-125.0926219999999915
0
LINE
8
Edge.Cuts
6
CONTINUOUS
10
163.927991999999989
20
-125.0926219999999915
11
164.0188819999999907
21
-125.247446999999994
0
LINE
8
Edge.Cuts
6
CONTINUOUS
10
164.0188819999999907
20
-125.247446999999994
11
164.0813639999999793
21
-125.4157569999999993
0
LINE
8
Edge.Cuts
6
CONTINUOUS
10
164.0813639999999793
20
-125.4157569999999993
11
164.1135199999999941
21
-125.5923859999999905
0
LINE
8
Edge.Cuts
6
CONTINUOUS
10
164.1135199999999941
20
-125.5923859999999905
11
164.1143649999999923
21
-125.7719169999999878
0
LINE
8
Edge.Cuts
6
CONTINUOUS
10
164.1143649999999923
20
-125.7719169999999878
11
164.0838709999999878
21
-125.9488409999999874
0
LINE
8
Edge.Cuts
6
CONTINUOUS
10
164.0838709999999878
20
-125.9488409999999874
11
164.0229759999999999
21
-126.117730999999992
0
LINE
8
Edge.Cuts
6
CONTINUOUS
10
164.0229759999999999
20
-126.117730999999992
11
156.075759000000005
21
-143.2764949999999828
0
LINE
8
Edge.Cuts
6
CONTINUOUS
10
156.075759000000005
20
-143.2764949999999828
11
155.9854379999999878
21
-143.4334419999999852
0
LINE
8
Edge.Cuts
6
CONTINUOUS
10
155.9854379999999878
20
-143.4334419999999852
11
155.8689080000000047
21
-143.5720469999999978
0
LINE
8
Edge.Cuts
6
CONTINUOUS
10
155.8689080000000047
20
-143.5720469999999978
11
155.7298049999999989
21
-143.6879820000000052
0
LINE
8
Edge.Cuts
6
CONTINUOUS
10
155.7298049999999989
20
-143.6879820000000052
11
155.5724720000000048
21
-143.7776299999999878
0
LINE
8
Edge.Cuts
6
CONTINUOUS
10
155.5724720000000048
20
-143.7776299999999878
11
155.401818999999989
21
-143.8381929999999898
0
LINE
8
Edge.Cuts
6
CONTINUOUS
10
155.401818999999989
20
-143.8381929999999898
11
155.2231709999999794
21
-143.8677809999999795
0
LINE
8
Edge.Cuts
6
CONTINUOUS
10
155.2231709999999794
20
-143.8677809999999795
11
155.0421049999999923
21
-143.8654689999999903
0
LINE
8
Edge.Cuts
6
CONTINUOUS
10
155.0421049999999923
20
-143.8654689999999903
11
154.8642700000000048
21
-143.8313320000000033
0
LINE
8
Edge.Cuts
6
CONTINUOUS
10
154.8642700000000048
20
-143.8313320000000033
11
154.6952189999999803
21
-143.7664330000000064
0
LINE
8
Edge.Cuts
6
CONTINUOUS
10
154.6952189999999803
20
-143.7664330000000064
11
154.6952169999999853
21
-143.766430999999983
0
LINE
8
Edge.Cuts
6
CONTINUOUS
10
154.6952169999999853
20
-143.766430999999983
11
137.1380029999999977
21
-135.1766120000000058
0
LINE
8
Edge.Cuts
6
CONTINUOUS
10
137.1380029999999977
20
-135.1766120000000058
11
137.1380010000000027
21
-135.1766109999999799
0
LINE
8
Edge.Cuts
6
CONTINUOUS
10
137.1380010000000027
20
-135.1766109999999799
11
137.0975389999999834
21
-135.1568100000000072
0
LINE
8
Edge.Cuts
6
CONTINUOUS
10
137.0975389999999834
20
-135.1568100000000072
11
137.0133069999999975
21
-135.124843999999996
0
LINE
8
Edge.Cuts
6
CONTINUOUS
10
137.0133069999999975
20
-135.124843999999996
11
136.9264849999999853
21
-135.1007879999999943
0
LINE
8
Edge.Cuts
6
CONTINUOUS
10
136.9264849999999853
20
-135.1007879999999943
11
136.8821489999999983
21
-135.0928179999999941
0
LINE
8
Edge.Cuts
6
CONTINUOUS
10
136.8821489999999983
20
-135.0928179999999941
11
136.8821470000000033
21
-135.0928159999999991
0
LINE
8
Edge.Cuts
6
CONTINUOUS
10
136.8821470000000033
20
-135.0928159999999991
11
136.8821460000000059
21
-135.0928169999999966
0
LINE
8
Edge.Cuts
6
CONTINUOUS
10
136.8821460000000059
20
-135.0928169999999966
11
118.5661939999999959
21
-131.7978839999999821
0
LINE
8
Edge.Cuts
6
CONTINUOUS
10
118.5661939999999959
20
-131.7978839999999821
11
118.3976779999999991
21
-131.7524719999999832
0
LINE
8
Edge.Cuts
6
CONTINUOUS
10
118.3976779999999991
20
-131.7524719999999832
11
118.2393089999999916
21
-131.6791279999999915
0
LINE
8
Edge.Cuts
6
CONTINUOUS
10
118.2393089999999916
20
-131.6791279999999915
11
118.0956789999999899
21
-131.5799810000000036
0
LINE
8
Edge.Cuts
6
CONTINUOUS
10
118.0956789999999899
20
-131.5799810000000036
11
117.9709509999999995
21
-131.4579029999999875
0
LINE
8
Edge.Cuts
6
CONTINUOUS
10
117.9709509999999995
20
-131.4579029999999875
11
117.8687449999999899
21
-131.3164390000000026
0
LINE
8
Edge.Cuts
6
CONTINUOUS
10
117.8687449999999899
20
-131.3164390000000026
11
117.8687419999999975
21
-131.3164359999999817
0
LINE
8
Edge.Cuts
6
CONTINUOUS
10
117.8687419999999975
20
-131.3164359999999817
11
111.7936369999999897
21
-121.1912589999999881
0
LINE
8
Edge.Cuts
6
CONTINUOUS
10
111.7936369999999897
20
-121.1912589999999881
11
111.7503929999999883
21
-121.119341999999989
0
LINE
8
Edge.Cuts
6
CONTINUOUS
10
111.7503929999999883
20
-121.119341999999989
11
111.64071899999999
21
-120.9922969999999935
0
LINE
8
Edge.Cuts
6
CONTINUOUS
10
111.64071899999999
20
-120.9922969999999935
11
111.5109479999999991
21
-120.885863999999998
0
LINE
8
Edge.Cuts
6
CONTINUOUS
10
111.5109479999999991
20
-120.885863999999998
11
111.3648979999999966
21
-120.8031709999999919
0
LINE
8
Edge.Cuts
6
CONTINUOUS
10
111.3648979999999966
20
-120.8031709999999919
11
111.2068649999999934
21
-120.7466539999999924
0
LINE
8
Edge.Cuts
6
CONTINUOUS
10
111.2068649999999934
20
-120.7466539999999924
11
111.0414990000000017
21
-120.7179730000000006
0
LINE
8
Edge.Cuts
6
CONTINUOUS
10
111.0414990000000017
20
-120.7179730000000006
11
110.9575809999999905
21
-120.7178929999999895
0
LINE
8
Edge.Cuts
6
CONTINUOUS
10
110.9575809999999905
20
-120.7178929999999895
11
68.0237709999999964
21
-120.7178929999999895
0
LINE
8
Edge.Cuts
6
CONTINUOUS
10
68.0237709999999964
20
-120.7178929999999895
11
67.9384699999999953
21
-120.7178929999999895
0
LINE
8
Edge.Cuts
6
CONTINUOUS
10
67.9384699999999953
20
-120.7178929999999895
11
67.7704590000000024
21
-120.7475179999999995
0
LINE
8
Edge.Cuts
6
CONTINUOUS
10
67.7704590000000024
20
-120.7475179999999995
11
67.6101439999999911
21
-120.8058679999999896
0
LINE
8
Edge.Cuts
6
CONTINUOUS
10
67.6101439999999911
20
-120.8058679999999896
11
67.4623979999999932
21
-120.8911689999999908
0
LINE
8
Edge.Cuts
6
CONTINUOUS
10
67.4623979999999932
20
-120.8911689999999908
11
67.3317079999999919
21
-121.0008299999999934
0
LINE
8
Edge.Cuts
6
CONTINUOUS
10
67.3317079999999919
20
-121.0008299999999934
11
67.2220470000000034
21
-121.1315199999999948
0
LINE
8
Edge.Cuts
6
CONTINUOUS
10
67.2220470000000034
20
-121.1315199999999948
11
67.1367460000000023
21
-121.2792659999999927
0
LINE
8
Edge.Cuts
6
CONTINUOUS
10
67.1367460000000023
20
-121.2792659999999927
11
67.0783959999999979
21
-121.4395809999999898
0
LINE
8
Edge.Cuts
6
CONTINUOUS
10
67.0783959999999979
20
-121.4395809999999898
11
67.0487710000000021
21
-121.6075919999999968
0
LINE
8
Edge.Cuts
6
CONTINUOUS
10
67.0487710000000021
20
-121.6075919999999968
11
67.0487710000000021
21
-121.692892999999998
0
LINE
8
Edge.Cuts
6
CONTINUOUS
10
67.0487710000000021
20
-121.692892999999998
11
67.0328640000000036
21
-121.7933239999999984
0
LINE
8
Edge.Cuts
6
CONTINUOUS
10
67.0328640000000036
20
-121.7933239999999984
11
66.9867009999999965
21
-121.8839229999999958
0
LINE
8
Edge.Cuts
6
CONTINUOUS
10
66.9867009999999965
20
-121.8839229999999958
11
66.9148009999999971
21
-121.9558229999999952
0
LINE
8
Edge.Cuts
6
CONTINUOUS
10
66.9148009999999971
20
-121.9558229999999952
11
66.8242019999999997
21
-122.0019859999999881
0
LINE
8
Edge.Cuts
6
CONTINUOUS
10
66.8242019999999997
20
-122.0019859999999881
11
66.7237709999999993
21
-122.0178930000000008
0
LINE
8
Edge.Cuts
6
CONTINUOUS
10
66.7237709999999993
20
-122.0178930000000008
11
47.5237709999999964
21
-122.0178930000000008
0
LINE
8
Edge.Cuts
6
CONTINUOUS
10
47.5237709999999964
20
-122.0178930000000008
11
47.3457819999999998
21
-122.0023209999999949
0
LINE
8
Edge.Cuts
6
CONTINUOUS
10
47.3457819999999998
20
-122.0023209999999949
11
47.1732000000000014
21
-121.9560779999999909
0
LINE
8
Edge.Cuts
6
CONTINUOUS
10
47.1732000000000014
20
-121.9560779999999909
11
47.0112710000000007
21
-121.8805689999999942
0
LINE
8
Edge.Cuts
6
CONTINUOUS
10
47.0112710000000007
20
-121.8805689999999942
11
46.8649130000000014
21
-121.7780889999999943
0
LINE
8
Edge.Cuts
6
CONTINUOUS
10
46.8649130000000014
20
-121.7780889999999943
11
46.7385749999999973
21
-121.6517509999999902
0
LINE
8
Edge.Cuts
6
CONTINUOUS
10
46.7385749999999973
20
-121.6517509999999902
11
46.6360949999999974
21
-121.505392999999998
0
LINE
8
Edge.Cuts
6
CONTINUOUS
10
46.6360949999999974
20
-121.505392999999998
11
46.5605860000000007
21
-121.3434639999999973
0
LINE
8
Edge.Cuts
6
CONTINUOUS
10
46.5605860000000007
20
-121.3434639999999973
11
46.5143429999999967
21
-121.1708819999999918
0
LINE
8
Edge.Cuts
6
CONTINUOUS
10
46.5143429999999967
20
-121.1708819999999918
11
46.4987709999999979
21
-120.9928929999999951
0
LINE
8
Edge.Cuts
6
CONTINUOUS
10
46.4987709999999979
20
-120.9928929999999951
11
46.4987719999999953
21
-120.9928879999999936
0
LINE
8
Edge.Cuts
6
CONTINUOUS
10
46.4987719999999953
20
-120.9928879999999936
11
46.4987709999999979
21
-120.9928819999999945
0
LINE
8
Edge.Cuts
6
CONTINUOUS
10
46.4987709999999979
20
-120.9928819999999945
11
46.5246159999999946
21
-61.835405999999999
0
LINE
8
Edge.Cuts
6
CONTINUOUS
10
46.5246159999999946
20
-61.835405999999999
11
46.5246169999999992
21
-61.8353979999999979
0
LINE
8
Edge.Cuts
6
CONTINUOUS
10
46.5246169999999992
20
-61.8353979999999979
11
46.5385080000000002
21
-61.6672459999999987
0
LINE
8
Edge.Cuts
6
CONTINUOUS
10
46.5385080000000002
20
-61.6672459999999987
11
46.5798029999999983
21
-61.5036330000000007
0
LINE
8
Edge.Cuts
6
CONTINUOUS
10
46.5798029999999983
20
-61.5036330000000007
11
46.6473820000000003
21
-61.3490119999999948
0
LINE
8
Edge.Cuts
6
CONTINUOUS
10
46.6473820000000003
20
-61.3490119999999948
11
46.739412999999999
21
-61.2075729999999965
0
LINE
8
Edge.Cuts
6
CONTINUOUS
10
46.739412999999999
20
-61.2075729999999965
11
46.8534019999999956
21
-61.0831499999999963
0
LINE
8
Edge.Cuts
6
CONTINUOUS
10
46.8534019999999956
20
-61.0831499999999963
11
46.9862589999999969
21
-60.9791150000000002
0
LINE
8
Edge.Cuts
6
CONTINUOUS
10
46.9862589999999969
20
-60.9791150000000002
11
46.9865319999999969
21
-60.9790390000000002
0
LINE
8
Edge.Cuts
6
CONTINUOUS
10
46.9865319999999969
20
-60.9790390000000002
11
46.9868710000000007
21
-60.9787249999999972
0
LINE
8
Edge.Cuts
6
CONTINUOUS
10
46.9868710000000007
20
-60.9787249999999972
11
63.2604819999999961
21
-50.9361979999999974
0
LINE
8
Edge.Cuts
6
CONTINUOUS
10
63.2604819999999961
20
-50.9361979999999974
11
63.2607429999999979
21
-50.9360999999999962
0
LINE
8
Edge.Cuts
6
CONTINUOUS
10
63.2607429999999979
20
-50.9360999999999962
11
63.3899479999999969
21
-50.8639689999999973
0
LINE
8
Edge.Cuts
6
CONTINUOUS
10
63.3899479999999969
20
-50.8639689999999973
11
63.5291849999999982
21
-50.8109729999999971
0
LINE
8
Edge.Cuts
6
CONTINUOUS
10
63.5291849999999982
20
-50.8109729999999971
11
63.674633
21
-50.7787199999999999
0
LINE
8
Edge.Cuts
6
CONTINUOUS
10
63.674633
20
-50.7787199999999999
11
63.8232209999999966
21
-50.7678930000000008
0
LINE
8
Edge.Cuts
6
CONTINUOUS
10
63.8232209999999966
20
-50.7678930000000008
11
83.5237709999999964
21
-50.7678930000000008
0
LINE
8
Edge.Cuts
6
CONTINUOUS
10
83.5237709999999964
20
-50.7678930000000008
11
83.6090719999999976
21
-50.7678930000000008
0
LINE
8
Edge.Cuts
6
CONTINUOUS
10
83.6090719999999976
20
-50.7678930000000008
11
83.7770829999999904
21
-50.7382679999999979
0
LINE
8
Edge.Cuts
6
CONTINUOUS
10
83.7770829999999904
20
-50.7382679999999979
11
83.9373980000000017
21
-50.6799180000000007
0
LINE
8
Edge.Cuts
6
CONTINUOUS
10
83.9373980000000017
20
-50.6799180000000007
11
84.0851439999999997
21
-50.5946169999999995
0
LINE
8
Edge.Cuts
6
CONTINUOUS
10
84.0851439999999997
20
-50.5946169999999995
11
84.215834000000001
21
-50.4849559999999968
0
LINE
8
Edge.Cuts
6
CONTINUOUS
10
84.215834000000001
20
-50.4849559999999968
11
84.3254949999999894
21
-50.3542659999999955
0
LINE
8
Edge.Cuts
6
CONTINUOUS
10
84.3254949999999894
20
-50.3542659999999955
11
84.4107959999999906
21
-50.2065199999999976
0
LINE
8
Edge.Cuts
6
CONTINUOUS
10
84.4107959999999906
20
-50.2065199999999976
11
84.469145999999995
21
-50.0462050000000005
0
LINE
8
Edge.Cuts
6
CONTINUOUS
10
84.469145999999995
20
-50.0462050000000005
11
84.4987709999999907
21
-49.8781940000000006
0
LINE
8
Edge.Cuts
6
CONTINUOUS
10
84.4987709999999907
20
-49.8781940000000006
11
84.4987709999999907
21
-49.7928929999999994
0
LINE
8
Edge.Cuts
6
CONTINUOUS
10
84.4987709999999907
20
-49.7928929999999994
11
84.4987709999999907
21
-46.9928929999999951
0
LINE
8
Edge.Cuts
6
CONTINUOUS
10
84.4987709999999907
20
-46.9928929999999951
11
84.5143429999999967
21
-46.8149039999999985
0
LINE
8
Edge.Cuts
6
CONTINUOUS
10
84.5143429999999967
20
-46.8149039999999985
11
84.5605860000000007
21
-46.6423220000000001
0
LINE
8
Edge.Cuts
6
CONTINUOUS
10
84.5605860000000007
20
-46.6423220000000001
11
84.6360949999999974
21
-46.4803929999999994
0
LINE
8
Edge.Cuts
6
CONTINUOUS
10
84.6360949999999974
20
-46.4803929999999994
11
84.7385749999999973
21
-46.3340350000000001
0
LINE
8
Edge.Cuts
6
CONTINUOUS
10
84.7385749999999973
20
-46.3340350000000001
11
84.8649130000000014
21
-46.207696999999996
0
LINE
8
Edge.Cuts
6
CONTINUOUS
10
84.8649130000000014
20
-46.207696999999996
11
85.0112709999999936
21
-46.1052169999999961
0
LINE
8
Edge.Cuts
6
CONTINUOUS
10
85.0112709999999936
20
-46.1052169999999961
11
85.1731999999999942
21
-46.0297079999999994
0
LINE
8
Edge.Cuts
6
CONTINUOUS
10
85.1731999999999942
20
-46.0297079999999994
11
85.3457819999999998
21
-45.9834649999999954
0
LINE
8
Edge.Cuts
6
CONTINUOUS
10
85.3457819999999998
20
-45.9834649999999954
11
85.5237709999999964
21
-45.9678929999999966
0
LINE
8
Edge.Cuts
6
CONTINUOUS
10
85.5237709999999964
20
-45.9678929999999966
11
104.0237709999999964
21
-45.9678929999999966
0
LINE
8
Edge.Cuts
6
CONTINUOUS
10
85.5237709999999964
20
-46.0178930000000008
11
85.4384699999999953
21
-46.0178930000000008
0
LINE
8
Edge.Cuts
6
CONTINUOUS
10
85.4384699999999953
20
-46.0178930000000008
11
85.2704590000000024
21
-46.0475179999999966
0
LINE
8
Edge.Cuts
6
CONTINUOUS
10
85.2704590000000024
20
-46.0475179999999966
11
85.1101439999999911
21
-46.105868000000001
0
LINE
8
Edge.Cuts
6
CONTINUOUS
10
85.1101439999999911
20
-46.105868000000001
11
84.9623979999999932
21
-46.191168999999995
0
LINE
8
Edge.Cuts
6
CONTINUOUS
10
84.9623979999999932
20
-46.191168999999995
11
84.8317079999999919
21
-46.3008299999999977
0
LINE
8
Edge.Cuts
6
CONTINUOUS
10
84.8317079999999919
20
-46.3008299999999977
11
84.7220469999999892
21
-46.431519999999999
0
LINE
8
Edge.Cuts
6
CONTINUOUS
10
84.7220469999999892
20
-46.431519999999999
11
84.6367460000000023
21
-46.579265999999997
0
LINE
8
Edge.Cuts
6
CONTINUOUS
10
84.6367460000000023
20
-46.579265999999997
11
84.5783959999999979
21
-46.7395810000000012
0
LINE
8
Edge.Cuts
6
CONTINUOUS
10
84.5783959999999979
20
-46.7395810000000012
11
84.5487710000000021
21
-46.9075920000000011
0
LINE
8
Edge.Cuts
6
CONTINUOUS
10
84.5487710000000021
20
-46.9075920000000011
11
84.5487710000000021
21
-46.9928929999999951
0
LINE
8
Edge.Cuts
6
CONTINUOUS
10
84.5487710000000021
20
-46.9928929999999951
11
84.5487710000000021
21
-49.7928929999999994
0
LINE
8
Edge.Cuts
6
CONTINUOUS
10
84.5487710000000021
20
-49.7928929999999994
11
84.5331989999999962
21
-49.970881999999996
0
LINE
8
Edge.Cuts
6
CONTINUOUS
10
84.5331989999999962
20
-49.970881999999996
11
84.4869559999999922
21
-50.1434639999999945
0
LINE
8
Edge.Cuts
6
CONTINUOUS
10
84.4869559999999922
20
-50.1434639999999945
11
84.4114469999999955
21
-50.3053929999999951
0
LINE
8
Edge.Cuts
6
CONTINUOUS
10
84.4114469999999955
20
-50.3053929999999951
11
84.3089669999999956
21
-50.4517509999999945
0
LINE
8
Edge.Cuts
6
CONTINUOUS
10
84.3089669999999956
20
-50.4517509999999945
11
84.1826289999999915
21
-50.5780889999999985
0
LINE
8
Edge.Cuts
6
CONTINUOUS
10
84.1826289999999915
20
-50.5780889999999985
11
84.0362709999999993
21
-50.6805689999999984
0
LINE
8
Edge.Cuts
6
CONTINUOUS
10
84.0362709999999993
20
-50.6805689999999984
11
83.8743419999999986
21
-50.7560779999999951
0
LINE
8
Edge.Cuts
6
CONTINUOUS
10
83.8743419999999986
20
-50.7560779999999951
11
83.7017599999999931
21
-50.8023209999999992
0
LINE
8
Edge.Cuts
6
CONTINUOUS
10
83.7017599999999931
20
-50.8023209999999992
11
83.5237709999999964
21
-50.817892999999998
0
LINE
8
Edge.Cuts
6
CONTINUOUS
10
83.5237709999999964
20
-50.817892999999998
11
63.8232209999999966
21
-50.817892999999998
0
LINE
8
Edge.Cuts
6
CONTINUOUS
10
63.8232209999999966
20
-50.817892999999998
11
63.7521739999999966
21
-50.8178699999999992
0
LINE
8
Edge.Cuts
6
CONTINUOUS
10
63.7521739999999966
20
-50.8178699999999992
11
63.6115819999999985
21
-50.8384679999999989
0
LINE
8
Edge.Cuts
6
CONTINUOUS
10
63.6115819999999985
20
-50.8384679999999989
11
63.4754609999999957
21
-50.8792299999999997
0
LINE
8
Edge.Cuts
6
CONTINUOUS
10
63.4754609999999957
20
-50.8792299999999997
11
63.3466859999999983
21
-50.9392939999999967
0
LINE
8
Edge.Cuts
6
CONTINUOUS
10
63.3466859999999983
20
-50.9392939999999967
11
63.2873449999999949
21
-50.9783609999999996
0
LINE
8
Edge.Cuts
6
CONTINUOUS
10
63.2873449999999949
20
-50.9783609999999996
11
63.2870769999999965
21
-50.978434
0
LINE
8
Edge.Cuts
6
CONTINUOUS
10
63.2870769999999965
20
-50.978434
11
63.2867399999999947
21
-50.978747999999996
0
LINE
8
Edge.Cuts
6
CONTINUOUS
10
63.2867399999999947
20
-50.978747999999996
11
47.0134350000000012
21
-61.0210849999999994
0
LINE
8
Edge.Cuts
6
CONTINUOUS
10
47.0134350000000012
20
-61.0210849999999994
11
46.9464520000000007
21
-61.0651289999999989
0
LINE
8
Edge.Cuts
6
CONTINUOUS
10
46.9464520000000007
20
-61.0651289999999989
11
46.828246
21
-61.1745299999999972
0
LINE
8
Edge.Cuts
6
CONTINUOUS
10
46.828246
20
-61.1745299999999972
11
46.7295899999999946
21
-61.3018420000000006
0
LINE
8
Edge.Cuts
6
CONTINUOUS
10
46.7295899999999946
20
-61.3018420000000006
11
46.6531589999999952
21
-61.4436149999999941
0
LINE
8
Edge.Cuts
6
CONTINUOUS
10
46.6531589999999952
20
-61.4436149999999941
11
46.6010229999999979
21
-61.5960059999999956
0
LINE
8
Edge.Cuts
6
CONTINUOUS
10
46.6010229999999979
20
-61.5960059999999956
11
46.5745949999999951
21
-61.7548859999999991
0
LINE
8
Edge.Cuts
6
CONTINUOUS
10
46.5745949999999951
20
-61.7548859999999991
11
46.5746159999999989
21
-61.8354169999999996
0
LINE
8
Edge.Cuts
6
CONTINUOUS
10
46.5746159999999989
20
-61.8354169999999996
11
46.5746139999999968
21
-61.8354209999999966
0
LINE
8
Edge.Cuts
6
CONTINUOUS
10
46.5746139999999968
20
-61.8354209999999966
11
46.5746159999999989
21
-61.8354280000000003
0
LINE
8
Edge.Cuts
6
CONTINUOUS
10
46.5746159999999989
20
-61.8354280000000003
11
46.548770999999995
21
-120.9928929999999951
0
LINE
8
Edge.Cuts
6
CONTINUOUS
10
46.548770999999995
20
-120.9928929999999951
11
46.548770999999995
21
-121.0781939999999963
0
LINE
8
Edge.Cuts
6
CONTINUOUS
10
46.548770999999995
20
-121.0781939999999963
11
46.5783959999999979
21
-121.2462049999999891
0
LINE
8
Edge.Cuts
6
CONTINUOUS
10
46.5783959999999979
20
-121.2462049999999891
11
46.6367459999999951
21
-121.4065200000000004
0
LINE
8
Edge.Cuts
6
CONTINUOUS
10
46.6367459999999951
20
-121.4065200000000004
11
46.7220469999999963
21
-121.5542659999999984
0
LINE
8
Edge.Cuts
6
CONTINUOUS
10
46.7220469999999963
20
-121.5542659999999984
11
46.831707999999999
21
-121.6849559999999997
0
LINE
8
Edge.Cuts
6
CONTINUOUS
10
46.831707999999999
20
-121.6849559999999997
11
46.9623980000000003
21
-121.7946169999999881
0
LINE
8
Edge.Cuts
6
CONTINUOUS
10
46.9623980000000003
20
-121.7946169999999881
11
47.1101439999999982
21
-121.8799179999999893
0
LINE
8
Edge.Cuts
6
CONTINUOUS
10
47.1101439999999982
20
-121.8799179999999893
11
47.2704589999999953
21
-121.9382679999999937
0
LINE
8
Edge.Cuts
6
CONTINUOUS
10
47.2704589999999953
20
-121.9382679999999937
11
47.4384699999999953
21
-121.9678929999999895
0
LINE
8
Edge.Cuts
6
CONTINUOUS
10
47.4384699999999953
20
-121.9678929999999895
11
47.5237709999999964
21
-121.9678929999999895
0
LINE
8
Edge.Cuts
6
CONTINUOUS
10
47.5237709999999964
20
-121.9678929999999895
11
66.7237709999999993
21
-121.9678929999999895
0
LINE
8
Edge.Cuts
6
CONTINUOUS
10
66.7237709999999993
20
-121.9678929999999895
11
66.7673269999999945
21
-121.9678929999999895
0
LINE
8
Edge.Cuts
6
CONTINUOUS
10
66.7673269999999945
20
-121.9678929999999895
11
66.850174999999993
21
-121.9409739999999971
0
LINE
8
Edge.Cuts
6
CONTINUOUS
10
66.850174999999993
20
-121.9409739999999971
11
66.9206489999999974
21
-121.8897709999999961
0
LINE
8
Edge.Cuts
6
CONTINUOUS
10
66.9206489999999974
20
-121.8897709999999961
11
66.9718519999999984
21
-121.8192969999999917
0
LINE
8
Edge.Cuts
6
CONTINUOUS
10
66.9718519999999984
20
-121.8192969999999917
11
66.9987709999999907
21
-121.7364489999999932
0
LINE
8
Edge.Cuts
6
CONTINUOUS
10
66.9987709999999907
20
-121.7364489999999932
11
66.9987709999999907
21
-121.692892999999998
0
LINE
8
Edge.Cuts
6
CONTINUOUS
10
66.9987709999999907
20
-121.692892999999998
11
67.0143429999999967
21
-121.5149040000000014
0
LINE
8
Edge.Cuts
6
CONTINUOUS
10
67.0143429999999967
20
-121.5149040000000014
11
67.0605860000000007
21
-121.3423219999999958
0
LINE
8
Edge.Cuts
6
CONTINUOUS
10
67.0605860000000007
20
-121.3423219999999958
11
67.1360949999999974
21
-121.1803929999999951
0
LINE
8
Edge.Cuts
6
CONTINUOUS
10
67.1360949999999974
20
-121.1803929999999951
11
67.2385749999999973
21
-121.0340349999999887
0
LINE
8
Edge.Cuts
6
CONTINUOUS
10
67.2385749999999973
20
-121.0340349999999887
11
67.3649130000000014
21
-120.9076969999999989
0
LINE
8
Edge.Cuts
6
CONTINUOUS
10
67.3649130000000014
20
-120.9076969999999989
11
67.5112709999999936
21
-120.805216999999999
0
LINE
8
Edge.Cuts
6
CONTINUOUS
10
67.5112709999999936
20
-120.805216999999999
11
67.6731999999999942
21
-120.729707999999988
0
LINE
8
Edge.Cuts
6
CONTINUOUS
10
67.6731999999999942
20
-120.729707999999988
11
67.8457819999999998
21
-120.6834649999999982
0
LINE
8
Edge.Cuts
6
CONTINUOUS
10
67.8457819999999998
20
-120.6834649999999982
11
68.0237709999999964
21
-120.6678929999999923
0
LINE
8
Edge.Cuts
6
CONTINUOUS
10
68.0237709999999964
20
-120.6678929999999923
11
110.9575809999999905
21
-120.6678929999999923
0
LINE
8
Edge.Cuts
6
CONTINUOUS
10
110.9575809999999905
20
-120.6678929999999923
11
111.1327399999999983
21
-120.6829699999999974
0
LINE
8
Edge.Cuts
6
CONTINUOUS
10
111.1327399999999983
20
-120.6829699999999974
11
111.3027459999999991
21
-120.7277569999999969
0
LINE
8
Edge.Cuts
6
CONTINUOUS
10
111.3027459999999991
20
-120.7277569999999969
11
111.4625969999999882
21
-120.8009379999999879
0
LINE
8
Edge.Cuts
6
CONTINUOUS
10
111.4625969999999882
20
-120.8009379999999879
11
111.6075919999999968
21
-120.9003579999999971
0
LINE
8
Edge.Cuts
6
CONTINUOUS
10
111.6075919999999968
20
-120.9003579999999971
11
111.7334639999999979
21
-121.0230940000000004
0
LINE
8
Edge.Cuts
6
CONTINUOUS
10
111.7334639999999979
20
-121.0230940000000004
11
111.8365110000000016
21
-121.1655349999999913
0
LINE
8
Edge.Cuts
6
CONTINUOUS
10
111.8365110000000016
20
-121.1655349999999913
11
117.9116169999999926
21
-131.2907109999999875
0
LINE
8
Edge.Cuts
6
CONTINUOUS
10
117.9116169999999926
20
-131.2907109999999875
11
117.91161799999999
21
-131.2907150000000058
0
LINE
8
Edge.Cuts
6
CONTINUOUS
10
117.91161799999999
20
-131.2907150000000058
11
117.9545009999999934
21
-131.3621320000000026
0
LINE
8
Edge.Cuts
6
CONTINUOUS
10
117.9545009999999934
20
-131.3621320000000026
11
118.0632200000000012
21
-131.4883879999999863
0
LINE
8
Edge.Cuts
6
CONTINUOUS
10
118.0632200000000012
20
-131.4883879999999863
11
118.1917819999999892
21
-131.5943699999999978
0
LINE
8
Edge.Cuts
6
CONTINUOUS
10
118.1917819999999892
20
-131.5943699999999978
11
118.3364599999999882
21
-131.6770049999999799
0
LINE
8
Edge.Cuts
6
CONTINUOUS
10
118.3364599999999882
20
-131.6770049999999799
11
118.4930599999999998
21
-131.7338969999999847
0
LINE
8
Edge.Cuts
6
CONTINUOUS
10
118.4930599999999998
20
-131.7338969999999847
11
118.5750460000000004
21
-131.7486739999999941
0
LINE
8
Edge.Cuts
6
CONTINUOUS
10
118.5750460000000004
20
-131.7486739999999941
11
136.8909929999999804
21
-135.0436059999999827
0
LINE
8
Edge.Cuts
6
CONTINUOUS
10
136.8909929999999804
20
-135.0436059999999827
11
136.8909950000000038
21
-135.0436059999999827
0
LINE
8
Edge.Cuts
6
CONTINUOUS
10
136.8909950000000038
20
-135.0436059999999827
11
136.9832459999999799
21
-135.0646309999999914
0
LINE
8
Edge.Cuts
6
CONTINUOUS
10
136.9832459999999799
20
-135.0646309999999914
11
137.0731639999999913
21
-135.0940799999999911
0
LINE
8
Edge.Cuts
6
CONTINUOUS
10
137.0731639999999913
20
-135.0940799999999911
11
137.1599760000000003
21
-135.1316989999999976
0
LINE
8
Edge.Cuts
6
CONTINUOUS
10
137.1599760000000003
20
-135.1316989999999976
11
137.1599769999999978
21
-135.131699999999995
0
LINE
8
Edge.Cuts
6
CONTINUOUS
10
137.1599769999999978
20
-135.131699999999995
11
154.717191999999983
21
-143.7215190000000007
0
LINE
8
Edge.Cuts
6
CONTINUOUS
10
154.717191999999983
20
-143.7215190000000007
11
154.7171929999999804
21
-143.7215199999999982
0
LINE
8
Edge.Cuts
6
CONTINUOUS
10
154.7171929999999804
20
-143.7215199999999982
11
154.7948939999999993
21
-143.7594210000000032
0
LINE
8
Edge.Cuts
6
CONTINUOUS
10
154.7948939999999993
20
-143.7594210000000032
11
154.9611559999999884
21
-143.806888999999984
0
LINE
8
Edge.Cuts
6
CONTINUOUS
10
154.9611559999999884
20
-143.806888999999984
11
155.1331769999999892
21
-143.824358999999987
0
LINE
8
Edge.Cuts
6
CONTINUOUS
10
155.1331769999999892
20
-143.824358999999987
11
155.3055889999999977
21
-143.8112859999999955
0
LINE
8
Edge.Cuts
6
CONTINUOUS
10
155.3055889999999977
20
-143.8112859999999955
11
155.4730089999999905
21
-143.7680759999999793
0
LINE
8
Edge.Cuts
6
CONTINUOUS
10
155.4730089999999905
20
-143.7680759999999793
11
155.6302120000000002
21
-143.6960799999999949
0
LINE
8
Edge.Cuts
6
CONTINUOUS
10
155.6302120000000002
20
-143.6960799999999949
11
155.772293999999988
21
-143.5975439999999992
0
LINE
8
Edge.Cuts
6
CONTINUOUS
10
155.772293999999988
20
-143.5975439999999992
11
155.894818999999984
21
-143.4755429999999876
0
LINE
8
Edge.Cuts
6
CONTINUOUS
10
155.894818999999984
20
-143.4755429999999876
11
155.993961999999982
21
-143.3338849999999809
0
LINE
8
Edge.Cuts
6
CONTINUOUS
10
155.993961999999982
20
-143.3338849999999809
11
156.0303889999999853
21
-143.2554810000000032
0
LINE
8
Edge.Cuts
6
CONTINUOUS
10
156.0303889999999853
20
-143.2554810000000032
11
163.9776059999999802
21
-126.0967169999999982
0
LINE
8
Edge.Cuts
6
CONTINUOUS
10
163.9776059999999802
20
-126.0967169999999982
11
164.0135959999999784
21
-126.0189249999999959
0
LINE
8
Edge.Cuts
6
CONTINUOUS
10
164.0135959999999784
20
-126.0189249999999959
11
164.0573949999999854
21
-125.8531879999999887
0
LINE
8
Edge.Cuts
6
CONTINUOUS
10
164.0573949999999854
20
-125.8531879999999887
11
164.0716050000000052
21
-125.682350999999997
0
LINE
8
Edge.Cuts
6
CONTINUOUS
10
164.0716050000000052
20
-125.682350999999997
11
164.0557890000000043
21
-125.5116549999999904
0
LINE
8
Edge.Cuts
6
CONTINUOUS
10
164.0557890000000043
20
-125.5116549999999904
11
164.0104319999999802
21
-125.3463369999999912
0
LINE
8
Edge.Cuts
6
CONTINUOUS
10
164.0104319999999802
20
-125.3463369999999912
11
163.9369259999999997
21
-125.1914680000000004
0
LINE
8
Edge.Cuts
6
CONTINUOUS
10
163.9369259999999997
20
-125.1914680000000004
11
163.8375259999999969
21
-125.0518009999999975
0
LINE
8
Edge.Cuts
6
CONTINUOUS
10
163.8375259999999969
20
-125.0518009999999975
11
163.7152810000000045
21
-124.9316199999999952
0
LINE
8
Edge.Cuts
6
CONTINUOUS
10
163.7152810000000045
20
-124.9316199999999952
11
163.5739429999999857
21
-124.8346109999999953
0
LINE
8
Edge.Cuts
6
CONTINUOUS
10
163.5739429999999857
20
-124.8346109999999953
11
163.4959089999999833
21
-124.7991479999999882
0
LINE
8
Edge.Cuts
6
CONTINUOUS
10
163.4959089999999833
20
-124.7991479999999882
11
163.4959079999999858
21
-124.7991469999999907
0
LINE
8
Edge.Cuts
6
CONTINUOUS
10
163.4959079999999858
20
-124.7991469999999907
11
149.8000849999999957
21
-118.5819649999999967
0
LINE
8
Edge.Cuts
6
CONTINUOUS
10
149.8000849999999957
20
-118.5819649999999967
11
149.8000839999999982
21
-118.5819649999999967
0
LINE
8
Edge.Cuts
6
CONTINUOUS
10
149.8000839999999982
20
-118.5819649999999967
11
149.6537999999999897
21
-118.5005319999999926
0
LINE
8
Edge.Cuts
6
CONTINUOUS
10
149.6537999999999897
20
-118.5005319999999926
11
149.5227219999999875
21
-118.3963739999999945
0
LINE
8
Edge.Cuts
6
CONTINUOUS
10
149.5227219999999875
20
-118.3963739999999945
11
149.410347999999999
21
-118.2722689999999943
0
LINE
8
Edge.Cuts
6
CONTINUOUS
10
149.410347999999999
20
-118.2722689999999943
11
149.3196729999999945
21
-118.1315269999999913
0
LINE
8
Edge.Cuts
6
CONTINUOUS
10
149.3196729999999945
20
-118.1315269999999913
11
149.2531170000000031
21
-117.9779020000000003
0
LINE
8
Edge.Cuts
6
CONTINUOUS
10
149.2531170000000031
20
-117.9779020000000003
11
149.2124539999999797
21
-117.8154929999999894
0
LINE
8
Edge.Cuts
6
CONTINUOUS
10
149.2124539999999797
20
-117.8154929999999894
11
149.1987719999999911
21
-117.6486489999999918
0
LINE
8
Edge.Cuts
6
CONTINUOUS
10
149.1987719999999911
20
-117.6486489999999918
11
149.1987709999999936
21
-117.6486419999999953
0
LINE
8
Edge.Cuts
6
CONTINUOUS
10
149.1987709999999936
20
-117.6486419999999953
11
149.1681109999999819
21
-59.4278379999999942
0
LINE
8
Edge.Cuts
6
CONTINUOUS
10
149.1681109999999819
20
-59.4278379999999942
11
149.1681109999999819
21
-59.4278369999999967
0
LINE
8
Edge.Cuts
6
CONTINUOUS
10
149.1681109999999819
20
-59.4278369999999967
11
149.1680829999999958
21
-59.3512179999999958
0
LINE
8
Edge.Cuts
6
CONTINUOUS
10
149.1680829999999958
20
-59.3512179999999958
11
149.1440729999999917
21
-59.1998749999999987
0
LINE
8
Edge.Cuts
6
CONTINUOUS
10
149.1440729999999917
20
-59.1998749999999987
11
149.096714999999989
21
-59.0541399999999967
0
LINE
8
Edge.Cuts
6
CONTINUOUS
10
149.096714999999989
20
-59.0541399999999967
11
149.0271709999999814
21
-58.9175929999999966
0
LINE
8
Edge.Cuts
6
CONTINUOUS
10
149.0271709999999814
20
-58.9175929999999966
11
148.9371490000000051
21
-58.7935869999999952
0
LINE
8
Edge.Cuts
6
CONTINUOUS
10
148.9371490000000051
20
-58.7935869999999952
11
148.8829989999999839
21
-58.7393829999999966
0
LINE
8
Edge.Cuts
6
CONTINUOUS
10
148.8829989999999839
20
-58.7393829999999966
11
148.8829979999999864
21
-58.7393819999999991
0
LINE
8
Edge.Cuts
6
CONTINUOUS
10
148.8829979999999864
20
-58.7393819999999991
11
144.0539640000000077
21
-53.9039219999999943
0
LINE
8
Edge.Cuts
6
CONTINUOUS
10
144.0539640000000077
20
-53.9039219999999943
11
143.9996909999999843
21
-53.8495849999999976
0
LINE
8
Edge.Cuts
6
CONTINUOUS
10
143.9996909999999843
20
-53.8495849999999976
11
143.8754749999999945
21
-53.7592359999999942
0
LINE
8
Edge.Cuts
6
CONTINUOUS
10
143.8754749999999945
20
-53.7592359999999942
11
143.7386459999999886
21
-53.6894500000000008
0
LINE
8
Edge.Cuts
6
CONTINUOUS
10
143.7386459999999886
20
-53.6894500000000008
11
143.5925790000000006
21
-53.6419469999999947
0
LINE
8
Edge.Cuts
6
CONTINUOUS
10
143.5925790000000006
20
-53.6419469999999947
11
143.4408750000000055
21
-53.6178979999999967
0
LINE
8
Edge.Cuts
6
CONTINUOUS
10
143.4408750000000055
20
-53.6178979999999967
11
143.364075999999983
21
-53.6178929999999951
0
LINE
8
Edge.Cuts
6
CONTINUOUS
10
143.364075999999983
20
-53.6178929999999951
11
125.1237709999999907
21
-53.6178929999999951
0
LINE
8
Edge.Cuts
6
CONTINUOUS
10
125.1237709999999907
20
-53.6178929999999951
11
124.9457819999999941
21
-53.6023209999999963
0
LINE
8
Edge.Cuts
6
CONTINUOUS
10
124.9457819999999941
20
-53.6023209999999963
11
124.7731999999999886
21
-53.5560779999999994
0
LINE
8
Edge.Cuts
6
CONTINUOUS
10
124.7731999999999886
20
-53.5560779999999994
11
124.6112709999999879
21
-53.4805689999999956
0
LINE
8
Edge.Cuts
6
CONTINUOUS
10
124.6112709999999879
20
-53.4805689999999956
11
124.4649129999999957
21
-53.3780889999999957
0
LINE
8
Edge.Cuts
6
CONTINUOUS
10
124.4649129999999957
20
-53.3780889999999957
11
124.3385749999999916
21
-53.2517509999999987
0
LINE
8
Edge.Cuts
6
CONTINUOUS
10
124.3385749999999916
20
-53.2517509999999987
11
124.2360949999999917
21
-53.1053929999999994
0
LINE
8
Edge.Cuts
6
CONTINUOUS
10
124.2360949999999917
20
-53.1053929999999994
11
124.160585999999995
21
-52.9434639999999987
0
LINE
8
Edge.Cuts
6
CONTINUOUS
10
124.160585999999995
20
-52.9434639999999987
11
124.114342999999991
21
-52.7708820000000003
0
LINE
8
Edge.Cuts
6
CONTINUOUS
10
124.114342999999991
20
-52.7708820000000003
11
124.0987709999999993
21
-52.5928929999999966
0
LINE
8
Edge.Cuts
6
CONTINUOUS
10
124.0987709999999993
20
-52.5928929999999966
11
124.0987709999999993
21
-51.7928929999999994
0
LINE
8
Edge.Cuts
6
CONTINUOUS
10
124.0987709999999993
20
-51.7928929999999994
11
124.0987709999999993
21
-51.7075919999999982
0
LINE
8
Edge.Cuts
6
CONTINUOUS
10
124.0987709999999993
20
-51.7075919999999982
11
124.0691459999999893
21
-51.5395809999999983
0
LINE
8
Edge.Cuts
6
CONTINUOUS
10
124.0691459999999893
20
-51.5395809999999983
11
124.0107959999999991
21
-51.3792660000000012
0
LINE
8
Edge.Cuts
6
CONTINUOUS
10
124.0107959999999991
20
-51.3792660000000012
11
123.925494999999998
21
-51.2315199999999962
0
LINE
8
Edge.Cuts
6
CONTINUOUS
10
123.925494999999998
20
-51.2315199999999962
11
123.8158339999999953
21
-51.1008299999999949
0
LINE
8
Edge.Cuts
6
CONTINUOUS
10
123.8158339999999953
20
-51.1008299999999949
11
123.685143999999994
21
-50.9911689999999993
0
LINE
8
Edge.Cuts
6
CONTINUOUS
10
123.685143999999994
20
-50.9911689999999993
11
123.537397999999996
21
-50.9058679999999981
0
LINE
8
Edge.Cuts
6
CONTINUOUS
10
123.537397999999996
20
-50.9058679999999981
11
123.3770829999999989
21
-50.8475180000000009
0
LINE
8
Edge.Cuts
6
CONTINUOUS
10
123.3770829999999989
20
-50.8475180000000009
11
123.2090719999999919
21
-50.817892999999998
0
LINE
8
Edge.Cuts
6
CONTINUOUS
10
123.2090719999999919
20
-50.817892999999998
11
123.1237709999999907
21
-50.817892999999998
0
LINE
8
Edge.Cuts
6
CONTINUOUS
10
123.1237709999999907
20
-50.817892999999998
11
106.0237709999999964
21
-50.817892999999998
0
LINE
8
Edge.Cuts
6
CONTINUOUS
10
106.0237709999999964
20
-50.817892999999998
11
105.8457819999999998
21
-50.8023209999999992
0
LINE
8
Edge.Cuts
6
CONTINUOUS
10
105.8457819999999998
20
-50.8023209999999992
11
105.6731999999999942
21
-50.7560779999999951
0
LINE
8
Edge.Cuts
6
CONTINUOUS
10
105.6731999999999942
20
-50.7560779999999951
11
105.5112709999999936
21
-50.6805689999999984
0
LINE
8
Edge.Cuts
6
CONTINUOUS
10
105.5112709999999936
20
-50.6805689999999984
11
105.3649130000000014
21
-50.5780889999999985
0
LINE
8
Edge.Cuts
6
CONTINUOUS
10
105.3649130000000014
20
-50.5780889999999985
11
105.2385749999999973
21
-50.4517509999999945
0
LINE
8
Edge.Cuts
6
CONTINUOUS
10
105.2385749999999973
20
-50.4517509999999945
11
105.1360949999999974
21
-50.3053929999999951
0
LINE
8
Edge.Cuts
6
CONTINUOUS
10
105.1360949999999974
20
-50.3053929999999951
11
105.0605860000000007
21
-50.1434639999999945
0
LINE
8
Edge.Cuts
6
CONTINUOUS
10
105.0605860000000007
20
-50.1434639999999945
11
105.0143429999999967
21
-49.970881999999996
0
LINE
8
Edge.Cuts
6
CONTINUOUS
10
105.0143429999999967
20
-49.970881999999996
11
104.9987709999999907
21
-49.7928929999999994
0
LINE
8
Edge.Cuts
6
CONTINUOUS
10
104.9987709999999907
20
-49.7928929999999994
11
104.9987709999999907
21
-46.9928929999999951
0
LINE
8
Edge.Cuts
6
CONTINUOUS
10
104.9987709999999907
20
-46.9928929999999951
11
104.9987709999999907
21
-46.9075920000000011
0
LINE
8
Edge.Cuts
6
CONTINUOUS
10
104.9987709999999907
20
-46.9075920000000011
11
104.969145999999995
21
-46.7395810000000012
0
LINE
8
Edge.Cuts
6
CONTINUOUS
10
104.969145999999995
20
-46.7395810000000012
11
104.9107959999999906
21
-46.579265999999997
0
LINE
8
Edge.Cuts
6
CONTINUOUS
10
104.9107959999999906
20
-46.579265999999997
11
104.8254949999999894
21
-46.431519999999999
0
LINE
8
Edge.Cuts
6
CONTINUOUS
10
104.8254949999999894
20
-46.431519999999999
11
104.715834000000001
21
-46.3008299999999977
0
LINE
8
Edge.Cuts
6
CONTINUOUS
10
104.715834000000001
20
-46.3008299999999977
11
104.5851439999999997
21
-46.191168999999995
0
LINE
8
Edge.Cuts
6
CONTINUOUS
10
104.5851439999999997
20
-46.191168999999995
11
104.4373980000000017
21
-46.105868000000001
0
LINE
8
Edge.Cuts
6
CONTINUOUS
10
104.4373980000000017
20
-46.105868000000001
11
104.2770829999999904
21
-46.0475179999999966
0
LINE
8
Edge.Cuts
6
CONTINUOUS
10
104.2770829999999904
20
-46.0475179999999966
11
104.1090719999999976
21
-46.0178930000000008
0
LINE
8
Edge.Cuts
6
CONTINUOUS
10
104.1090719999999976
20
-46.0178930000000008
11
104.0237709999999964
21
-46.0178930000000008
0
LINE
8
Edge.Cuts
6
CONTINUOUS
10
104.0237709999999964
20
-46.0178930000000008
11
85.5237709999999964
21
-46.0178930000000008
  0
ENDSEC
  0
EOF
